SplineFontDB: 3.0
FontName: Isabella
FullName: Isabella
FamilyName: Isabella
Weight: Medium
Copyright: Created by John Stracke with PfaEdit 1.0 (http://pfaedit.sf.net).  Released under the GNU Lesser General Public License (LGPL): http://www.thibault.org/fonts/isabella/
UComments: "2010-03-5: 1.200: Adding a bunch of letters that fc-query recommended, to round out the set of scripts the font can support.+AAoACgAA-2010-03-04: 1.100: Fixing up a bunch of technicalities that fontforge found.+AAoACgAA-2005-07-03: 1.02: finally getting rid of the annoying ligatures-pretending-to-be-Greek-letters, and moving them up into the private use area.+AAoACgAA-2003-09-10: 1.01: LGPL; adding lowercase figures.+AAoACgAA-2003-08-24: 1.00: declaring victory.+AAoACgAA-2003-08-17: 0.94: added 50 more characters.  More or less complete now; don't really see any more that I can reasonably base on Isabella.+AAoACgAA-2003-08-16: 0.93: added a couple hundred more characters.+AAoACgAA-2003-08-07: fixed the TM.+AAoACgAA-2003-08-07: released.+AAoACgAA-2003-7-21: Created." 
Version: 001.200
ItalicAngle: 0
UnderlinePosition: -102
UnderlineWidth: 51
Ascent: 819
Descent: 205
LayerCount: 2
Layer: 0 0 "Back"  1
Layer: 1 0 "Fore"  0
XUID: [1021 117 711671440 15935222]
FSType: 8
OS2Version: 0
OS2_WeightWidthSlopeOnly: 0
OS2_UseTypoMetrics: 0
CreationTime: 1120439869
ModificationTime: 1267840267
PfmFamily: 17
TTFWeight: 500
TTFWidth: 5
LineGap: 92
VLineGap: 0
Panose: 2 0 6 3 0 0 0 0 0 0
OS2TypoAscent: 0
OS2TypoAOffset: 1
OS2TypoDescent: 0
OS2TypoDOffset: 1
OS2TypoLinegap: 0
OS2WinAscent: 0
OS2WinAOffset: 1
OS2WinDescent: 0
OS2WinDOffset: 1
HheadAscent: 0
HheadAOffset: 1
HheadDescent: 0
HheadDOffset: 1
OS2Vendor: 'PfEd'
Lookup: 4 0 1 "'liga' Standard Ligatures in Latin lookup 0"  {"'liga' Standard Ligatures in Latin lookup 0 subtable"  } ['liga' ('latn' <'dflt' > ) ]

StartChar: exclam
Encoding: 33 33 1
Width: 218
Flags: HW
VStem: 65 120<275 734>
LayerCount: 2
Fore
SplineSet
181 98 m 0
 157 74 154 64 132 48 c 16
 114 34 105 17 82 17 c 2
 80 17 l 9
 62 18 54 31 43 45 c 16
 30 62 17 76 17 95 c 0
 17 98 18 100 18 103 c 8
 23 134 46 146 71 165 c 16
 90 180 103 195 127 195 c 2
 132 195 l 1
 169 192 165 195 187 168 c 0
 197 156 203 145 203 135 c 0
 203 124 195 112 181 98 c 0
62 708 m 0
 62 733 92 733 114 745 c 0
 133 755 163 782 177 782 c 0
 181 782 184 779 184 772 c 0
 184 660 184 645 185 550 c 0
 185 536 185 521 185 507 c 0
 185 442 184 379 184 304 c 8
 184 278 157 274 135 260 c 16
 116 247 83 214 71 214 c 0
 67 214 65 217 65 223 c 0
 65 230 66 238 66 296 c 0
 66 430 62 699 62 708 c 0
EndSplineSet
Validated: 1
EndChar

StartChar: numbersign
Encoding: 35 35 3
Width: 371
Flags: HW
HStem: 326 41<32 270> 451 41<70 309>
LayerCount: 2
Fore
SplineSet
108 326 m 1
 68 216 65 216 59 216 c 0
 58 216 56 216 55 217 c 1
 53 217 52 218 52 220 c 0
 52 228 61 250 89 326 c 1
 85 327 79 327 73 327 c 0
 63 327 50 326 33 326 c 0
 31 326 30 327 30 328 c 0
 30 332 36 341 39 346 c 0
 48 364 41 367 75 367 c 2
 104 367 l 1
 134 452 l 1
 111 452 l 2
 102 452 88 452 71 451 c 0
 65 451 74 464 77 471 c 0
 86 489 79 493 114 493 c 2
 147 493 l 1
 166 550 l 2
 167 551 170 552 174 552 c 0
 181 552 189 550 187 546 c 2
 168 492 l 1
 240 492 l 1
 258 550 l 2
 259 551 262 552 266 552 c 0
 273 552 282 550 280 546 c 2
 260 493 l 1
 264 493 268 493 272 493 c 0
 287 493 305 492 323 492 c 1
 325 491 326 489 326 488 c 0
 326 483 316 472 313 464 c 0
 311 459 312 451 307 451 c 2
 245 451 l 1
 215 367 l 1
 234 367 l 2
 249 367 267 367 284 366 c 0
 293 366 279 349 275 339 c 0
 273 333 273 326 269 326 c 0
 250 325 233 325 217 325 c 2
 200 325 l 1
 187 288 174 256 160 221 c 0
 158 217 155 216 152 216 c 0
 150 216 148 216 147 217 c 1
 145 217 144 218 144 220 c 0
 144 228 153 250 181 325 c 1
 123 326 123 326 108 326 c 1
225 451 m 1
 153 451 l 1
 123 367 l 1
 148 367 172 367 197 367 c 1
 225 451 l 1
EndSplineSet
Validated: 1
EndChar

StartChar: dollar
Encoding: 36 36 4
Width: 434
Flags: HW
VStem: 202 54<508 527 508 590>
LayerCount: 2
Fore
SplineSet
262 292 m 0
 245 292 244 277 244 229 c 0
 244 209 245 197 245 189 c 0
 245 177 243 161 243 150 c 0
 243 140 244 133 250 133 c 0
 252 133 253 133 255 134 c 0
 295 149 350 139 355 182 c 17
 355 187 l 2
 355 230 293 292 262 292 c 0
196 418 m 0
 196 458 202 473 202 509 c 0
 202 546 196 544 196 605 c 0
 196 618 190 624 182 624 c 0
 151 624 81 551 81 503 c 0
 81 460 149 399 180 399 c 0
 189 399 196 405 196 418 c 0
212 26 m 0
 196 26 181 34 181 45 c 0
 181 55 188 71 188 83 c 0
 188 87 188 90 186 93 c 8
 145 155 51 136 51 207 c 0
 51 219 55 227 62 227 c 0
 98 224 155 168 179 168 c 0
 184 168 187 170 188 176 c 0
 193 199 195 211 195 222 c 2
 195 255 l 9
 197 277 198 285 198 310 c 8
 198 355 133 341 99 372 c 24
 65 403 34 420 29 466 c 16
 29 470 28 474 28 478 c 0
 28 522 54 549 84 586 c 8
 123 634 205 627 205 703 c 2
 205 712 l 2
 205 727 206 740 238 740 c 0
 246 740 253 738 259 731 c 0
 262 728 263 725 263 722 c 0
 263 716 259 708 259 700 c 0
 259 691 256 683 256 676 c 0
 256 640 304 641 327 624 c 24
 360 599 404 593 404 555 c 0
 404 543 394 535 385 525 c 0
 378 517 371 507 361 507 c 2
 357 507 l 9
 331 512 322 528 302 544 c 16
 286 557 266 596 259 596 c 0
 257 596 256 595 256 590 c 0
 255 568 255 553 255 541 c 0
 255 510 257 500 257 481 c 0
 257 428 250 454 250 392 c 0
 250 348 282 347 318 323 c 0
 360 294 407 249 407 199 c 0
 407 107 278 153 244 83 c 16
 242 79 241 75 241 70 c 0
 241 63 243 53 243 46 c 0
 243 30 222 26 212 26 c 0
EndSplineSet
Validated: 1
EndChar

StartChar: ampersand
Encoding: 38 38 6
Width: 431
Flags: HW
LayerCount: 2
Fore
SplineSet
146 356 m 0
 146 345 110 315 91 315 c 0
 79 315 69 324 57 331 c 8
 44 338 26 337 24 352 c 16
 24 354 24 356 24 358 c 0
 24 388 57 397 82 420 c 8
 114 449 128 481 171 484 c 17
 173 484 l 2
 195 484 201 465 266 426 c 0
 269 424 271 422 271 419 c 0
 271 409 246 395 239 380 c 0
 232 364 210 289 210 243 c 0
 210 238 211 233 211 229 c 8
 221 135 278 116 334 82 c 24
 359 67 389 75 401 50 c 0
 402 48 403 45 403 44 c 0
 403 36 393 35 380 35 c 0
 368 35 351 36 339 36 c 2
 331 36 l 1
 316 35 304 34 294 34 c 0
 263 34 254 41 226 63 c 8
 198 86 152 106 152 178 c 0
 152 196 155 216 156 239 c 0
 159 286 182 314 182 355 c 0
 182 377 175 415 145 415 c 0
 130 415 117 404 117 394 c 0
 117 386 125 379 131 371 c 8
 136 364 146 366 146 356 c 0
EndSplineSet
Validated: 1
EndChar

StartChar: zero
Encoding: 48 48 7
Width: 414
Flags: HW
LayerCount: 2
Fore
SplineSet
128 356 m 9
 130 255 192 130 210 130 c 0
 234 130 263 232 279 289 c 8
 301 363 290 408 297 485 c 17
 298 516 301 534 301 559 c 0
 301 576 299 598 294 630 c 9
 283 646 285 669 266 673 c 16
 264 673 262 674 260 674 c 0
 242 674 231 653 217 637 c 0
 147 559 128 463 128 365 c 2
 128 356 l 9
174 13 m 0
 116 13 113 66 91 108 c 24
 65 158 50 188 45 243 c 16
 41 291 30 339 30 396 c 0
 30 458 43 532 94 627 c 8
 126 686 151 720 202 764 c 16
 229 787 246 811 279 811 c 0
 281 811 283 811 285 811 c 8
 317 808 330 786 346 759 c 24
 389 687 374 632 392 550 c 17
 386 495 389 441 374 372 c 9
 335 259 324 186 245 58 c 0
 229 30 204 13 174 13 c 0
EndSplineSet
Validated: 1
EndChar

StartChar: one
Encoding: 49 49 8
Width: 237
Flags: HW
VStem: 98 86<361 640>
LayerCount: 2
Fore
SplineSet
210 41 m 0
 210 18 193 0 169 0 c 0
 168 0 167 0 166 0 c 8
 136 2 124 23 101 43 c 24
 76 66 50 77 49 111 c 24
 49 121 58 125 65 132 c 24
 76 144 96 143 98 160 c 16
 101 187 102 208 102 230 c 0
 102 272 98 310 98 362 c 2
 98 595 l 2
 98 641 98 640 95 654 c 8
 92 669 73 665 58 667 c 16
 57 667 56 667 55 667 c 0
 46 667 37 662 30 662 c 0
 21 662 19 671 19 678 c 0
 19 702 61 711 83 734 c 8
 107 758 113 780 144 793 c 16
 156 798 167 802 178 802 c 0
 192 802 215 796 215 757 c 0
 215 720 185 704 184 667 c 0
 183 639 183 616 183 592 c 0
 183 542 184 497 184 443 c 2
 184 402 l 1
 183 355 177 261 177 188 c 0
 177 63 198 100 206 65 c 16
 208 57 210 48 210 41 c 0
EndSplineSet
Validated: 1
EndChar

StartChar: two
Encoding: 50 50 9
Width: 584
Flags: HW
HStem: 78 79<259 378> 705 97<192 293>
VStem: 367 73<431 606>
LayerCount: 2
Fore
SplineSet
568 35 m 0
 568 27 562 0 535 0 c 0
 517 0 492 11 470 15 c 0
 422 23 372 78 288 78 c 0
 261 78 232 72 197 58 c 8
 168 47 160 22 129 15 c 16
 112 11 86 6 67 6 c 0
 51 6 38 10 38 20 c 0
 38 22 39 25 40 28 c 0
 74 108 109 125 157 184 c 24
 223 266 367 371 367 514 c 0
 367 545 359 578 341 614 c 8
 334 628 300 705 239 705 c 0
 207 705 190 671 154 667 c 0
 143 666 131 662 121 662 c 0
 102 662 97 681 97 688 c 0
 97 714 129 734 154 753 c 0
 191 782 222 802 263 802 c 0
 336 802 355 753 384 710 c 24
 417 660 437 625 439 565 c 17
 439 549 l 2
 439 458 409 402 366 316 c 8
 316 216 258 183 258 166 c 0
 258 158 273 157 295 157 c 2
 340 157 l 2
 342 157 346 157 350 157 c 0
 372 157 420 152 488 101 c 0
 519 77 568 66 568 35 c 0
EndSplineSet
Validated: 1
EndChar

StartChar: three
Encoding: 51 51 10
Width: 372
Flags: W
HStem: 0 104<82.6811 190.406> 737 72<143.93 244.076>
VStem: 43 178<347.5 427> 255 92<149.605 307.304> 270 85<586.874 707.967>
LayerCount: 2
Fore
SplineSet
114 0 m 0xf0
 64 0 29 35 29 62 c 0
 29 93 60 128 68 138 c 0
 83 156 92 182 114 182 c 0
 148 182 125 136 147 120 c 16
 159 111 173 104 186 104 c 0
 193 104 201 107 209 111 c 8
 238 125 241 152 247 184 c 16
 251 207 255 227 255 246 c 0xf0
 255 268 249 288 233 307 c 8
 218 325 199 324 175 326 c 16
 174 326 173 326 172 326 c 0
 147 326 113 307 85 307 c 0
 51 307 43 342 43 353 c 0
 43 389 95 402 114 418 c 8
 149 449 170 466 197 504 c 24
 226 544 270 592 270 652 c 0
 270 666 265 675 258 688 c 8
 246 711 241 737 202 737 c 0
 178 737 159 722 132 710 c 8
 102 697 94 666 61 664 c 17
 59 664 l 2
 45 664 38 674 25 682 c 0
 17 687 0 692 0 697 c 0
 0 698 -1 698 -1 699 c 0
 -1 699 -1 700 0 700 c 0
 58 740 71 761 126 780 c 16
 165 794 196 809 231 809 c 0
 263 809 355 792 355 670 c 0xe8
 355 611 325 575 295 519 c 8
 269 471 221 436 221 418 c 0
 221 399 294 410 313 381 c 0
 339 344 347 309 347 271 c 0
 347 242 342 212 335 178 c 8
 329 148 315 135 295 111 c 24
 256 66 230 39 175 15 c 16
 151 5 131 0 114 0 c 0xf0
EndSplineSet
Validated: 1
EndChar

StartChar: four
Encoding: 52 52 11
Width: 544
Flags: HW
VStem: 250 99<414 553> 260 93<86 236>
LayerCount: 2
Fore
SplineSet
227 377 m 0
 250 377 251 384 251 412 c 0
 251 416 251 420 251 425 c 0
 251 448 250 475 250 506 c 0
 250 545 252 565 252 571 c 0
 252 575 251 578 250 578 c 0
 236 578 143 401 143 385 c 0
 143 378 152 376 163 376 c 0
 176 376 194 379 206 379 c 1
 206 379 216 377 227 377 c 0
419 -61 m 0
 419 -99 372 -109 347 -109 c 0
 320 -109 302 -95 273 -86 c 8
 241 -76 216 -78 194 -52 c 16
 187 -44 182 -35 182 -25 c 0
 182 11 235 18 249 46 c 16
 259 68 262 86 262 104 c 0
 262 120 260 139 260 159 c 2
 260 166 l 2
 260 184 261 201 261 214 c 0
 261 311 248 297 206 307 c 0
 191 310 177 312 165 312 c 0
 137 312 113 306 77 306 c 0
 51 306 11 311 11 331 c 0
 11 366 114 531 114 531 c 24
 167 622 186 684 261 759 c 16
 288 786 307 819 339 819 c 0
 356 819 382 810 382 771 c 0
 382 737 360 752 357 734 c 16
 350 690 348 584 348 497 c 0
 348 362 349 361 369 361 c 0
 386 361 413 373 436 373 c 2
 444 373 l 2
 457 373 470 376 482 376 c 0
 512 376 532 348 532 330 c 0
 532 305 518 302 495 295 c 16
 486 292 477 291 470 291 c 0
 454 291 438 296 420 296 c 0
 417 296 413 295 409 295 c 2
 403 295 l 2
 394 295 384 297 376 297 c 0
 354 297 352 295 352 127 c 0
 352 92 352 50 352 0 c 8
 352 -20 385 -11 398 -26 c 16
 408 -38 419 -48 419 -61 c 0
EndSplineSet
Validated: 1
EndChar

StartChar: five
Encoding: 53 53 12
Width: 514
Flags: HW
HStem: 11 78<167 267> 387 70<125 203> 688 86<210 386> 732 88<123 175>
VStem: 20 96<616 732> 28 89<462 719> 276 95<99 326>
LayerCount: 2
Fore
SplineSet
372 178 m 0xd6
 372 69 322 11 264 11 c 0
 264 11 171 21 132 37 c 24
 90 54 30 107 0 154 c 0
 -1 156 0 158 0 160 c 0
 0 171 22 177 34 187 c 0
 45 196 55 218 65 218 c 0
 67 218 69 217 71 215 c 0
 126 154 124 130 178 104 c 16
 195 96 212 89 227 89 c 0
 242 89 276 97 276 153 c 2
 276 187 l 1
 277 203 279 217 279 230 c 0
 279 258 274 282 261 313 c 0
 230 384 188 387 157 387 c 2
 139 387 l 2
 114 387 84 367 66 367 c 0
 43 367 40 399 28 614 c 16xd6
 26 655 20 688 20 721 c 0
 20 737 22 754 25 771 c 8
 28 790 51 788 68 796 c 16
 96 808 111 820 141 820 c 0
 142 820 143 820 144 820 c 8xda
 205 819 201 774 306 774 c 0
 392 774 470 807 498 817 c 0
 499 817 500 818 501 818 c 0
 504 818 505 816 505 814 c 0
 505 805 490 782 482 771 c 8
 458 740 435 731 399 716 c 16
 351 696 314 688 283 688 c 0xea
 239 688 207 702 175 710 c 0
 160 714 139 732 129 732 c 0
 126 732 123 730 123 725 c 0
 120 688 117 640 117 592 c 0
 117 458 131 457 146 457 c 0
 161 457 185 466 204 466 c 0
 209 466 214 465 218 464 c 8
 265 451 301 448 332 409 c 24
 376 353 370 301 371 230 c 16
 371 212 372 194 372 178 c 0xd6
EndSplineSet
Validated: 1
EndChar

StartChar: six
Encoding: 54 54 13
Width: 397
Flags: HW
LayerCount: 2
Fore
SplineSet
196 394 m 0
 179 394 165 383 147 375 c 8
 132 369 97 365 97 317 c 0
 97 236 118 204 126 190 c 24
 145 157 161 135 197 123 c 16
 209 119 222 115 234 115 c 0
 245 115 255 118 258 129 c 0
 266 157 271 197 271 236 c 0
 271 326 242 394 196 394 c 0
387 728 m 0
 387 714 382 700 372 691 c 8
 364 684 355 689 344 688 c 24
 336 688 330 684 323 688 c 24
 307 696 319 723 283 723 c 0
 242 723 198 674 194 671 c 8
 149 633 136 596 117 541 c 24
 104 502 110 470 101 436 c 0
 101 434 100 433 100 432 c 0
 100 429 102 428 104 428 c 0
 114 428 143 449 160 455 c 0
 185 463 198 480 222 480 c 0
 254 480 266 459 289 436 c 24
 316 409 340 396 347 359 c 16
 353 324 359 298 359 267 c 0
 359 255 358 241 356 227 c 8
 344 139 341 77 280 12 c 16
 271 3 262 0 254 0 c 0
 234 0 217 23 206 29 c 8
 186 39 169 36 151 49 c 24
 82 97 23 131 12 215 c 16
 6 264 0 312 0 362 c 0
 0 405 4 449 18 498 c 8
 44 582 73 629 138 688 c 16
 196 741 242 792 314 792 c 0
 380 792 387 747 387 728 c 0
EndSplineSet
Validated: 1
EndChar

StartChar: seven
Encoding: 55 55 14
Width: 563
Flags: HW
LayerCount: 2
Fore
SplineSet
360 700 m 0
 348 700 295 695 246 695 c 0
 191 695 127 700 77 725 c 8
 52 737 28 741 22 768 c 24
 20 778 27 785 34 793 c 16
 47 808 62 813 77 813 c 0
 104 813 132 797 160 793 c 0
 190 788 249 776 317 776 c 0
 420 776 441 799 482 811 c 16
 496 815 507 825 519 825 c 0
 537 825 538 811 544 802 c 16
 547 797 553 796 553 790 c 0
 553 733 496 721 464 673 c 24
 376 540 250 285 175 157 c 0
 169 147 168 139 168 130 c 0
 168 123 169 113 169 101 c 8
 170 82 203 90 203 66 c 0
 203 54 192 45 184 34 c 8
 172 17 167 0 142 0 c 0
 117 0 106 22 80 33 c 8
 60 41 -4 61 -4 70 c 0
 -4 77 9 87 15 95 c 8
 28 111 56 118 86 157 c 24
 156 247 178 310 233 409 c 24
 280 494 302 545 350 630 c 24
 361 650 375 649 375 673 c 0
 375 685 371 700 360 700 c 0
EndSplineSet
Validated: 1
EndChar

StartChar: eight
Encoding: 56 56 15
Width: 354
Flags: HW
LayerCount: 2
Fore
SplineSet
184 436 m 0
 186 430 188 427 191 427 c 0
 203 427 226 485 237 513 c 0
 247 538 252 554 252 580 c 0
 252 645 239 666 224 688 c 16
 201 719 183 729 167 729 c 0
 137 729 119 695 114 688 c 0
 100 669 89 655 89 631 c 0
 89 595 111 582 126 550 c 24
 140 520 148 503 163 473 c 24
 171 459 178 458 184 436 c 0
165 108 m 0
 200 108 210 146 218 169 c 16
 223 184 226 198 226 211 c 0
 226 225 223 239 219 255 c 8
 212 284 210 329 174 329 c 0
 154 329 147 304 135 286 c 0
 119 260 104 234 104 204 c 0
 104 185 111 164 126 141 c 0
 137 125 147 108 165 108 c 0
223 46 m 0
 223 22 182 15 169 15 c 0
 127 15 102 51 77 74 c 0
 54 96 19 115 19 168 c 0
 19 224 47 249 65 280 c 24
 87 316 123 325 123 369 c 0
 123 427 72 448 43 501 c 0
 43 501 6 556 6 611 c 0
 6 676 53 694 86 725 c 24
 161 794 186 805 201 805 c 0
 247 805 275 763 286 750 c 24
 315 716 345 692 345 634 c 0
 345 573 307 528 287 477 c 8
 273 441 232 428 232 394 c 0
 232 370 257 358 267 332 c 0
 281 297 301 279 301 241 c 0
 301 187 276 160 252 114 c 8
 243 97 220 94 220 72 c 0
 220 64 223 54 223 46 c 0
EndSplineSet
Validated: 1
EndChar

StartChar: nine
Encoding: 57 57 16
Width: 424
Flags: HW
LayerCount: 2
Fore
SplineSet
261 373 m 0
 293 441 314 535 314 591 c 0
 314 632 301 659 288 682 c 24
 277 700 275 715 256 715 c 0
 220 715 207 679 187 648 c 8
 155 599 147 571 147 520 c 0
 147 479 153 449 181 415 c 0
 198 395 228 362 247 362 c 0
 253 362 258 366 261 373 c 0
84 -80 m 0
 62 -80 48 -68 48 -60 c 0
 48 -42 106 21 123 52 c 24
 162 119 190 155 209 230 c 16
 212 243 217 254 217 265 c 0
 217 271 215 277 212 283 c 8
 192 320 147 304 118 335 c 24
 81 374 57 412 57 485 c 0
 57 534 72 571 96 621 c 8
 121 674 146 698 187 740 c 24
 211 764 226 776 255 793 c 16
 266 800 273 808 285 808 c 0
 324 808 349 777 367 757 c 16
 408 713 421 665 421 618 c 0
 421 498 295 246 273 203 c 24
 224 103 203 34 135 -49 c 0
 121 -67 106 -80 84 -80 c 0
EndSplineSet
Validated: 1
EndChar

StartChar: L
Encoding: 76 76 17
Width: 563
Flags: HW
HStem: 22 65<385 468> 98 67<233 297>
VStem: 151 92<191 458> 154 79<165 438> 185 75<517 727> 312 38<294 767>
LayerCount: 2
Fore
SplineSet
11 11 m 1xcc
 11 17 56 52 74 68 c 8
 98 88 121 92 135 120 c 16
 149 148 154 172 154 198 c 0xd4
 154 222 151 244 151 272 c 0xe4
 151 295 153 317 153 385 c 0
 153 415 151 458 148 458 c 0
 144 458 134 440 126 436 c 0
 111 428 94 412 82 412 c 0
 73 412 67 422 67 429 c 0
 67 447 103 460 120 479 c 8
 136 497 160 498 166 522 c 24
 186 597 172 533 185 719 c 0
 185 720 185 721 185 721 c 0
 185 725 183 727 181 727 c 0
 171 727 145 699 128 691 c 0
 103 680 80 646 62 646 c 0
 52 646 44 659 44 667 c 0
 44 686 82 701 104 718 c 0
 146 752 174 758 217 786 c 16
 228 793 245 813 252 813 c 0
 258 813 260 755 260 755 c 0xcc
 260 727 253 710 245 464 c 8
 243 392 244 351 243 280 c 0xe4
 243 245 232 217 232 189 c 0xd4
 232 170 234 165 242 165 c 0
 249 165 260 170 269 170 c 0
 276 170 283 166 288 166 c 0
 298 166 312 226 312 500 c 0
 312 520 312 541 312 561 c 0
 312 792 319 805 338 805 c 0
 352 805 356 793 356 782 c 0
 356 758 352 776 352 706 c 0
 352 662 353 621 353 578 c 0
 353 520 350 469 350 397 c 0
 350 349 351 320 351 301 c 0
 351 275 350 252 350 229 c 0
 350 203 352 180 359 154 c 8
 364 137 387 147 402 138 c 24
 429 121 434 86 465 86 c 0
 499 86 516 150 539 150 c 0
 547 150 557 139 557 129 c 0
 557 109 524 87 504 68 c 0
 480 44 420 22 398 22 c 0
 370 22 355 36 329 49 c 16
 300 64 292 98 260 98 c 0
 233 98 231 71 209 58 c 16
 209 58 170 28 146 28 c 0
 139 28 131 31 131 42 c 0
 131 50 135 61 135 67 c 0
 135 70 133 71 131 71 c 0
 130 71 130 71 129 71 c 0
 77 56 79 30 18 12 c 0
 15 11 12 11 11 11 c 1xcc
EndSplineSet
Validated: 1
EndChar

StartChar: M
Encoding: 77 77 18
Width: 852
Flags: HW
VStem: 461 78<122 226 286 291> 613 29<14 154 154 163 163 237>
LayerCount: 2
Fore
SplineSet
655 413 m 0
 655 370 656 358 685 358 c 0
 704 358 716 367 724 367 c 0
 736 367 750 359 760 359 c 0
 769 359 770 366 770 374 c 0
 770 442 726 527 725 530 c 8
 710 566 710 594 683 621 c 24
 677 628 664 640 663 631 c 16
 661 607 655 480 655 413 c 0
575 291 m 0
 566 291 554 294 546 294 c 0
 541 294 536 293 536 287 c 0
 536 274 539 233 539 152 c 0
 539 134 539 117 539 103 c 0
 539 62 540 58 540 53 c 0
 540 37 521 33 506 25 c 0
 493 18 475 4 464 4 c 0
 453 4 451 24 451 41 c 0
 451 74 462 79 462 155 c 0
 462 187 460 206 460 244 c 0
 460 275 461 292 461 304 c 0
 461 316 443 313 431 316 c 0
 428 317 426 318 423 318 c 0
 416 318 408 316 402 316 c 0
 390 316 387 327 387 331 c 0
 387 341 397 349 403 359 c 8
 416 382 440 380 455 402 c 16
 466 417 469 432 469 447 c 0
 469 462 467 480 467 497 c 0
 467 508 469 525 469 554 c 0
 469 598 464 613 464 627 c 0
 464 634 464 641 464 647 c 0
 464 660 459 669 443 669 c 0
 405 669 405 608 382 570 c 8
 327 477 312 415 257 321 c 24
 216 251 138 164 138 152 c 0
 138 149 141 147 147 147 c 0
 155 147 167 148 177 148 c 0
 217 148 272 73 321 73 c 0
 339 73 368 89 375 89 c 0
 376 89 377 89 377 88 c 0
 377 87 376 86 374 84 c 0
 346 50 326 21 281 12 c 16
 267 9 256 7 247 7 c 0
 208 7 206 33 173 48 c 0
 144 61 123 67 109 67 c 0
 68 67 81 41 61 29 c 24
 53 24 47 26 38 25 c 16
 30 24 15 17 9 17 c 0
 8 17 6 18 6 19 c 0
 6 25 114 179 176 284 c 24
 253 414 286 493 365 622 c 24
 399 677 407 725 464 754 c 16
 468 756 472 757 476 757 c 0
 483 757 492 754 501 754 c 0
 509 754 518 759 525 759 c 0
 529 759 533 757 534 753 c 0
 545 701 547 632 547 566 c 0
 547 516 546 467 546 430 c 0
 546 422 545 416 545 411 c 0
 545 389 547 385 562 385 c 0
 569 385 578 386 585 386 c 0
 600 386 613 378 624 378 c 0
 632 378 633 382 633 417 c 0
 633 425 633 433 633 444 c 0
 633 477 633 513 633 549 c 0
 633 601 633 653 638 696 c 0
 639 702 644 705 650 705 c 0
 655 705 661 703 666 703 c 0
 679 703 699 713 713 713 c 0
 751 713 761 686 776 656 c 24
 808 594 818 554 829 484 c 16
 836 439 840 406 840 370 c 0
 840 343 839 315 837 281 c 8
 829 141 788 65 746 -70 c 24
 737 -99 725 -110 708 -135 c 16
 689 -163 677 -215 653 -215 c 0
 643 -215 631 -206 631 -195 c 0
 631 -173 671 -144 683 -113 c 8
 730 6 772 91 772 203 c 0
 772 219 770 235 770 243 c 0
 770 252 773 261 773 268 c 0
 773 283 759 291 748 291 c 0
 738 291 725 288 713 288 c 0
 701 288 686 291 675 291 c 0
 664 291 654 287 650 275 c 0
 642 249 641 230 641 206 c 0
 641 196 641 186 641 175 c 0
 641 150 640 142 640 93 c 0
 640 31 642 22 642 14 c 0
 642 9 635 7 628 7 c 0
 621 7 613 9 613 15 c 0
 613 206 617 234 617 288 c 0
 617 294 613 296 608 296 c 0
 599 296 585 291 575 291 c 0
EndSplineSet
Validated: 1
EndChar

StartChar: N
Encoding: 78 78 19
Width: 514
Flags: HW
VStem: 359 80<351 399 353 489>
LayerCount: 2
Fore
SplineSet
173 399 m 0
 180 399 258 427 319 456 c 24
 337 464 358 461 358 485 c 0
 358 496 354 513 350 515 c 0
 346 517 341 518 337 518 c 0
 323 518 311 507 295 501 c 8
 276 494 283 485 249 475 c 8
 222 467 212 452 181 449 c 8
 173 448 176 437 175 429 c 16
 174 422 170 409 170 403 c 0
 170 400 171 399 173 399 c 0
199 652 m 0
 199 622 180 525 180 479 c 0
 180 471 182 468 187 468 c 0
 201 468 235 499 258 507 c 8
 280 515 291 519 313 528 c 24
 332 536 358 530 358 562 c 0
 358 584 338 599 323 621 c 8
 308 644 295 654 273 670 c 24
 256 684 247 696 224 700 c 24
 217 701 209 704 206 697 c 16
 200 682 199 673 199 663 c 0
 199 660 199 656 199 652 c 0
125 289 m 0
 139 289 164 518 164 523 c 0
 164 538 162 541 162 553 c 0
 162 584 172 605 175 639 c 0
 176 650 182 660 182 669 c 0
 182 677 176 683 169 683 c 0
 162 683 154 677 147 672 c 8
 131 660 138 655 122 627 c 0
 99 588 88 522 88 461 c 0
 88 373 118 289 125 289 c 0
0 -242 m 1
 0 -231 117 -118 117 -28 c 0
 117 60 46 165 18 292 c 16
 12 321 8 377 8 429 c 0
 8 465 10 499 15 519 c 8
 39 613 78 670 160 722 c 16
 192 742 214 767 255 767 c 0
 275 767 355 743 396 697 c 24
 433 656 429 616 436 562 c 16
 439 539 441 506 441 467 c 0
 441 400 437 319 433 249 c 0
 432 227 420 190 420 155 c 0
 420 98 455 84 464 84 c 0
 474 84 486 89 494 89 c 0
 504 89 506 79 506 74 c 0
 506 60 471 22 433 22 c 0
 397 22 340 50 340 131 c 0
 340 142 359 298 359 347 c 0
 359 352 359 352 359 354 c 0
 359 376 366 410 366 430 c 0
 366 441 364 449 358 449 c 0
 350 449 325 425 317 425 c 0
 315 425 317 429 314 429 c 0
 314 429 223 396 169 364 c 0
 162 360 160 352 160 344 c 0
 160 340 161 336 161 332 c 0
 161 315 151 285 151 255 c 0
 151 189 199 106 199 29 c 0
 199 -14 186 -62 147 -111 c 0
 111 -156 10 -242 0 -242 c 1
EndSplineSet
Validated: 1
EndChar

StartChar: O
Encoding: 79 79 20
Width: 525
Flags: W
HStem: 11 78<266 375.144> 53 57<133.006 239.68> 694 65<207.575 319.705>
VStem: 37 81<443.99 572.152> 120 13<116 220> 429 79<206.148 538.53>
LayerCount: 2
Fore
SplineSet
276 329 m 8x3c
 269 349 251 354 240 372 c 16
 230 389 211 404 211 420 c 0
 211 424 212 429 215 433 c 0
 233 464 238 465 258 479 c 16
 277 492 292 509 311 509 c 0
 345 509 349 475 359 455 c 24
 364 445 378 397 378 397 c 0
 378 378 348 367 329 353 c 0
 315 343 295 323 284 323 c 0
 281 323 277 325 276 329 c 8x3c
126 578 m 0
 120 563 118 549 118 536 c 0
 118 510 126 488 135 458 c 0
 153 398 210 369 210 296 c 0
 210 269 202 238 183 197 c 8
 149 127 133 129 133 116 c 0
 133 111 141 110 151 110 c 0x7c
 174 110 213 118 241 118 c 0
 256 118 299 113 319 108 c 16
 334 104 347 89 361 89 c 0xbc
 369 89 378 95 387 108 c 8
 404 133 405 151 412 181 c 16
 425 232 429 269 429 310 c 0
 429 340 427 372 424 412 c 8
 421 458 423 484 410 528 c 24
 395 579 387 615 347 651 c 16
 318 677 292 694 258 694 c 0
 250 694 241 693 233 691 c 8
 174 677 154 652 126 578 c 0
284 11 m 0xbc
 248 11 273 53 147 53 c 0x7c
 77 53 78 26 31 0 c 0
 30 -1 28 0 27 0 c 0
 20 0 10 8 10 16 c 0
 10 18 11 21 12 22 c 0
 84 117 120 154 120 220 c 0
 120 326 62 343 46 415 c 16
 41 440 37 454 37 471 c 0
 37 486 40 505 47 538 c 0
 71 638 187 732 221 743 c 0
 247 751 276 759 307 759 c 0
 424 759 460 676 470 657 c 24
 497 608 494 572 501 516 c 16
 505 481 508 434 508 387 c 0
 508 243 492 198 427 89 c 8
 423 82 428 75 424 68 c 24
 388 0 319 17 289 12 c 0
 287 12 286 11 284 11 c 0xbc
EndSplineSet
Validated: 1
EndChar

StartChar: P
Encoding: 80 80 21
Width: 692
Flags: HW
LayerCount: 2
Fore
SplineSet
370 470 m 0
 370 354 309 118 309 108 c 0
 309 86 338 82 371 82 c 0
 384 82 398 83 410 83 c 0
 435 83 448 80 473 80 c 0
 552 80 568 142 568 181 c 0
 568 207 560 229 557 260 c 0
 548 359 531 417 531 474 c 0
 531 513 539 553 563 605 c 0
 571 622 602 647 602 654 c 0
 602 655 602 656 599 656 c 0
 596 656 585 654 563 654 c 0
 470 654 482 695 434 695 c 0
 421 695 351 685 351 640 c 0
 351 626 359 612 360 595 c 0
 364 543 370 510 370 470 c 0
597 510 m 0
 597 405 629 326 629 246 c 0
 629 219 627 199 620 168 c 8
 612 130 611 103 584 75 c 24
 537 27 491 21 424 12 c 16
 418 11 411 11 406 11 c 0
 389 11 373 15 353 18 c 0
 334 21 321 44 305 44 c 0
 300 44 294 42 288 35 c 0
 263 9 265 -13 250 -44 c 24
 230 -85 225 -113 194 -147 c 16
 177 -166 134 -203 124 -203 c 0
 122 -203 121 -202 121 -200 c 0
 121 -182 168 -124 182 -95 c 24
 200 -56 234 -6 234 49 c 0
 234 72 204 72 180 76 c 0
 173 77 166 77 160 77 c 0
 141 77 124 72 102 65 c 0
 75 57 54 16 36 16 c 0
 26 16 17 31 17 39 c 0
 17 62 59 81 85 99 c 8
 131 132 181 134 181 134 c 0
 201 134 232 118 249 118 c 0
 257 118 262 121 263 131 c 0
 267 168 277 175 282 222 c 0
 284 245 300 338 300 439 c 0
 300 528 288 625 244 684 c 0
 236 695 222 719 194 719 c 0
 161 719 109 676 109 646 c 0
 109 611 144 622 144 545 c 0
 144 484 107 454 94 437 c 8
 82 422 78 396 45 396 c 0
 33 396 26 403 26 413 c 0
 26 427 50 435 56 452 c 0
 67 483 72 504 72 519 c 0
 72 568 32 548 32 600 c 0
 32 650 86 681 97 690 c 8
 133 720 153 737 194 759 c 16
 214 770 228 783 248 783 c 0
 284 783 295 752 314 728 c 24
 326 714 320 692 346 692 c 0
 369 692 380 717 404 728 c 0
 432 741 446 762 475 762 c 0
 512 762 519 729 552 718 c 16
 577 710 598 706 616 706 c 0
 666 706 712 736 724 736 c 0
 726 736 727 735 727 733 c 0
 727 723 693 687 678 670 c 8
 661 651 639 651 625 629 c 16
 605 598 597 555 597 510 c 0
EndSplineSet
Validated: 1
EndChar

StartChar: Q
Encoding: 81 81 22
Width: 1024
Flags: HW
LayerCount: 2
Fore
SplineSet
301 679 m 0
 301 687 299 690 295 690 c 0
 281 690 244 639 221 617 c 8
 193 590 177 576 160 541 c 16
 135 492 123 457 123 406 c 0
 123 332 138 281 181 221 c 16
 205 187 258 134 275 134 c 0
 279 134 282 136 282 141 c 8
 282 166 287 179 288 203 c 24
 291 250 288 250 294 439 c 26
 298 578 l 26
 299 618 301 627 301 679 c 0
420 169 m 0
 420 188 416 210 416 251 c 0
 416 295 422 350 422 350 c 0
 422 354 421 356 419 356 c 0
 410 356 384 327 369 316 c 8
 362 311 318 295 318 225 c 0
 318 208 322 191 324 169 c 8
 326 149 324 95 370 95 c 0
 404 95 420 137 420 169 c 0
348 345 m 0
 362 345 372 368 384 381 c 8
 415 413 425 405 425 498 c 0
 425 518 424 536 424 559 c 0
 424 612 431 684 431 752 c 0
 431 760 425 763 417 763 c 0
 407 763 393 759 384 756 c 0
 350 746 348 741 348 690 c 0
 348 686 348 681 348 676 c 0
 348 653 348 624 346 584 c 8
 343 528 335 495 335 439 c 16
 335 416 325 392 325 374 c 0
 325 351 342 345 348 345 c 0
468 612 m 0
 468 592 468 570 468 551 c 0
 468 470 463 460 463 450 c 0
 463 447 465 445 467 445 c 0
 474 445 491 455 501 458 c 0
 519 463 530 477 546 477 c 0
 571 477 581 449 590 436 c 16
 601 420 614 409 614 392 c 0
 614 357 578 341 562 332 c 16
 544 322 529 315 511 315 c 0
 474 315 472 343 460 343 c 0
 455 343 453 282 453 267 c 0
 453 238 455 209 455 195 c 0
 455 182 454 171 454 160 c 0
 454 154 456 103 475 103 c 0
 485 103 500 112 513 114 c 8
 533 117 548 115 565 126 c 24
 593 144 601 164 617 194 c 24
 645 244 657 276 667 332 c 16
 674 374 680 406 680 441 c 0
 680 466 677 491 670 522 c 8
 654 592 633 633 584 685 c 16
 557 714 512 768 489 768 c 0
 476 768 468 747 468 612 c 0
681 198 m 0
 681 170 761 182 799 160 c 8
 826 145 828 116 864 116 c 0
 892 116 907 138 937 147 c 8
 966 156 986 166 1012 166 c 0
 1018 166 1020 165 1020 162 c 0
 1020 151 983 122 965 108 c 8
 927 77 896 74 853 51 c 16
 819 34 805 4 768 4 c 0
 728 4 717 35 685 55 c 24
 663 68 645 95 615 95 c 0
 602 95 595 88 581 83 c 8
 542 70 520 62 482 46 c 16
 477 44 410 0 321 0 c 0
 274 0 220 11 166 49 c 8
 116 84 83 103 49 154 c 16
 19 200 8 299 8 360 c 0
 8 441 36 456 77 522 c 24
 112 578 125 617 172 664 c 24
 303 796 413 801 501 808 c 16
 517 809 531 810 544 810 c 0
 569 810 633 804 679 765 c 24
 717 733 730 705 750 660 c 24
 775 606 783 572 783 505 c 0
 783 320 681 223 681 198 c 0
EndSplineSet
Validated: 1
EndChar

StartChar: R
Encoding: 82 82 23
Width: 764
Flags: HW
VStem: 136 79<660 706> 280 37<136 220>
LayerCount: 2
Fore
SplineSet
317 139 m 0
 317 124 316 119 316 114 c 0
 316 86 358 87 387 80 c 0
 402 76 415 74 427 74 c 0
 438 74 450 76 464 79 c 8
 484 83 539 87 539 130 c 0
 539 141 518 195 501 230 c 24
 485 261 468 339 378 341 c 16
 372 341 364 341 357 341 c 0
 340 341 324 339 323 323 c 0
 318 253 316 213 316 186 c 0
 316 163 317 151 317 139 c 0
333 489 m 0
 333 471 330 449 330 431 c 0
 330 412 333 396 344 396 c 0
 347 396 349 397 353 399 c 0
 439 442 452 458 513 498 c 24
 532 511 572 514 572 567 c 0
 572 585 566 605 556 624 c 0
 540 656 543 707 525 707 c 0
 522 707 520 705 516 703 c 0
 467 672 470 689 433 655 c 0
 417 641 342 596 338 574 c 0
 334 549 331 539 331 524 c 0
 331 510 333 503 333 489 c 0
99 443 m 0
 92 443 19 400 13 400 c 0
 12 400 11 401 11 402 c 0
 11 403 11 405 12 406 c 0
 37 474 34 442 52 461 c 24
 85 496 129 488 129 574 c 0
 129 577 129 581 129 584 c 0
 129 631 136 630 136 701 c 0
 136 706 134 709 130 709 c 0
 121 709 104 697 92 695 c 0
 68 690 35 667 22 667 c 0
 18 667 15 669 15 674 c 1
 55 744 62 710 71 728 c 9
 166 777 l 18
 179 784 193 804 202 804 c 0
 209 804 219 786 219 758 c 0
 219 740 215 720 215 697 c 0
 214 566 186 454 186 269 c 0
 186 231 187 189 190 144 c 0
 190 137 196 135 203 135 c 0
 211 135 223 138 232 138 c 0
 244 138 259 132 269 132 c 0
 275 132 280 134 280 141 c 0
 280 355 289 434 289 546 c 0
 289 589 288 622 288 663 c 0
 288 681 288 701 289 725 c 0
 290 744 314 775 327 775 c 0
 339 775 342 740 342 707 c 0
 342 696 341 686 341 677 c 0
 341 660 342 648 348 648 c 0
 360 648 420 690 427 694 c 24
 466 719 482 743 525 759 c 16
 543 766 572 782 587 782 c 0
 594 782 598 779 599 771 c 0
 607 694 608 650 639 559 c 0
 640 555 641 550 641 546 c 0
 641 515 600 500 571 476 c 8
 526 439 504 446 439 406 c 0
 435 403 433 400 433 398 c 0
 433 385 496 378 516 356 c 8
 566 302 570 253 608 190 c 24
 633 149 632 111 673 86 c 16
 678 83 683 82 689 82 c 0
 707 82 729 92 743 92 c 0
 753 92 760 86 760 73 c 0
 760 44 711 41 679 31 c 0
 656 24 640 20 627 20 c 0
 572 20 588 76 544 76 c 0
 522 76 509 58 485 49 c 0
 468 43 423 15 364 15 c 0
 349 15 332 18 316 22 c 8
 284 30 229 82 181 83 c 16
 164 84 147 87 133 87 c 0
 120 87 107 84 98 72 c 0
 81 50 15 0 0 0 c 0
 -2 0 -3 2 -3 4 c 0
 -3 6 -2 8 0 12 c 0
 49 94 101 78 101 139 c 0
 101 154 97 169 97 188 c 0
 97 191 97 201 97 217 c 0
 97 233 97 247 97 266 c 1
 66 248 0 218 0 218 c 1
 0 267 20 261 40 283 c 24
 63 308 109 305 109 356 c 0
 109 366 106 378 106 390 c 0
 106 399 108 403 108 406 c 0
 108 443 103 443 99 443 c 0
EndSplineSet
Validated: 1
EndChar

StartChar: S
Encoding: 83 83 24
Width: 557
Flags: HW
LayerCount: 2
Fore
SplineSet
16 151 m 0
 16 160 40 210 67 210 c 0
 108 210 173 162 218 144 c 16
 231 139 312 97 362 97 c 0
 373 97 383 99 390 104 c 8
 436 137 429 185 442 240 c 24
 450 272 452 290 452 323 c 16
 452 338 456 352 456 364 c 0
 456 392 423 423 361 423 c 0
 337 423 314 420 288 420 c 0
 274 420 258 421 243 424 c 8
 195 434 162 431 120 458 c 24
 95 473 71 484 71 513 c 16
 71 538 68 560 68 582 c 0
 68 624 78 666 137 737 c 8
 180 789 219 810 239 810 c 0
 266 810 287 783 319 773 c 8
 367 758 392 735 442 735 c 18
 444 735 l 2
 504 735 550 769 560 769 c 0
 561 769 562 768 562 767 c 0
 562 757 479 659 394 659 c 0
 343 659 306 693 267 710 c 0
 241 721 229 743 204 743 c 0
 162 743 138 693 138 652 c 0
 138 613 157 571 203 541 c 8
 257 506 300 514 362 498 c 24
 411 486 447 497 488 467 c 16
 520 443 530 411 530 379 c 0
 530 334 511 290 506 267 c 8
 494 213 482 181 467 129 c 1
 468 129 470 128 471 128 c 0
 483 128 499 143 507 143 c 0
 510 143 512 142 513 138 c 1
 498 101 478 84 445 61 c 16
 395 26 347 17 309 17 c 0
 280 17 167 36 98 83 c 16
 67 105 16 123 16 151 c 0
EndSplineSet
Validated: 1
EndChar

StartChar: T
Encoding: 84 84 25
Width: 572
Flags: HW
VStem: 258 26<158 307> 258 29<307 474>
LayerCount: 2
Fore
SplineSet
252 92 m 0x80
 257 149 258 204 258 265 c 0
 258 307 258 352 258 402 c 0
 258 528 262 601 262 617 c 0
 262 627 259 632 255 632 c 0
 235 632 177 546 151 504 c 8
 112 441 103 359 103 313 c 0
 103 224 140 174 160 151 c 0
 182 126 223 79 242 79 c 0
 247 79 251 83 252 92 c 0x80
177 749 m 0
 146 749 127 733 98 721 c 0
 72 710 21 683 10 683 c 0
 9 683 8 683 8 684 c 0
 8 685 9 688 12 691 c 0
 52 734 56 732 89 752 c 16
 128 776 187 810 256 810 c 0
 266 810 276 809 286 808 c 8
 323 803 351 801 375 771 c 16
 381 764 406 726 460 726 c 0
 493 726 518 750 561 750 c 0
 565 750 566 749 566 748 c 0
 566 741 521 718 501 707 c 0
 422 663 379 656 342 656 c 0
 328 656 315 657 301 657 c 0
 298 657 295 657 292 657 c 1
 289 634 289 615 289 599 c 0
 289 574 290 555 290 532 c 0
 290 515 289 496 286 473 c 1
 286 398 287 343 287 302 c 0
 287 143 284 185 284 74 c 0x80
 284 60 292 55 305 55 c 0
 324 55 353 66 375 68 c 8
 410 72 523 118 535 118 c 0
 537 118 539 118 539 116 c 0
 539 114 538 112 535 108 c 8
 495 57 449 48 387 34 c 16
 331 22 284 8 237 8 c 0
 199 8 162 16 123 40 c 8
 50 83 30 144 15 227 c 16
 12 244 10 261 10 276 c 0
 10 324 26 365 46 418 c 8
 76 495 108 533 160 596 c 24
 195 638 281 687 281 720 c 0
 281 748 197 749 177 749 c 0
EndSplineSet
Validated: 1
EndChar

StartChar: U
Encoding: 85 85 26
Width: 599
Flags: HW
VStem: 470 89<608 792>
LayerCount: 2
Fore
SplineSet
201 142 m 0
 209 142 209 154 209 190 c 0
 209 196 l 0
 209 250 205 308 204 378 c 8
 201 585 204 585 197 585 c 0
 189 585 169 557 158 544 c 8
 139 520 123 506 121 475 c 16
 118 420 115 409 115 366 c 16
 115 342 113 321 113 299 c 0
 113 267 117 237 136 205 c 0
 149 182 186 142 201 142 c 0
566 96 m 0
 575 96 583 94 583 84 c 0
 583 68 557 62 542 49 c 8
 542 49 483 0 466 0 c 0
 455 0 453 34 453 58 c 0
 453 67 458 81 458 87 c 0
 458 89 457 90 456 90 c 0
 454 90 412 64 334 41 c 16
 302 32 280 20 251 20 c 0
 244 20 237 22 229 23 c 8
 163 35 141 50 82 111 c 0
 46 149 16 220 16 300 c 0
 16 404 61 467 99 525 c 24
 129 572 153 593 191 634 c 24
 215 660 249 660 249 695 c 0
 249 721 223 738 201 738 c 0
 185 738 170 730 152 725 c 0
 132 720 94 693 86 693 c 0
 85 693 85 694 85 695 c 0
 85 696 85 697 87 700 c 0
 105 731 117 737 142 753 c 24
 221 807 285 809 285 809 c 0
 336 809 325 765 355 765 c 0
 372 765 399 787 406 787 c 0
 407 787 408 787 408 785 c 0
 408 754 351 704 345 697 c 24
 313 661 263 659 256 612 c 16
 251 578 250 552 250 524 c 0
 250 511 250 497 250 483 c 0
 250 404 243 361 243 310 c 0
 243 291 244 270 247 246 c 8
 253 193 241 151 279 113 c 16
 292 100 308 96 324 96 c 0
 331 96 338 96 346 97 c 8
 396 102 460 102 464 152 c 16
 469 215 471 371 471 503 c 0
 471 717 468 717 461 717 c 0
 447 717 413 685 406 685 c 0
 405 685 404 686 404 687 c 0
 404 688 405 688 406 690 c 0
 421 724 437 731 464 749 c 16
 490 766 532 805 550 805 c 0
 556 805 559 802 559 792 c 0
 559 613 548 536 548 424 c 0
 548 379 550 341 550 302 c 0
 550 264 549 225 543 181 c 8
 539 150 544 132 532 101 c 0
 532 100 531 99 531 98 c 0
 531 95 535 94 539 94 c 0
 546 94 557 96 566 96 c 0
EndSplineSet
Validated: 1
EndChar

StartChar: V
Encoding: 86 86 27
Width: 587
Flags: HW
LayerCount: 2
Fore
SplineSet
163 0 m 0
 157 0 149 0 142 0 c 0
 136 0 128 0 122 0 c 0
 113 0 104 3 104 12 c 0
 104 40 148 60 172 95 c 24
 192 125 201 143 218 175 c 16
 237 211 242 235 242 260 c 0
 242 273 241 287 241 303 c 0
 241 325 242 324 242 356 c 0
 242 441 224 479 182 556 c 8
 163 593 152 615 123 645 c 24
 86 683 14 708 14 727 c 0
 14 736 43 780 91 780 c 0
 163 780 210 740 246 700 c 24
 305 634 313 578 332 492 c 16
 338 465 340 437 340 409 c 0
 340 310 314 245 314 232 c 0
 314 229 315 228 317 228 c 0
 329 228 389 315 412 356 c 8
 443 411 446 450 461 510 c 16
 477 573 483 603 483 638 c 0
 483 728 464 728 464 756 c 0
 464 782 482 787 492 793 c 16
 506 801 518 814 532 814 c 0
 536 814 540 813 544 811 c 8
 578 794 582 767 582 675 c 0
 582 631 570 602 556 556 c 8
 504 385 410 261 325 160 c 24
 272 97 209 67 177 8 c 0
 174 2 169 0 163 0 c 0
EndSplineSet
Validated: 1
EndChar

StartChar: W
Encoding: 87 87 28
Width: 892
Flags: HW
VStem: 769 89<608 792>
LayerCount: 2
Fore
SplineSet
500 142 m 0
 508 142 508 154 508 190 c 0
 508 196 l 0
 508 250 504 308 503 378 c 8
 500 585 503 585 496 585 c 0
 488 585 468 557 457 544 c 8
 438 520 422 506 420 475 c 16
 417 420 414 409 414 366 c 16
 414 342 412 321 412 299 c 0
 412 267 416 237 435 205 c 0
 448 182 485 142 500 142 c 0
105 327 m 0
 105 246 152 131 163 131 c 0
 165 131 166 134 167 141 c 0
 195 591 l 0
 195 594 195 595 194 595 c 0
 187 595 159 537 147 510 c 8
 137 487 105 428 105 327 c 0
865 96 m 0
 874 96 882 94 882 84 c 0
 882 68 856 62 841 49 c 8
 841 49 782 0 765 0 c 0
 754 0 752 34 752 58 c 0
 752 67 757 81 757 87 c 0
 757 89 756 90 755 90 c 0
 754 90 753 90 752 89 c 0
 692 56 596 23 534 23 c 0
 485 23 459 51 384 51 c 0
 285 51 273 8 205 8 c 0
 114 8 73 54 61 68 c 24
 20 114 21 157 15 218 c 16
 14 230 13 245 13 258 c 0
 13 337 36 431 86 513 c 8
 140 602 214 648 214 671 c 0
 214 688 187 707 169 722 c 0
 146 741 128 753 98 753 c 0
 63 753 -5 703 -7 703 c 0
 -7 703 -5 706 0 710 c 0
 43 747 82 808 182 808 c 0
 215 808 236 803 264 786 c 24
 279 776 276 755 300 755 c 0
 322 755 352 776 362 776 c 0
 364 776 367 776 367 773 c 0
 367 749 333 724 326 716 c 24
 298 682 257 676 252 633 c 16
 243 562 243 511 237 433 c 26
 221 240 l 26
 214 146 211 106 211 106 c 0
 211 76 282 73 292 73 c 0
 308 73 321 78 338 84 c 0
 354 90 382 92 382 105 c 0
 382 125 314 181 314 296 c 0
 314 406 364 472 398 525 c 24
 428 572 452 593 490 634 c 24
 514 660 548 660 548 695 c 0
 548 721 522 738 500 738 c 0
 484 738 469 730 451 725 c 0
 431 720 393 693 385 693 c 0
 384 693 384 694 384 695 c 0
 384 696 384 697 386 700 c 0
 404 731 416 737 441 753 c 24
 520 807 584 809 584 809 c 0
 635 809 624 765 654 765 c 0
 671 765 698 787 705 787 c 0
 706 787 707 787 707 785 c 0
 707 754 650 704 644 697 c 24
 612 661 562 659 555 612 c 16
 550 578 549 552 549 524 c 0
 549 511 549 497 549 483 c 0
 549 404 542 361 542 310 c 0
 542 291 543 270 546 246 c 8
 552 193 540 151 578 113 c 16
 591 100 607 96 623 96 c 0
 630 96 637 96 645 97 c 8
 695 102 759 102 763 152 c 16
 768 215 770 371 770 503 c 0
 770 717 767 717 760 717 c 0
 746 717 712 685 705 685 c 0
 704 685 703 686 703 687 c 0
 703 688 704 688 705 690 c 0
 720 724 736 731 763 749 c 16
 789 766 831 805 849 805 c 0
 855 805 858 802 858 792 c 0
 858 613 847 536 847 424 c 0
 847 379 849 341 849 302 c 0
 849 264 848 225 842 181 c 8
 838 150 843 132 831 101 c 0
 831 100 830 99 830 98 c 0
 830 95 834 94 838 94 c 0
 845 94 856 96 865 96 c 0
EndSplineSet
Validated: 1
EndChar

StartChar: X
Encoding: 88 88 29
Width: 559
Flags: HW
LayerCount: 2
Fore
SplineSet
499 398 m 0
 510 398 541 333 541 263 c 0
 541 175 501 89 464 28 c 0
 453 10 435 0 416 0 c 0
 376 0 325 34 298 71 c 8
 252 134 258 184 218 255 c 0
 214 262 209 265 205 265 c 0
 180 265 154 168 154 112 c 0
 154 101 155 100 155 83 c 0
 155 65 153 49 153 33 c 0
 153 -38 189 -102 242 -102 c 0
 278 -102 328 -82 344 -82 c 0
 347 -82 349 -84 349 -86 c 0
 349 -88 348 -91 344 -95 c 0
 307 -141 310 -131 283 -147 c 16
 251 -165 228 -191 197 -191 c 0
 173 -191 67 -159 67 6 c 0
 67 114 94 178 117 258 c 16
 132 310 183 391 183 494 c 0
 183 518 180 542 174 568 c 8
 156 641 120 661 77 673 c 16
 72 674 66 675 60 675 c 0
 43 675 21 671 10 671 c 0
 5 671 0 672 0 674 c 0
 0 675 44 719 71 737 c 16
 90 751 101 768 124 768 c 0
 166 768 184 736 215 707 c 16
 243 681 244 621 272 621 c 0
 315 621 409 749 463 749 c 0
 478 749 493 737 535 728 c 0
 541 727 544 725 544 723 c 0
 544 713 469 697 443 673 c 0
 394 627 392 623 358 580 c 8
 319 531 280 504 280 439 c 8
 280 354 283 304 313 224 c 16
 329 181 364 54 426 54 c 0
 468 54 473 109 473 210 c 0
 473 233 466 247 455 267 c 0
 443 289 401 297 401 313 c 0
 401 319 417 345 464 375 c 16
 476 382 489 398 499 398 c 0
EndSplineSet
Validated: 1
EndChar

StartChar: Y
Encoding: 89 89 30
Width: 483
Flags: HW
LayerCount: 2
Fore
SplineSet
455 129 m 1
 455 128 451 125 445 120 c 0
 377 62 396 74 359 55 c 16
 318 33 294 15 249 15 c 0
 209 15 185 21 160 49 c 24
 132 80 127 84 127 150 c 0
 127 237 187 293 203 326 c 0
 214 348 232 362 232 381 c 0
 232 401 219 402 216 444 c 0
 213 493 196 556 184 602 c 8
 172 647 160 678 120 703 c 16
 115 706 107 708 100 708 c 0
 62 708 8 678 -3 678 c 0
 -4 678 -6 679 -6 680 c 0
 -6 680 31 724 61 743 c 24
 88 760 102 774 136 774 c 0
 176 774 204 764 233 734 c 8
 269 697 264 658 275 608 c 24
 285 561 275 531 289 485 c 16
 294 469 294 440 305 440 c 0
 306 440 308 441 310 442 c 0
 353 467 366 482 393 516 c 24
 435 570 483 597 483 666 c 0
 483 719 433 753 402 753 c 0
 383 753 368 742 359 742 c 0
 351 742 349 753 349 757 c 0
 349 773 379 779 396 790 c 0
 401 793 427 817 460 817 c 0
 505 817 551 764 551 705 c 0
 551 634 493 569 482 553 c 8
 449 505 421 485 378 445 c 24
 330 401 288 390 249 338 c 24
 220 299 210 291 210 221 c 0
 210 144 254 77 313 77 c 0
 361 77 447 129 455 129 c 1
EndSplineSet
Validated: 1
EndChar

StartChar: Z
Encoding: 90 90 31
Width: 611
Flags: HW
LayerCount: 2
Fore
SplineSet
435 57 m 0
 459 57 488 65 494 65 c 0
 496 65 497 63 497 62 c 0
 497 52 434 -6 364 -6 c 0
 296 -6 245 46 198 46 c 0
 162 46 139 30 100 25 c 0
 67 21 9 0 -17 0 c 0
 -25 0 -30 2 -30 7 c 0
 -30 19 15 71 80 172 c 16
 142 270 154 267 238 396 c 0
 239 397 239 398 239 399 c 0
 239 407 160 404 160 414 c 0
 160 427 210 462 246 462 c 0
 256 462 267 460 276 460 c 0
 287 460 299 463 307 473 c 0
 319 488 442 664 442 680 c 0
 442 689 432 692 416 692 c 0
 391 692 353 685 321 685 c 0
 310 685 300 686 291 688 c 8
 224 704 177 706 125 746 c 0
 122 748 121 752 121 755 c 0
 121 764 156 807 172 807 c 0
 175 807 177 806 180 805 c 0
 296 750 326 740 419 740 c 0
 485 740 495 742 512 746 c 16
 539 752 584 790 595 790 c 0
 596 790 597 789 597 787 c 0
 597 786 596 783 595 780 c 0
 567 722 549 710 516 667 c 24
 488 630 470 611 441 574 c 24
 411 535 408 519 368 473 c 0
 365 469 362 466 362 464 c 0
 362 457 376 456 394 456 c 0
 402 456 412 456 422 456 c 0
 440 456 460 455 472 450 c 0
 484 445 508 440 508 432 c 0
 508 431 508 430 506 428 c 0
 478 400 476 411 454 406 c 16
 442 403 431 402 421 402 c 0
 407 402 394 403 379 403 c 0
 363 403 359 402 351 402 c 0
 343 402 335 403 328 403 c 0
 319 403 310 401 304 392 c 0
 270 340 231 299 187 237 c 24
 172 215 86 106 86 72 c 0
 86 64 92 60 102 60 c 0
 135 60 209 92 259 92 c 0
 299 92 340 70 383 65 c 16
 408 62 418 57 435 57 c 0
EndSplineSet
Validated: 1
EndChar

StartChar: bracketleft
Encoding: 91 91 32
Width: 259
Flags: HW
VStem: 47 61<143 637>
LayerCount: 2
Fore
SplineSet
233 764 m 0
 233 758 223 748 220 740 c 8
 214 726 214 700 185 700 c 0
 180 700 175 701 169 701 c 0
 162 701 161 700 155 700 c 0
 145 700 132 702 123 702 c 0
 115 702 109 699 109 691 c 0
 109 681 110 650 110 588 c 0
 110 526 109 471 109 393 c 0
 109 324 108 267 108 212 c 0
 108 199 108 187 108 177 c 0
 108 123 109 118 126 118 c 0
 137 118 153 121 165 121 c 0
 170 121 170 121 174 121 c 0
 186 121 200 126 210 126 c 0
 223 126 228 117 228 110 c 0
 228 101 221 91 217 80 c 8
 212 66 211 33 173 33 c 0
 162 33 148 36 134 36 c 0
 117 36 98 31 83 31 c 0
 48 31 46 50 46 160 c 0
 46 171 46 185 46 199 c 0
 46 266 47 336 47 401 c 0
 47 453 46 499 46 542 c 0
 46 611 48 675 55 757 c 0
 56 772 67 775 81 775 c 0
 96 775 117 771 134 771 c 0
 145 771 167 774 190 774 c 0
 215 774 233 770 233 764 c 0
EndSplineSet
Validated: 1
EndChar

StartChar: c
Encoding: 99 99 35
Width: 306
Flags: W
HStem: 364 82<124.5 200>
VStem: 18 83<135.76 349.023>
LayerCount: 2
Fore
SplineSet
249 137 m 5
 249 136 248 132 247 129 c 4
 225 80 202 79 173 46 c 21
 144 10 136 22 105 0 c 13
 83 12 70 18 50 32 c 28
 34 43 14 49 14 68 c 20
 14 136 18 141 18 188 c 20
 18 195 18 202 18 208 c 4
 18 230 18 249 18 267 c 4
 18 280 18 292 19 303 c 4
 24 353 57 358 90 385 c 20
 102 395 154 446 197 446 c 4
 203 446 210 445 216 442 c 12
 233 434 239 422 253 410 c 30
 293 375 l 6
 296 372 298 369 298 366 c 4
 298 355 281 342 271 332 c 4
 254 316 238 310 225 310 c 4
 201 310 186 328 179 332 c 12
 162 342 188 337 136 362 c 4
 134 363 133 364 132 364 c 4
 117 364 114 321 108 295 c 4
 105 282 101 247 101 211 c 4
 101 181 104 151 109 135 c 12
 114 118 131 115 145 104 c 28
 152 99 156 92 164 92 c 20
 165 92 165 92 166 92 c 4
 195 92 241 137 249 137 c 5
EndSplineSet
Validated: 1
EndChar

StartChar: d
Encoding: 100 100 36
Width: 438
Flags: HW
LayerCount: 2
Fore
SplineSet
245 85 m 2
 245 85 245 85 259 85 c 0
 276 85 289 89 298 98 c 0
 305 105 310 112 313 120 c 128
 316 128 319 136 320 142 c 128
 321 148 322 158 322 170 c 128
 322 182 322 191 323 197 c 0
 325 215 326 231 326 246 c 0
 326 265 324 291 321 326 c 0
 320 332 319 337 316 342 c 128
 313 347 310 350 308 352 c 128
 306 354 302 358 295 363 c 128
 288 368 284 371 283 372 c 0
 265 384 252 390 244 390 c 0
 230 390 217 382 204 366 c 1
 190 346 183 321 183 290 c 0
 183 287 184 280 184 272 c 128
 184 264 184 258 184 254 c 0
 184 242 184 233 183 227 c 0
 181 200 180 176 180 155 c 0
 180 134 181 118 182 108 c 0
 183 104 184 101 186 98 c 128
 188 95 191 92 194 90 c 128
 197 88 201 88 206 87 c 128
 211 86 215 86 218 86 c 128
 221 86 226 85 232 85 c 128
 242 85 241 85 245 85 c 2
213 0 m 1
 206 0 l 1
 175 0 l 2
 163 0 153 -1 144 0 c 128
 135 1 127 4 118 7 c 128
 109 10 102 14 97 20 c 128
 92 26 88 34 87 43 c 0
 84 60 83 88 83 127 c 0
 83 154 84 189 85 232 c 128
 86 275 87 299 87 304 c 0
 87 315 89 324 94 330 c 128
 99 336 106 344 117 352 c 128
 128 360 137 369 145 378 c 0
 148 383 150 385 150 386 c 0
 150 388 147 389 141 389 c 2
 129 389 l 1
 125 389 l 1
 122 390 119 390 114 390 c 0
 111 390 105 389 98 388 c 128
 91 387 85 387 81 387 c 2
 76 387 l 1
 71 388 63 388 52 389 c 128
 41 390 31 390 24 391 c 128
 17 392 8 393 0 394 c 128
 -8 395 -14 396 -18 398 c 128
 -22 400 -25 401 -25 404 c 0
 -25 406 -24 408 -23 409 c 0
 -6 427 12 443 31 456 c 128
 50 469 62 478 67 482 c 0
 73 487 77 493 79 500 c 128
 81 507 85 512 92 518 c 128
 99 524 112 530 131 535 c 0
 132 535 132 536 133 536 c 128
 134 536 134 536 135 536 c 0
 140 536 142 531 142 520 c 0
 142 517 142 511 141 503 c 128
 140 495 140 489 140 485 c 0
 140 472 144 465 153 464 c 0
 185 462 204 461 209 461 c 0
 213 461 218 461 224 462 c 128
 230 463 236 463 244 463 c 0
 290 463 329 464 362 466 c 1
 365 466 l 2
 374 466 383 462 390 456 c 128
 397 450 401 442 402 433 c 0
 410 387 414 346 414 310 c 0
 414 287 412 255 409 215 c 0
 408 207 408 196 407 180 c 128
 406 164 405 152 404 144 c 128
 403 136 402 128 398 116 c 128
 394 104 388 93 381 83 c 0
 376 76 372 71 367 66 c 128
 362 61 357 56 350 52 c 128
 343 48 338 45 334 43 c 128
 330 41 322 38 312 34 c 128
 302 30 296 27 292 25 c 0
 289 24 282 21 273 16 c 128
 264 11 258 8 254 7 c 128
 250 6 244 2 237 0 c 128
 230 -2 222 0 215 0 c 2
 213 0 l 1
EndSplineSet
Validated: 1
EndChar

StartChar: e
Encoding: 101 101 37
Width: 314
Flags: W
HStem: 414 56<101.025 177.5>
VStem: 15 86<197.006 396.093> 218 74<293.5 379>
LayerCount: 2
Fore
SplineSet
114 199 m 0
 142 218 155 223 175 246 c 16
 195 268 218 279 218 308 c 0
 218 334 201 337 181 356 c 0
 161 375 123 414 108 414 c 0
 104 414 101 412 101 406 c 0
 101 402 103 391 103 367 c 0
 103 340 100 320 100 293 c 0
 100 284 100 274 101 264 c 0
 101 261 101 258 101 255 c 0
 101 243 100 228 100 217 c 0
 100 205 103 197 108 197 c 0
 110 197 112 197 114 199 c 0
221 261 m 8
 186 217 157 197 126 154 c 0
 124 151 123 147 123 144 c 0
 123 133 137 123 144 111 c 8
 150 101 156 95 163 86 c 17
 190 86 203 99 221 101 c 1
 241 113 281 150 289 150 c 0
 290 150 291 148 291 147 c 0
 291 146 290 144 289 141 c 0
 255 70 256 90 227 65 c 24
 189 32 166 18 117 0 c 0
 113 -1 109 0 106 0 c 0
 87 0 73 22 55 37 c 0
 19 69 15 48 15 190 c 0
 15 230 15 282 15 353 c 8
 15 387 42 399 68 421 c 16
 100 448 121 470 163 470 c 0
 192 470 204 453 227 436 c 24
 255 414 292 400 292 358 c 0
 292 313 250 298 221 261 c 8
EndSplineSet
Validated: 1
EndChar

StartChar: f
Encoding: 102 102 38
Width: 326
Flags: HW
LayerCount: 2
Fore
SplineSet
190 22 m 0
 178 14 167 10 156 10 c 0
 124 10 96 36 86 42 c 8
 61 56 50 55 25 83 c 0
 23 86 22 88 22 91 c 0
 22 103 47 115 61 126 c 8
 75 137 104 129 104 147 c 16
 104 292 99 341 95 389 c 8
 94 402 80 406 68 411 c 16
 65 412 62 412 59 412 c 0
 48 412 36 407 27 407 c 0
 22 407 18 408 15 414 c 0
 14 417 13 420 13 422 c 0
 13 437 36 447 49 460 c 8
 61 472 77 469 86 484 c 16
 94 498 98 512 98 526 c 0
 98 537 96 549 92 562 c 0
 85 586 42 597 42 612 c 0
 42 615 43 618 46 621 c 2
 132 706 l 26
 174 747 185 768 243 808 c 0
 248 811 253 813 258 813 c 0
 272 813 287 801 301 790 c 0
 315 779 319 769 319 761 c 0
 319 747 306 736 301 731 c 8
 293 723 288 714 276 713 c 16
 275 713 275 713 274 713 c 0
 263 713 256 721 218 745 c 1
 217 745 215 745 214 745 c 0
 191 745 199 724 175 710 c 9
 159 690 160 686 132 658 c 9
 132 624 l 9
 137 600 172 610 184 590 c 16
 187 585 188 580 188 575 c 0
 188 570 187 566 187 560 c 0
 187 556 187 555 187 550 c 0
 187 533 182 517 182 503 c 0
 182 493 186 483 194 475 c 0
 199 470 206 468 214 468 c 0
 229 468 250 473 274 473 c 0
 285 473 298 472 310 469 c 0
 314 468 316 467 316 465 c 0
 316 457 272 444 255 432 c 8
 233 418 201 421 200 395 c 16
 193 247 200 201 190 141 c 0
 188 128 166 111 166 92 c 0
 166 83 170 75 184 65 c 0
 186 63 190 62 193 62 c 0
 198 62 203 63 207 63 c 0
 211 63 213 62 215 58 c 0
 216 56 216 53 216 51 c 0
 216 39 202 30 190 22 c 0
EndSplineSet
Validated: 1
EndChar

StartChar: g
Encoding: 103 103 39
Width: 348
Flags: W
HStem: -165 87<91.5 184> 404 36<303.283 315.498>
VStem: 32 87<142.12 365.584> 83 32<-17.7797 -0.879242> 222 86<72.7297 391.41> 231 76<-65.997 15.4899>
LayerCount: 2
Fore
SplineSet
201 73 m 8xe8
 207 67 214 76 222 78 c 17
 220 116 220 143 220 169 c 0
 220 194 221 215 222 240 c 1
 222 248 222 255 222 261 c 0
 222 268 222 275 222 282 c 0
 222 296 222 310 219 332 c 0
 219 334 219 335 219 337 c 0
 219 345 220 352 220 359 c 0
 220 369 216 380 196 394 c 0
 179 405 169 411 161 411 c 0
 151 411 145 403 137 396 c 8
 129 390 120 388 120 378 c 16
 119 366 119 349 119 331 c 0
 119 272 123 189 132 162 c 8
 146 122 187 90 201 73 c 8xe8
143 -56 m 0
 160 -70 170 -78 180 -78 c 0
 188 -78 197 -74 209 -66 c 0
 224 -56 231 -50 231 -41 c 0
 231 -34 228 -24 221 -8 c 8
 217 3 217 12 206 17 c 16
 203 18 200 18 198 18 c 0
 187 18 180 7 160 7 c 8
 136 7 115 -7 115 -27 c 0xd4
 115 -41 131 -46 143 -56 c 0
105 -164 m 0
 103 -165 101 -165 99 -165 c 0
 84 -165 75 -145 62 -133 c 8
 48 -120 25 -109 25 -84 c 0
 25 -65 41 -56 51 -39 c 0
 63 -17 83 -9 83 16 c 0xd4
 83 33 70 39 61 52 c 16
 51 67 32 71 32 88 c 0
 32 93 33 98 33 135 c 0
 33 178 31 224 31 262 c 0
 31 295 33 321 37 334 c 0
 51 377 69 373 93 396 c 24
 131 432 165 459 199 481 c 1
 199 481 233 454 257 445 c 1
 290 439 293 435 303 435 c 0
 309 435 318 437 341 440 c 1
 338 406 315 418 306 404 c 9
 304 396 301 391 301 382 c 16
 301 314 307 114 308 46 c 16
 308 42 308 37 308 33 c 0xe8
 308 2 307 -17 307 -53 c 0
 307 -75 297 -64 291 -70 c 17
 242 -89 230 -102 188 -122 c 8
 155 -138 147 -152 105 -164 c 0
EndSplineSet
Validated: 1
EndChar

StartChar: h
Encoding: 104 104 40
Width: 346
Flags: HW
LayerCount: 2
Fore
SplineSet
-26 802 m 0
 26 767 36 734 80 734 c 0
 82 734 85 734 88 734 c 8
 113 736 114 762 136 774 c 16
 154 784 171 797 188 797 c 0
 191 797 195 797 199 796 c 0
 204 795 206 791 206 788 c 0
 206 776 176 754 166 737 c 8
 154 715 157 707 132 682 c 0
 124 674 121 663 121 652 c 0
 121 638 125 622 125 606 c 0
 125 600 124 593 124 575 c 0
 124 542 127 516 127 485 c 0
 127 466 126 456 126 453 c 0
 126 447 128 445 131 445 c 0
 143 445 177 477 197 488 c 8
 222 501 231 518 258 525 c 16
 270 528 285 536 296 536 c 0
 303 536 308 532 310 525 c 0
 333 460 339 431 339 385 c 0
 339 375 338 363 338 350 c 8
 334 236 328 169 270 68 c 8
 223 -13 152 -114 111 -160 c 0
 99 -174 64 -194 52 -194 c 0
 49 -194 48 -192 48 -189 c 0
 48 -188 48 -186 49 -184 c 0
 71 -138 90 -125 114 -86 c 24
 163 -5 203 36 230 126 c 16
 242 169 247 203 247 239 c 0
 247 265 245 291 243 323 c 8
 240 369 249 381 218 439 c 0
 216 443 214 444 211 444 c 0
 203 444 191 431 178 427 c 8
 153 419 127 413 126 387 c 16
 121 256 120 188 120 144 c 0
 120 121 120 105 120 90 c 0
 120 67 120 46 117 7 c 0
 117 1 111 0 105 0 c 0
 98 0 90 0 82 0 c 0
 79 0 77 1 74 0 c 1
 72 0 70 0 68 0 c 0
 60 0 52 0 45 0 c 0
 39 0 34 1 34 7 c 0
 34 14 35 36 35 80 c 0
 35 138 33 190 31 261 c 0
 30 295 30 326 30 356 c 0
 30 392 30 427 30 464 c 0
 30 494 30 524 29 559 c 0
 29 561 29 563 29 565 c 0
 29 587 32 605 32 622 c 0
 32 633 31 644 27 657 c 8
 19 688 -3 698 -13 728 c 16
 -20 747 -36 785 -36 799 c 0
 -36 803 -34 805 -32 805 c 0
 -31 805 -29 804 -26 802 c 0
EndSplineSet
Validated: 1
EndChar

StartChar: i
Encoding: 105 105 41
Width: 223
Flags: HW
VStem: 66 83<108 263 252 346>
LayerCount: 2
Fore
SplineSet
49 383 m 0
 39 383 21 373 16 373 c 0
 15 373 14 373 14 374 c 0
 14 375 14 376 15 377 c 0
 33 417 37 409 55 423 c 16
 78 440 107 450 130 450 c 0
 141 450 152 447 158 442 c 0
 170 434 178 423 178 410 c 0
 178 407 177 402 176 399 c 8
 172 388 149 396 148 384 c 16
 147 364 147 350 147 342 c 0
 147 325 148 323 148 301 c 0
 148 255 150 220 150 183 c 0
 150 145 148 126 148 120 c 0
 148 105 155 95 164 83 c 8
 172 72 187 74 191 61 c 16
 192 58 194 54 194 51 c 0
 194 40 187 31 179 22 c 8
 167 8 164 0 136 0 c 8
 119 0 113 16 99 27 c 24
 72 47 47 62 32 80 c 0
 31 81 30 83 30 84 c 0
 30 93 66 93 66 108 c 0
 66 149 66 174 66 203 c 0
 66 217 66 234 66 252 c 0
 66 288 71 318 71 347 c 0
 71 357 71 368 69 378 c 8
 67 386 57 383 49 383 c 0
EndSplineSet
Validated: 1
EndChar

StartChar: j
Encoding: 106 106 42
Width: 207
Flags: HW
VStem: 72 83<108 276 252 346>
LayerCount: 2
Fore
SplineSet
10 -134 m 1
 10 -132 12 -126 16 -117 c 0
 45 -60 72 18 72 108 c 16
 72 149 72 174 72 203 c 0
 72 217 72 234 72 252 c 0
 72 288 77 318 77 347 c 0
 77 357 77 368 75 378 c 0
 74 381 73 383 71 383 c 0
 64 383 51 371 41 369 c 0
 32 367 15 357 9 357 c 0
 7 357 6 358 6 359 c 0
 6 360 6 361 7 362 c 0
 25 402 29 395 47 409 c 24
 70 427 83 439 112 445 c 16
 122 447 131 451 139 451 c 0
 147 451 156 448 164 442 c 0
 176 434 184 423 184 410 c 0
 184 407 183 402 182 399 c 8
 178 388 156 396 155 384 c 16
 154 364 154 350 154 342 c 0
 154 325 155 323 155 301 c 0
 155 231 156 188 156 157 c 0
 156 104 151 90 131 47 c 0
 102 -11 18 -134 10 -134 c 1
EndSplineSet
Validated: 1
EndChar

StartChar: k
Encoding: 107 107 43
Width: 391
Flags: HW
HStem: 206 112<198 263> 225 48<19 67> 239 34<37 74> 243 75<175 226>
VStem: 23 146<88 161> 85 84<175 236 329 396> 86 94<438 675> 279 89<344 433> 286 76<394 445> 291 89<650 717>
LayerCount: 2
Fore
SplineSet
175 329 m 0x8080
 183 321 193 317 203 317 c 0
 214 317 228 322 240 326 c 8
 258 332 268 342 276 359 c 16
 279 364 280 370 280 375 c 0
 280 381 279 388 279 394 c 0x81
 279 397 279 399 280 402 c 0
 282 411 286 424 286 433 c 0
 286 439 283 444 276 445 c 0
 275 445 273 445 272 445 c 0
 255 445 240 427 218 417 c 8
 203 409 188 410 178 396 c 16
 175 391 174 387 174 382 c 0
 174 377 175 371 175 365 c 0
 175 355 171 347 171 339 c 0
 171 335 172 332 175 329 c 0x8080
255 206 m 0
 240 206 232 218 218 224 c 0
 207 228 192 243 184 243 c 0
 181 243 179 241 178 237 c 0
 172 208 169 166 169 140 c 0
 169 129 169 126 169 122 c 0
 169 115 168 107 168 100 c 0
 168 93 170 86 177 83 c 0
 180 82 182 81 185 81 c 0
 202 81 213 108 232 117 c 8
 239 120 252 130 251 123 c 16
 242 77 230 76 212 49 c 24
 198 27 192 10 168 0 c 16
 156 -5 145 -8 134 -8 c 0
 124 -8 113 -6 103 0 c 8
 78 14 79 36 65 61 c 16
 50 88 23 102 23 131 c 0x19
 23 133 24 135 24 138 c 8
 24 151 37 156 48 163 c 24
 58 170 72 165 79 175 c 16
 83 181 85 188 85 194 c 0
 85 201 83 207 82 215 c 8
 81 224 82 233 74 237 c 16
 72 238 70 239 68 239 c 0x24
 58 239 47 225 37 225 c 0
 35 225 33 226 31 227 c 0
 22 232 15 242 15 252 c 0
 15 256 16 260 18 264 c 0
 22 271 30 273 38 273 c 0x44
 44 273 51 272 57 272 c 0
 65 272 73 275 75 283 c 0
 83 320 84 342 84 365 c 0
 84 377 84 390 84 404 c 0
 84 411 84 419 84 427 c 0
 85 467 86 495 86 527 c 0x22
 86 571 85 594 85 601 c 0x24
 85 614 86 626 86 637 c 0x22
 86 647 85 658 80 670 c 0
 69 696 30 693 30 720 c 0
 30 738 48 741 63 750 c 16
 79 760 91 771 109 771 c 0
 110 771 112 771 113 771 c 8
 139 771 139 731 165 731 c 16
 166 731 168 731 169 731 c 0
 183 731 191 744 205 750 c 0
 211 753 265 783 310 783 c 0
 324 783 338 779 349 771 c 8
 372 755 365 731 377 703 c 0
 379 698 380 694 380 689 c 0
 380 667 358 650 340 633 c 0
 333 626 324 618 316 618 c 0
 314 618 311 619 309 621 c 0
 291 633 301 656 291 676 c 24x2440
 282 694 280 720 260 720 c 16
 258 720 257 720 255 720 c 0
 238 720 228 702 214 688 c 0
 185 659 178 635 178 596 c 0
 178 582 179 565 180 547 c 0
 180 542 180 537 180 531 c 0
 180 516 180 497 180 481 c 0
 180 457 183 438 193 438 c 0
 196 438 199 439 203 442 c 0
 246 473 250 464 280 479 c 26
 329 504 l 2
 339 509 346 511 351 511 c 0
 361 511 365 503 365 493 c 0
 365 482 361 468 361 457 c 0x2280
 361 453 361 448 362 445 c 0
 366 431 368 420 368 409 c 0
 368 397 367 383 367 366 c 8
 367 352 352 348 341 341 c 24
 322 329 317 328 289 316 c 0
 285 314 283 310 283 306 c 0
 283 297 290 286 298 280 c 0
 301 278 304 276 307 276 c 0
 317 276 331 286 339 286 c 0
 343 286 345 284 347 280 c 0
 348 277 349 273 349 271 c 0
 349 254 321 246 304 233 c 8
 287 220 277 207 255 206 c 0
EndSplineSet
Validated: 1
EndChar

StartChar: l
Encoding: 108 108 44
Width: 200
Flags: HW
HStem: 778 20G<104 124>
VStem: 0 154<45 231> 70 125<684 737> 71 91<113 706>
LayerCount: 2
Fore
SplineSet
141 12 m 0xc0
 127 2 113 0 102 0 c 0
 76 0 59 19 49 25 c 8
 30 36 0 31 0 55 c 0xc0
 0 69 20 68 31 77 c 8
 46 90 65 94 67 114 c 16
 71 162 72 200 72 237 c 0
 72 285 70 330 70 388 c 0
 70 393 70 397 70 402 c 0xa0
 70 470 71 517 71 570 c 0x90
 71 638 70 672 70 683 c 0xa0
 70 694 73 707 73 717 c 0
 73 726 70 733 61 737 c 8
 55 740 53 730 46 728 c 16
 37 726 20 723 9 723 c 0
 2 723 0 724 0 727 c 0
 0 728 -2 729 0 731 c 0xc0
 25 756 15 758 31 768 c 16
 63 787 88 799 120 799 c 0
 129 799 140 798 151 796 c 8
 170 792 182 782 190 765 c 16
 193 760 195 752 195 746 c 0xa0
 195 715 168 678 163 667 c 1
 162 647 162 627 162 609 c 0x90
 162 560 164 517 164 471 c 0
 164 440 163 409 159 372 c 9
 157 264 154 193 154 95 c 0
 154 82 166 66 166 49 c 0
 166 38 160 25 141 12 c 0xc0
EndSplineSet
Validated: 1
EndChar

StartChar: m
Encoding: 109 109 45
Width: 582
Flags: HW
VStem: 432 90<142 312>
LayerCount: 2
Fore
SplineSet
477 0 m 0
 454 1 446 19 430 34 c 16
 415 48 393 54 393 74 c 0
 393 91 415 87 422 100 c 16
 431 118 434 136 434 152 c 0
 434 169 431 187 431 209 c 0
 431 212 431 215 431 218 c 0
 432 246 432 268 432 288 c 0
 432 314 432 338 432 375 c 0
 432 384 425 386 415 386 c 0
 408 386 399 385 392 384 c 8
 377 382 361 377 358 362 c 16
 352 325 340 202 340 114 c 0
 340 101 340 88 341 77 c 8
 342 64 369 80 369 55 c 8
 369 32 341 35 323 22 c 24
 311 14 306 0 292 0 c 16
 290 0 289 0 288 0 c 0
 275 0 265 8 252 15 c 0
 233 26 206 29 206 51 c 0
 206 75 234 71 252 83 c 17
 252 83 261 182 261 240 c 8
 261 289 263 301 263 366 c 8
 263 382 239 382 223 382 c 16
 222 382 221 382 220 382 c 0
 201 382 182 379 174 362 c 0
 154 317 148 246 148 187 c 0
 148 139 152 99 154 83 c 0
 155 71 162 63 162 53 c 0
 162 51 162 49 161 46 c 8
 156 32 144 29 132 22 c 16
 112 10 99 0 84 0 c 0
 72 0 59 7 37 22 c 8
 26 30 12 35 12 49 c 0
 12 73 43 73 51 95 c 0
 58 113 60 130 60 150 c 0
 60 169 58 193 58 227 c 0
 58 307 67 371 67 376 c 0
 67 380 64 382 60 382 c 0
 51 382 33 372 22 372 c 0
 17 372 12 374 11 378 c 0
 10 381 10 383 10 385 c 0
 10 405 45 411 67 424 c 0
 86 435 99 449 119 449 c 0
 121 449 123 449 125 449 c 8
 151 449 152 417 177 409 c 16
 180 408 183 408 186 408 c 0
 208 408 222 422 245 429 c 0
 269 437 280 452 304 452 c 0
 305 452 307 452 309 452 c 8
 324 452 331 441 343 433 c 24
 351 427 351 418 361 415 c 16
 368 413 376 412 382 412 c 0
 400 412 415 420 435 427 c 8
 461 436 469 452 494 464 c 16
 498 466 502 467 505 467 c 0
 529 467 533 426 549 402 c 0
 550 400 551 398 551 396 c 0
 551 385 529 377 527 362 c 0
 523 330 522 306 522 278 c 0
 522 266 522 252 522 238 c 0
 522 234 522 228 522 224 c 0
 522 192 518 169 518 144 c 0
 518 128 520 109 525 89 c 8
 529 71 538 74 547 46 c 0
 547 45 548 44 548 43 c 0
 548 33 527 32 516 25 c 0
 501 15 494 0 477 0 c 0
EndSplineSet
Validated: 1
EndChar

StartChar: n
Encoding: 110 110 46
Width: 407
Flags: HW
VStem: 248 85<100 263 240 329>
LayerCount: 2
Fore
SplineSet
385 384 m 0
 386 382 386 381 386 380 c 0
 386 370 341 380 338 362 c 0
 334 337 332 277 332 217 c 0
 332 161 334 105 335 77 c 8
 336 64 362 80 362 55 c 8
 362 32 334 35 316 22 c 24
 304 14 300 2 286 0 c 16
 284 0 283 0 282 0 c 0
 269 0 259 8 246 15 c 0
 227 26 200 29 200 51 c 0
 200 75 228 71 246 83 c 17
 246 83 248 182 248 240 c 9
 249 289 251 301 251 366 c 0
 251 380 234 390 215 390 c 0
 199 390 179 382 167 362 c 0
 152 337 148 315 148 288 c 0
 148 272 150 252 150 234 c 0
 150 229 150 224 150 218 c 0
 149 206 148 194 148 184 c 0
 148 150 152 124 154 83 c 0
 155 70 159 61 159 53 c 0
 159 44 154 36 132 22 c 0
 112 8 98 0 84 0 c 0
 71 0 57 7 37 22 c 8
 26 30 12 35 12 49 c 0
 12 73 43 73 51 95 c 0
 58 112 60 128 60 143 c 0
 60 165 56 185 56 211 c 0
 56 213 56 216 56 218 c 0
 56 229 56 240 56 249 c 0
 56 271 56 288 56 307 c 0
 56 349 59 369 59 376 c 0
 59 380 57 382 53 382 c 0
 44 382 25 372 14 372 c 0
 9 372 5 374 4 378 c 0
 3 381 3 383 3 385 c 0
 3 405 37 411 59 424 c 0
 78 435 92 449 112 449 c 0
 114 449 116 449 118 449 c 8
 144 446 144 413 170 409 c 16
 173 408 176 408 179 408 c 0
 201 408 215 422 238 429 c 0
 261 436 272 453 294 453 c 0
 297 453 299 453 302 452 c 8
 320 449 325 433 339 421 c 24
 356 407 367 412 385 384 c 0
EndSplineSet
Validated: 1
EndChar

StartChar: o
Encoding: 111 111 47
Width: 348
Flags: W
HStem: 15 64<155.801 229.459> 357 90<139.187 233.347>
VStem: 18 85<120.106 311.419> 252 78<79.0319 335.76>
LayerCount: 2
Fore
SplineSet
174 355 m 0
 144 352 135 339 116 312 c 0
 107 300 103 263 103 228 c 0
 103 192 106 159 106 156 c 8
 109 126 133 111 161 99 c 16
 180 90 210 79 230 79 c 0
 242 79 252 83 252 97 c 0
 252 135 253 173 253 208 c 0
 253 274 249 327 226 342 c 0
 211 352 218 357 204 357 c 0
 198 357 189 357 174 355 c 0
144 429 m 0
 161 442 179 447 194 447 c 0
 217 447 239 437 266 429 c 8
 289 422 314 420 317 396 c 16
 329 306 330 235 330 176 c 0
 330 168 330 161 330 153 c 0
 330 144 330 134 330 125 c 1
 315 56 293 67 261 48 c 1
 217 37 193 15 151 15 c 0
 147 15 142 15 138 15 c 8
 107 18 94 32 68 49 c 24
 51 60 38 67 29 85 c 16
 20 102 17 118 17 133 c 0
 17 143 18 154 18 165 c 0
 18 167 18 169 18 171 c 0
 18 182 18 194 18 204 c 0
 18 374 54 360 144 429 c 0
EndSplineSet
Validated: 1
EndChar

StartChar: p
Encoding: 112 112 48
Width: 516
Flags: HW
VStem: 95 87<95 217>
LayerCount: 2
Fore
SplineSet
182 95 m 8
 182 60 233 74 268 68 c 16
 288 64 307 57 324 57 c 0
 333 57 341 59 351 65 c 8
 376 79 377 101 385 129 c 16
 395 165 399 195 399 222 c 0
 399 293 371 332 360 355 c 0
 354 367 346 393 324 398 c 16
 321 399 318 399 316 399 c 0
 302 399 292 388 278 380 c 8
 258 369 247 357 228 343 c 24
 198 321 186 354 179 223 c 16
 179 214 178 205 178 196 c 0
 178 157 182 123 182 95 c 8
0 301 m 0
 -1 301 -1 304 0 306 c 0
 18 334 28 344 53 361 c 24
 89 387 110 405 152 417 c 16
 159 419 166 422 172 422 c 0
 176 422 180 420 184 417 c 8
 191 412 185 406 185 393 c 0
 185 386 183 376 183 370 c 0
 183 367 183 364 185 364 c 0
 186 364 187 364 188 365 c 0
 222 383 239 400 274 417 c 16
 312 435 335 461 374 461 c 0
 378 461 381 460 385 460 c 8
 409 460 418 442 434 426 c 16
 485 374 502 339 502 291 c 0
 502 273 500 251 496 226 c 8
 486 166 470 133 446 77 c 24
 431 40 432 7 397 -12 c 16
 388 -17 380 -19 372 -19 c 0
 357 -19 340 -13 321 -12 c 8
 275 -10 250 -4 204 0 c 24
 193 1 183 7 174 0 c 16
 169 -4 168 -9 168 -15 c 0
 168 -21 169 -28 169 -34 c 0
 169 -46 164 -57 164 -66 c 0
 164 -71 165 -75 169 -80 c 0
 173 -85 179 -86 185 -86 c 0
 186 -86 186 -86 187 -86 c 0
 192 -86 198 -86 203 -89 c 0
 223 -102 229 -119 229 -132 c 0
 229 -144 224 -155 218 -160 c 0
 214 -163 209 -165 205 -165 c 0
 196 -165 185 -160 174 -160 c 0
 173 -160 173 -160 172 -160 c 0
 169 -160 166 -160 164 -160 c 0
 160 -160 156 -160 152 -160 c 0
 144 -160 135 -161 126 -166 c 8
 116 -172 118 -184 108 -190 c 16
 93 -199 71 -211 56 -211 c 0
 48 -211 42 -208 37 -200 c 0
 35 -197 35 -195 35 -193 c 0
 35 -177 71 -169 80 -147 c 0
 89 -125 90 -109 90 -90 c 0
 90 -84 90 -78 90 -72 c 0
 90 -68 90 -62 90 -58 c 0
 90 -44 91 -31 91 -19 c 0
 91 -2 90 14 85 34 c 8
 81 51 47 40 47 58 c 0
 47 76 78 70 87 86 c 0
 97 104 100 121 100 138 c 0
 100 161 95 184 95 212 c 0
 95 225 97 260 97 279 c 0
 97 295 96 312 93 334 c 0
 92 339 90 341 87 341 c 0
 78 341 58 321 44 317 c 0
 32 313 7 301 0 301 c 0
EndSplineSet
Validated: 1
EndChar

StartChar: q
Encoding: 113 113 49
Width: 345
Flags: HW
LayerCount: 2
Fore
SplineSet
206 108 m 16
 207 122 207 133 207 143 c 0
 207 178 204 196 204 234 c 0
 204 266 210 289 210 315 c 0
 210 325 209 337 206 349 c 8
 203 363 192 369 181 379 c 24
 171 388 165 397 152 397 c 24
 144 397 140 391 133 386 c 24
 125 380 117 380 112 371 c 16
 84 317 90 289 87 236 c 16
 87 233 87 229 87 226 c 0
 87 193 95 169 95 138 c 0
 95 130 95 126 95 125 c 0
 95 112 112 107 123 99 c 0
 137 89 145 77 161 77 c 0
 162 77 162 77 163 77 c 8
 183 78 205 88 206 108 c 16
112 9 m 0
 82 10 68 28 43 46 c 16
 27 58 0 64 0 80 c 0
 0 82 -1 84 0 86 c 0
 4 97 5 109 5 121 c 0
 5 136 3 154 3 172 c 0
 3 183 4 196 6 208 c 0
 15 266 9 298 36 347 c 24
 54 381 83 385 115 409 c 24
 146 432 161 441 195 464 c 0
 197 465 198 466 200 466 c 0
 210 466 214 443 223 433 c 8
 233 422 236 409 250 404 c 16
 256 402 261 401 265 401 c 0
 279 401 290 410 314 415 c 0
 315 415 316 415 316 415 c 0
 318 415 318 414 318 413 c 0
 318 405 289 372 284 361 c 0
 266 317 261 262 261 213 c 0
 261 186 262 160 262 140 c 0
 262 115 261 113 261 110 c 0
 261 98 292 108 292 93 c 0
 292 78 266 82 258 68 c 0
 247 48 245 28 245 9 c 0
 245 -4 246 -18 246 -32 c 0
 246 -36 246 -40 246 -44 c 0
 246 -47 245 -49 245 -52 c 0
 242 -71 242 -86 242 -100 c 0
 242 -107 242 -115 242 -123 c 0
 242 -134 241 -146 239 -160 c 8
 237 -177 211 -166 196 -175 c 16
 189 -179 183 -196 179 -196 c 0
 178 -196 178 -195 177 -194 c 0
 174 -189 173 -177 173 -162 c 0
 173 -105 191 33 191 39 c 0
 191 43 190 45 187 45 c 0
 178 45 157 30 144 25 c 0
 131 20 125 9 112 9 c 0
EndSplineSet
Validated: 1
EndChar

StartChar: r
Encoding: 114 114 50
Width: 331
Flags: HW
VStem: 40 92<12 160>
LayerCount: 2
Fore
SplineSet
236 366 m 0
 235 366 232 372 228 399 c 0
 228 402 226 404 224 404 c 0
 217 404 204 392 195 387 c 8
 176 376 154 371 152 348 c 16
 146 274 132 243 132 103 c 0
 132 90 132 76 132 61 c 0
 132 55 135 53 139 53 c 0
 149 53 169 67 182 71 c 0
 206 78 228 109 244 109 c 0
 248 109 252 106 256 101 c 0
 259 97 260 94 260 91 c 0
 260 73 224 60 204 46 c 8
 175 26 156 16 121 9 c 16
 103 5 75 -4 58 -4 c 0
 47 -4 40 0 40 12 c 0
 40 167 45 338 45 350 c 0
 45 356 39 358 32 358 c 0
 15 358 -17 347 -22 347 c 9
 -21 348 -20 348 -18 350 c 0
 16 375 14 373 37 385 c 16
 63 399 77 418 105 418 c 0
 107 418 109 418 111 418 c 8
 126 418 127 396 142 396 c 16
 143 396 145 396 146 396 c 0
 168 396 179 413 201 421 c 0
 206 423 257 452 292 452 c 0
 303 452 312 448 317 441 c 0
 320 436 322 432 322 428 c 0
 322 418 315 406 313 393 c 8
 309 368 313 352 300 332 c 16
 290 317 279 306 268 306 c 0
 259 306 249 315 241 332 c 0
 238 337 238 341 238 346 c 0
 238 352 236 360 236 366 c 0
EndSplineSet
Validated: 1
EndChar

StartChar: s
Encoding: 115 115 51
Width: 326
Flags: HW
LayerCount: 2
Fore
SplineSet
159 262 m 0
 170 262 198 262 209 259 c 9
 231 250 253 257 265 237 c 16
 273 224 276 211 276 198 c 0
 276 173 266 149 260 120 c 8
 254 92 240 79 234 51 c 0
 231 36 219 33 205 33 c 0
 196 33 185 34 176 34 c 0
 169 34 162 34 156 32 c 0
 132 26 119 12 96 12 c 0
 95 12 93 12 92 12 c 8
 75 12 66 22 52 31 c 24
 35 42 12 46 12 66 c 0
 12 79 28 79 37 89 c 8
 44 96 42 110 52 110 c 16
 54 110 55 111 57 111 c 0
 71 111 79 96 92 88 c 0
 93 88 110 70 133 70 c 0
 141 70 151 73 160 79 c 8
 178 91 180 107 184 129 c 16
 186 140 190 152 190 162 c 0
 190 170 188 177 181 184 c 0
 174 191 167 194 159 194 c 0
 149 194 137 189 125 189 c 0
 122 189 120 190 117 190 c 0
 114 190 111 191 108 191 c 0
 98 191 87 189 78 189 c 0
 68 189 59 192 55 203 c 0
 46 231 49 245 43 273 c 24
 38 296 31 305 26 330 c 0
 26 332 25 334 25 336 c 0
 25 358 55 364 71 382 c 8
 84 396 94 403 105 419 c 24
 109 425 106 432 111 438 c 16
 128 461 139 472 151 472 c 0
 167 472 185 453 226 414 c 8
 248 394 252 371 279 360 c 16
 284 358 289 357 294 357 c 0
 304 357 314 360 322 360 c 0
 327 360 329 358 329 355 c 0
 329 345 307 323 294 313 c 0
 281 303 268 299 257 299 c 0
 222 299 197 335 184 347 c 8
 167 363 168 393 144 393 c 16
 143 393 142 393 141 393 c 0
 129 393 118 380 115 362 c 0
 114 357 114 352 114 347 c 0
 114 313 127 276 127 264 c 0
 127 259 129 258 133 258 c 0
 139 258 151 262 159 262 c 0
EndSplineSet
Validated: 1
EndChar

StartChar: t
Encoding: 116 116 52
Width: 267
Flags: HW
VStem: 58 79<108 367>
LayerCount: 2
Fore
SplineSet
256 141 m 0
 222 89 235 91 208 71 c 24
 166 38 123 28 80 22 c 0
 79 22 78 22 77 22 c 0
 60 22 58 50 58 68 c 2
 58 206 l 18
 58 248 57 283 57 317 c 0
 57 356 58 362 58 367 c 0
 58 373 54 374 48 374 c 0
 39 374 24 370 14 370 c 0
 7 370 2 372 0 378 c 0
 -1 380 0 383 0 385 c 0
 0 412 48 410 68 436 c 8
 83 455 67 451 98 494 c 0
 106 505 122 515 134 515 c 0
 139 515 144 513 146 507 c 0
 148 503 150 498 150 493 c 0
 150 483 146 472 146 462 c 0
 146 455 148 447 154 441 c 8
 162 432 172 439 183 435 c 24
 199 429 220 432 220 413 c 0
 220 397 197 394 183 383 c 8
 173 375 167 372 156 365 c 16
 140 354 136 333 136 308 c 0
 136 291 137 271 137 252 c 0
 137 248 137 244 137 240 c 0
 136 221 135 201 135 183 c 0
 135 152 137 125 143 108 c 0
 145 102 150 99 154 99 c 0
 167 99 188 118 205 123 c 0
 220 128 249 146 256 146 c 0
 257 146 258 146 258 145 c 0
 258 144 257 143 256 141 c 0
EndSplineSet
Validated: 1
EndChar

StartChar: u
Encoding: 117 117 53
Width: 349
Flags: HW
HStem: 37 44<158 242> 382 58<61 108> 431 20G<270 293>
VStem: 81 69<127 373> 251 62<99 385>
LayerCount: 2
Fore
SplineSet
135 12 m 8xb8
 111 16 102 30 83 43 c 24
 68 53 40 59 40 79 c 0
 40 93 65 110 71 126 c 0
 80 151 82 171 82 191 c 0
 82 204 81 218 81 233 c 0
 81 237 81 242 81 246 c 0
 82 271 83 287 83 305 c 0
 83 323 82 344 77 375 c 0
 76 380 72 382 67 382 c 0
 61 382 52 379 46 378 c 0
 34 375 15 352 12 352 c 0
 11 352 11 353 12 356 c 0
 24 387 29 382 41 396 c 16
 52 408 73 440 105 440 c 0xd8
 109 440 113 440 117 439 c 0
 132 435 151 431 151 416 c 0
 151 403 150 402 150 351 c 0
 150 319 150 261 150 117 c 0
 150 94 179 81 206 81 c 0
 222 81 238 86 243 98 c 0
 250 114 251 130 251 147 c 0
 251 157 251 169 251 181 c 0
 251 186 251 192 251 197 c 0
 253 231 254 254 254 282 c 0
 254 309 253 322 253 326 c 0
 253 337 255 345 255 354 c 0
 255 362 253 371 248 381 c 0
 247 384 244 385 241 385 c 0
 230 385 211 371 205 371 c 0
 204 371 203 371 203 373 c 0
 203 396 230 416 230 416 c 24
 247 433 258 450 283 452 c 16
 284 452 285 452 287 452 c 0
 299 452 313 448 313 436 c 0
 313 386 316 382 316 177 c 0
 316 151 313 134 313 114 c 0
 313 104 314 92 316 80 c 0
 318 72 329 61 329 50 c 0
 329 42 323 34 304 25 c 0
 292 19 280 16 271 16 c 0
 242 16 226 37 212 37 c 0
 197 37 168 12 141 12 c 0
 139 12 137 12 135 12 c 8xb8
EndSplineSet
Validated: 1
EndChar

StartChar: v
Encoding: 118 118 54
Width: 446
Flags: HW
LayerCount: 2
Fore
SplineSet
0 332 m 0
 19 361 40 396 101 396 c 0
 111 396 123 395 135 393 c 8
 171 387 196 384 220 356 c 24
 256 314 247 273 255 218 c 16
 255 215 256 212 256 209 c 0
 256 186 246 163 246 145 c 0
 246 134 249 126 261 120 c 0
 264 118 267 118 270 118 c 0
 286 118 298 140 313 154 c 0
 324 165 372 199 372 271 c 0
 372 290 367 312 359 338 c 0
 349 370 288 402 288 417 c 0
 288 420 291 422 298 424 c 0
 323 429 339 432 351 432 c 0
 366 432 378 428 396 417 c 8
 416 405 422 389 429 366 c 16
 435 344 438 324 438 306 c 0
 438 214 367 158 323 111 c 8
 282 68 258 41 206 12 c 16
 195 6 187 0 176 0 c 0
 174 0 171 -1 169 0 c 0
 151 4 144 20 144 43 c 0
 144 78 159 127 159 169 c 0
 159 176 158 183 157 190 c 8
 150 233 149 265 117 295 c 16
 86 325 -4 299 -4 322 c 0
 -4 325 -3 328 0 332 c 0
EndSplineSet
Validated: 1
EndChar

StartChar: w
Encoding: 119 119 55
Width: 581
Flags: HW
VStem: 74 80<112 261> 283 72<215 357>
LayerCount: 2
Fore
SplineSet
492 34 m 16
 443 14 409 -3 364 -3 c 0
 353 -3 341 -2 329 0 c 8
 300 5 266 50 240 52 c 16
 239 52 237 52 236 52 c 0
 212 52 201 37 178 28 c 0
 151 18 138 0 110 0 c 0
 109 0 109 0 108 0 c 8
 85 1 73 13 55 25 c 24
 39 35 22 39 22 59 c 0
 22 74 34 84 46 95 c 8
 53 102 68 99 68 108 c 16
 68 163 74 201 74 261 c 16
 74 288 77 306 77 326 c 0
 77 340 76 356 71 375 c 0
 70 380 63 382 57 382 c 0
 45 382 27 376 20 376 c 0
 18 376 17 377 17 378 c 0
 17 379 17 380 18 381 c 0
 36 409 33 404 46 415 c 24
 66 432 77 448 104 451 c 16
 112 452 123 453 132 453 c 0
 149 453 166 448 166 433 c 0
 166 377 154 325 154 120 c 8
 154 101 172 91 190 86 c 16
 193 85 197 85 199 85 c 0
 208 85 215 89 224 93 c 8
 247 103 274 104 276 129 c 16
 277 139 284 228 284 314 c 0
 284 334 284 356 283 374 c 0
 283 380 277 381 271 381 c 0
 267 381 262 380 257 380 c 0
 251 380 245 382 243 387 c 0
 242 389 242 392 242 394 c 0
 242 407 256 416 267 427 c 0
 290 449 307 455 319 455 c 0
 332 455 341 448 349 445 c 8
 366 438 381 440 393 424 c 0
 394 422 395 421 395 419 c 0
 395 407 357 401 356 383 c 0
 354 359 354 331 354 300 c 0
 354 267 354 233 354 201 c 0
 354 128 351 119 351 110 c 0
 351 83 388 80 416 70 c 0
 419 69 422 69 424 69 c 0
 441 69 455 90 458 109 c 0
 462 133 464 188 464 244 c 0
 464 288 463 334 461 368 c 0
 461 373 453 374 446 374 c 0
 440 374 434 373 430 373 c 0
 427 373 426 374 426 375 c 0
 426 376 426 376 427 377 c 0
 427 377 482 441 527 441 c 0
 536 441 545 438 553 432 c 0
 566 421 574 416 574 411 c 0
 574 409 573 407 571 404 c 0
 534 362 545 381 541 361 c 16
 536 338 535 319 535 300 c 0
 535 287 536 273 536 259 c 0
 536 250 536 240 535 230 c 0
 535 222 534 215 534 208 c 0
 534 190 535 172 535 156 c 0
 535 136 533 115 525 89 c 8
 518 64 516 43 492 34 c 16
EndSplineSet
Validated: 1
EndChar

StartChar: x
Encoding: 120 120 56
Width: 413
Flags: W
HStem: 332 127<307.01 370.764>
VStem: 119 108<146.031 308.744> 128 94<79.3564 213.739>
LayerCount: 2
Fore
SplineSet
8 -193 m 2xa0
 68 -86 l 26
 91 -44 112 -23 123 23 c 16
 127 38 128 51 128 68 c 0xa0
 128 103 119 224 119 241 c 0
 119 248 120 255 120 263 c 0
 120 278 116 295 94 311 c 0
 84 318 60 315 60 323 c 0
 60 324 60 325 61 326 c 0
 73 349 72 359 88 371 c 16
 106 385 122 390 136 390 c 0
 170 390 194 359 213 359 c 0
 214 359 216 360 217 360 c 8
 244 367 244 395 266 412 c 16
 266 412 315 459 353 459 c 0
 359 459 366 458 371 455 c 8
 391 444 401 427 403 403 c 16
 403 401 403 400 403 398 c 0
 403 381 395 368 383 354 c 0
 369 337 357 332 347 332 c 0
 331 332 319 346 307 354 c 0
 295 362 293 377 279 377 c 0
 266 377 261 365 252 355 c 24
 229 330 227 333 227 215 c 16xc0
 227 188 222 167 222 145 c 0
 222 130 225 113 233 96 c 8
 243 73 261 67 281 53 c 24
 298 41 318 44 330 27 c 24
 336 19 338 9 334 0 c 24
 327 -17 311 -20 295 -28 c 16
 277 -37 264 -45 245 -45 c 0
 243 -45 242 -45 240 -45 c 0
 221 -44 192 -16 177 -16 c 0
 176 -16 175 -16 174 -16 c 8
 141 -25 140 -57 121 -86 c 24
 102 -115 95 -135 77 -162 c 0
 65 -179 25 -202 11 -202 c 0
 8 -202 6 -201 6 -199 c 0
 6 -198 7 -195 8 -193 c 2xa0
EndSplineSet
Validated: 1
EndChar

StartChar: y
Encoding: 121 121 57
Width: 421
Flags: HW
LayerCount: 2
Fore
SplineSet
-82 -188 m 0
 -85 -184 -87 -180 -87 -176 c 0
 -87 -144 -13 -104 16 -68 c 8
 77 8 72 54 78 156 c 16
 80 189 81 216 81 242 c 0
 81 280 79 315 76 360 c 8
 75 370 59 361 49 362 c 16
 48 362 46 362 45 362 c 0
 39 362 32 361 26 361 c 0
 18 361 14 365 14 373 c 0
 14 388 39 390 55 397 c 0
 90 413 141 451 169 451 c 0
 180 451 186 445 188 430 c 0
 190 410 191 378 191 341 c 0
 191 231 184 80 184 80 c 0
 184 76 185 74 187 74 c 0
 197 74 231 120 250 143 c 0
 283 182 328 224 328 305 c 0
 328 308 328 312 328 315 c 0
 328 318 328 322 328 325 c 0
 328 329 328 333 328 336 c 0
 328 353 326 369 311 381 c 0
 309 383 305 384 300 384 c 0
 293 384 286 382 279 382 c 0
 273 382 268 383 266 387 c 0
 265 389 264 392 264 394 c 0
 264 406 280 416 291 426 c 8
 313 448 326 464 356 466 c 16
 357 466 358 466 359 466 c 0
 373 466 384 461 393 449 c 0
 404 434 407 418 407 403 c 0
 407 396 406 389 406 381 c 0
 406 376 407 372 407 367 c 0
 408 351 409 336 409 325 c 0
 409 268 394 262 383 244 c 0
 308 122 229 14 178 0 c 24
 167 -3 158 5 147 0 c 24
 112 -15 110 -45 84 -74 c 24
 59 -102 43 -115 18 -143 c 24
 3 -160 0 -179 -20 -190 c 16
 -25 -193 -39 -196 -52 -196 c 0
 -65 -196 -78 -193 -82 -188 c 0
EndSplineSet
Validated: 1
EndChar

StartChar: z
Encoding: 122 122 58
Width: 268
Flags: HW
LayerCount: 2
Fore
SplineSet
8 373 m 0
 16 398 35 407 55 426 c 24
 68 438 75 450 92 455 c 16
 93 455 94 455 96 455 c 0
 108 455 146 452 152 449 c 8
 181 435 189 415 211 391 c 16
 229 371 256 365 256 337 c 0
 256 319 239 315 227 303 c 24
 209 284 192 277 178 254 c 0
 176 252 176 250 176 248 c 0
 176 234 218 232 229 213 c 0
 235 202 242 183 242 156 c 0
 242 123 233 79 201 27 c 8
 182 -6 165 -21 135 -45 c 16
 111 -63 60 -99 49 -99 c 0
 48 -99 47 -98 47 -97 c 0
 47 -96 48 -94 51 -90 c 0
 76 -55 86 -36 109 0 c 16
 123 24 157 50 157 94 c 0
 157 108 152 126 143 145 c 8
 135 161 126 169 111 180 c 16
 98 190 66 189 66 198 c 0
 66 199 67 201 68 203 c 0
 84 226 91 240 109 260 c 24
 123 276 147 277 150 299 c 16
 150 301 150 303 150 305 c 0
 150 327 132 338 117 356 c 8
 104 372 96 387 76 391 c 24
 66 393 60 386 51 383 c 16
 39 380 18 367 10 367 c 0
 8 367 7 368 7 370 c 0
 7 371 8 372 8 373 c 0
EndSplineSet
Validated: 1
EndChar

StartChar: acute
Encoding: 180 180 59
Width: 231
Flags: HW
LayerCount: 2
Fore
SplineSet
145 771 m 0
 155 771 173 775 182 775 c 0
 186 775 189 774 189 772 c 0
 189 771 188 770 187 768 c 0
 153 722 155 722 128 696 c 16
 104 673 57 622 45 622 c 0
 43 622 42 623 42 626 c 0
 42 628 42 630 43 633 c 0
 52 670 52 684 63 716 c 24
 71 739 72 758 92 771 c 16
 98 775 104 776 110 776 c 0
 121 776 132 771 145 771 c 0
EndSplineSet
Validated: 1
EndChar

StartChar: bar
Encoding: 124 124 60
Width: 180
Flags: HW
VStem: 45 77<78 742>
LayerCount: 2
Fore
SplineSet
124 92 m 1
 124 77 101 81 87 75 c 0
 76 70 58 55 50 55 c 0
 47 55 46 57 46 61 c 0
 45 94 45 133 45 176 c 0
 45 316 47 498 47 628 c 0
 47 702 47 711 47 720 c 0
 47 739 70 743 87 750 c 0
 96 754 110 762 118 762 c 0
 121 762 124 760 124 756 c 1
 124 669 123 606 123 561 c 0
 123 380 125 483 125 374 c 0
 125 371 125 369 125 366 c 0
 125 289 122 238 122 173 c 0
 122 148 123 123 124 92 c 1
EndSplineSet
Validated: 1
EndChar

StartChar: uni007F
Encoding: 127 127 62
Width: 1635
Flags: HW
HStem: 10 54<248 529 1085 1349> 87 112<1139 1183> 153 32<1271 1319> 331 83<443 557> 349 66<423 525> 349 55<417 488> 362 79<251 292> 505 22G<1449 1458> 529 87<397 588> 584 56<1252 1396> 742 70<407 581> 773 40<1190 1418>
VStem: 25 52<204 463> 323 67<441 514> 332 83<252 349> 739 91<300 465> 976 70<237 501> 1169 50<200 480> 1543 71<365 643>
LayerCount: 2
Fore
SplineSet
1486 543 m 0xc149e0
 1486 524 1465 505 1451 505 c 0
 1447 505 1443 506 1440 510 c 0
 1426 526 1413 528 1405 545 c 16
 1391 574 1388 584 1323 584 c 0
 1285 584 1250 576 1245 545 c 0
 1230 466 1220 381 1220 258 c 0
 1220 174 1222 174 1232 174 c 0
 1242 174 1257 180 1268 180 c 0
 1269 180 1270 180 1271 180 c 0
 1283 180 1292 184 1303 184 c 0
 1309 184 1327 181 1327 176 c 0
 1327 169 1298 159 1286 153 c 8xa149e0
 1267 143 1250 149 1231 138 c 24
 1206 124 1188 87 1179 87 c 0
 1172 87 1174 97 1145 117 c 2
 1109 141 l 10
 1080 161 1060 167 1032 189 c 16
 1009 206 976 209 976 237 c 0
 976 237 976 302 979 344 c 24
 983 399 978 414 993 485 c 8
 1003 533 1035 550 1070 585 c 24
 1104 619 1137 620 1168 657 c 24
 1188 682 1176 734 1196 734 c 0
 1212 734 1207 713 1212 700 c 24
 1218 683 1211 667 1224 655 c 16
 1239 641 1255 639 1272 639 c 0
 1281 639 1290 640 1299 640 c 0
 1317 640 1340 636 1355 636 c 0
 1395 636 1390 649 1414 657 c 16
 1428 662 1440 674 1451 674 c 0
 1463 674 1470 666 1470 655 c 0
 1470 651 1469 647 1468 643 c 8
 1464 628 1441 635 1441 612 c 0
 1441 582 1486 570 1486 543 c 0xc149e0
458 10 m 0
 442 10 400 9 374 9 c 0
 332 9 294 13 244 25 c 8
 181 40 135 45 90 92 c 24
 46 138 43 183 32 246 c 16
 27 276 25 299 25 323 c 0
 25 423 51 516 123 597 c 24
 178 659 218 687 289 731 c 24
 394 798 472 812 518 812 c 0
 525 812 533 812 540 812 c 0x8129e0
 591 812 629 810 668 783 c 8
 720 747 727 702 754 645 c 24
 778 594 800 485 802 485 c 0
 804 485 885 635 961 692 c 8
 1047 758 1172 803 1245 809 c 16
 1274 811 1298 813 1321 813 c 0x8119e0
 1478 813 1538 730 1542 725 c 24
 1578 683 1592 653 1604 596 c 0
 1611 561 1614 533 1614 506 c 0
 1614 440 1595 388 1577 301 c 8
 1559 218 1518 180 1464 115 c 24
 1406 47 1370 23 1225 16 c 16
 1192 14 1163 13 1136 13 c 0
 947 13 865 100 838 126 c 16
 810 153 792 299 777 299 c 0
 772 299 753 247 745 237 c 2
 649 111 l 18
 615 68 570 10 484 10 c 0
 476 10 468 10 458 10 c 0
946 596 m 24
 909 551 830 473 830 368 c 0
 830 327 845 299 868 260 c 8
 906 194 939 160 1004 121 c 24
 1061 86 1102 84 1169 72 c 16
 1197 67 1216 62 1240 62 c 0
 1365 62 1422 110 1458 172 c 24
 1498 241 1543 322 1543 523 c 0
 1543 580 1535 630 1501 688 c 8
 1481 724 1457 740 1419 754 c 16
 1382 767 1351 773 1319 773 c 0x8119e0
 1288 773 1258 768 1221 761 c 8
 1155 749 1120 729 1063 694 c 24
 1012 663 984 642 946 596 c 24
227 95 m 24
 282 72 314 65 400 65 c 0
 565 65 637 155 676 206 c 24
 701 239 739 288 739 361 c 0
 739 401 726 431 715 475 c 8
 699 542 695 584 657 641 c 24
 629 684 608 711 561 729 c 16
 536 738 516 742 494 742 c 0x8129e0
 472 742 450 738 424 731 c 8
 336 707 293 669 223 610 c 24
 160 556 77 484 77 361 c 0
 77 223 105 186 129 154 c 24
 156 118 186 111 227 95 c 24
325 582 m 0
 325 619 332 622 385 622 c 0
 402 622 411 621 434 621 c 0
 461 620 476 616 501 616 c 0
 570 616 573 630 606 648 c 8
 612 652 613 639 618 633 c 25
 622 626 631 621 629 612 c 24
 627 604 614 608 610 601 c 16
 608 597 607 594 607 591 c 0
 607 575 642 571 645 555 c 8
 647 545 638 539 631 532 c 24
 628 529 615 513 590 513 c 0
 560 513 567 529 505 529 c 0
 461 529 418 522 396 514 c 0
 391 512 389 508 389 504 c 0
 389 495 397 482 398 470 c 8
 401 414 403 404 422 404 c 0x858de0
 440 404 466 415 489 415 c 0x890de0
 496 415 497 414 508 414 c 0
 526 414 545 418 561 418 c 0
 595 418 597 395 597 392 c 0
 597 381 577 379 567 369 c 8
 555 357 553 331 525 331 c 0x910de0
 518 331 449 349 442 349 c 0
 435 349 415 345 415 310 c 0
 415 304 415 298 415 292 c 0
 415 274 410 254 410 229 c 0
 410 199 419 185 419 180 c 0
 419 170 402 166 393 158 c 0
 381 148 374 135 361 135 c 0
 360 135 360 135 359 135 c 8
 341 135 336 153 322 164 c 24
 302 179 292 201 266 201 c 0
 248 201 213 178 199 163 c 24
 193 155 196 141 186 139 c 24
 177 138 177 151 171 156 c 24
 165 160 153 158 155 165 c 16
 163 198 177 213 204 230 c 24
 261 266 333 231 333 278 c 0
 333 286 332 294 332 303 c 0
 332 304 332 305 332 306 c 0
 332 313 332 321 332 327 c 0x890be0
 332 356 319 370 303 375 c 16
 300 376 297 376 293 376 c 0
 271 376 241 362 236 362 c 0
 232 362 227 365 224 369 c 8
 218 378 231 386 237 396 c 24
 260 432 263 438 293 441 c 24
 300 442 306 436 312 440 c 16
 323 449 327 461 327 472 c 0
 327 486 323 501 323 517 c 0x830de0
 323 532 326 532 326 556 c 0
 326 564 325 574 325 582 c 0
1169 534 m 0
 1169 576 1160 587 1140 587 c 0
 1128 587 1120 577 1109 571 c 8
 1093 563 1072 564 1069 546 c 16
 1052 440 1055 337 1046 267 c 0
 1046 266 1046 265 1046 264 c 0
 1046 240 1075 235 1098 223 c 0
 1112 216 1133 199 1145 199 c 0xc109e0
 1163 199 1158 273 1162 364 c 24
 1165 421 1167 453 1168 510 c 16
 1168 522 1169 526 1169 534 c 0
EndSplineSet
Validated: 1
EndChar

StartChar: AE
Encoding: 198 198 66
Width: 885
Flags: HW
LayerCount: 2
Fore
SplineSet
369 433 m 0
 376 433 384 430 390 430 c 0
 394 430 398 431 399 436 c 0
 405 463 450 571 495 651 c 24
 515 687 531 685 565 731 c 0
 569 736 570 739 570 741 c 0
 570 742 569 742 568 742 c 0
 556 742 496 699 464 667 c 8
 426 629 411 600 384 553 c 24
 359 510 332 439 332 436 c 0
 332 432 335 431 341 431 c 0
 348 431 361 433 369 433 c 0
541 187 m 0
 554 270 588 435 608 602 c 24
 613 641 606 665 617 703 c 16
 619 711 621 718 621 721 c 0
 621 724 620 725 618 725 c 0
 605 725 545 633 528 593 c 0
 498 527 489 478 489 416 c 0
 489 401 491 384 492 366 c 0
 495 306 520 171 534 171 c 0
 537 171 539 176 541 187 c 0
649 58 m 0
 671 58 681 68 703 74 c 0
 726 80 743 98 761 98 c 0
 766 98 770 97 775 94 c 0
 779 91 781 87 781 82 c 0
 781 67 767 43 767 43 c 8
 763 33 762 24 753 18 c 16
 728 1 706 0 679 0 c 0
 677 0 674 0 672 0 c 0
 666 0 658 0 651 0 c 0
 641 0 629 0 618 0 c 0
 562 0 506 7 470 46 c 0
 415 105 412 167 412 243 c 0
 412 253 412 263 412 273 c 0
 412 276 411 281 411 285 c 0
 411 301 415 318 415 332 c 0
 415 346 410 356 396 359 c 0
 373 363 352 377 327 377 c 0
 319 377 309 376 301 372 c 8
 262 353 256 320 233 283 c 24
 195 222 178 178 144 120 c 0
 142 117 142 116 142 114 c 0
 142 111 145 110 150 110 c 0
 163 110 190 118 210 118 c 0
 214 118 218 118 221 117 c 8
 251 107 262 88 292 80 c 16
 311 75 326 73 342 73 c 0
 351 73 361 74 372 74 c 0
 388 74 404 86 417 86 c 0
 422 86 426 85 430 80 c 0
 433 76 434 72 434 68 c 0
 434 57 424 44 415 34 c 8
 391 8 366 7 332 0 c 16
 317 -3 303 -4 292 -4 c 0
 246 -4 226 17 203 25 c 0
 181 33 169 43 147 43 c 0
 146 43 145 43 144 43 c 8
 108 43 94 13 58 7 c 16
 47 5 29 0 19 0 c 0
 14 0 12 0 12 4 c 0
 12 4 38 99 71 151 c 16
 175 317 218 408 319 568 c 24
 357 627 369 627 427 713 c 0
 430 717 431 720 431 722 c 0
 431 725 429 726 425 726 c 0
 406 726 346 696 316 682 c 8
 246 648 206 621 160 559 c 16
 124 511 114 477 114 449 c 0
 114 413 132 390 135 372 c 0
 137 359 143 347 143 336 c 0
 143 331 142 324 138 319 c 0
 128 307 114 301 100 301 c 0
 91 301 83 303 74 307 c 8
 40 322 38 353 22 387 c 16
 13 406 0 418 0 437 c 0
 0 440 0 442 0 445 c 8
 0 525 73 549 132 602 c 24
 192 655 232 680 304 716 c 24
 371 749 410 777 485 777 c 16
 487 777 490 777 492 777 c 0
 499 777 504 776 510 776 c 0
 513 776 516 776 519 777 c 0
 542 783 637 791 713 799 c 16
 731 801 740 806 749 806 c 0
 758 806 768 800 790 783 c 0
 804 771 823 766 823 749 c 0
 823 735 809 735 799 728 c 16
 784 718 775 703 758 703 c 0
 757 703 757 703 756 703 c 8
 730 703 732 738 707 746 c 16
 701 748 694 751 688 751 c 0
 683 751 678 748 676 743 c 0
 652 680 645 600 645 507 c 16
 645 494 649 489 655 489 c 0
 667 489 689 510 703 517 c 0
 709 520 731 552 763 552 c 0
 771 552 781 550 790 545 c 8
 814 532 821 517 836 494 c 16
 847 478 860 467 860 449 c 0
 860 447 860 444 860 442 c 8
 860 425 843 419 829 409 c 16
 820 403 813 395 804 395 c 0
 802 395 801 395 799 396 c 8
 779 406 777 425 762 442 c 24
 749 457 745 479 725 479 c 16
 723 479 721 480 719 480 c 0
 701 480 689 466 673 455 c 8
 655 442 637 437 630 415 c 24
 610 353 612 314 605 249 c 16
 600 202 580 163 580 125 c 0
 580 108 584 91 596 74 c 0
 606 60 621 58 638 58 c 0
 640 58 647 58 649 58 c 0
EndSplineSet
Validated: 1
EndChar

StartChar: Oslash
Encoding: 216 216 71
Width: 535
Flags: HW
LayerCount: 2
Fore
SplineSet
284 11 m 0
 248 11 273 53 147 53 c 0
 77 53 78 26 31 0 c 0
 30 -1 28 0 27 0 c 0
 20 0 10 8 10 16 c 0
 10 18 11 21 12 22 c 0
 61 88 95 125 110 164 c 1
 77 121 52 89 43 73 c 0
 40 67 32 65 26 65 c 0
 15 65 5 70 5 72 c 0
 5 84 59 155 120 236 c 1
 115 329 61 346 46 415 c 0
 41 440 37 454 37 471 c 0
 37 486 40 505 47 538 c 0
 71 638 187 732 221 743 c 0
 247 751 276 759 307 759 c 0
 370 759 409 736 434 710 c 1
 442 725 450 741 455 754 c 0
 457 756 459 756 462 756 c 0
 471 756 480 756 489 756 c 0
 497 756 502 755 502 753 c 2
 502 750 l 1
 489 724 475 700 461 675 c 1
 465 668 468 661 470 657 c 0
 497 608 494 572 501 516 c 0
 505 481 508 434 508 387 c 0
 508 243 492 198 427 89 c 0
 423 82 428 75 424 68 c 0
 388 0 319 17 289 12 c 0
 287 12 286 11 284 11 c 0
126 578 m 0
 120 563 118 549 118 536 c 0
 118 510 126 488 135 458 c 0
 149 413 185 385 201 344 c 1
 230 385 l 1
 221 397 211 408 211 420 c 0
 211 424 212 429 215 433 c 0
 233 464 238 465 258 479 c 0
 277 492 292 509 311 509 c 0
 312 509 312 509 313 509 c 2
 379 612 l 1
 371 625 361 639 347 651 c 0
 318 677 292 694 258 694 c 0
 250 694 241 693 233 691 c 0
 174 677 154 652 126 578 c 0
210 297 m 17
 210 270 202 238 183 197 c 0
 149 127 133 129 133 116 c 0
 133 111 141 110 151 110 c 0
 174 110 213 118 241 118 c 0
 256 118 299 113 319 108 c 0
 334 104 347 89 361 89 c 0
 369 89 378 95 387 108 c 0
 404 133 405 151 412 181 c 0
 425 232 429 269 429 310 c 0
 429 340 427 372 424 412 c 0
 421 458 423 484 410 528 c 0
 406 542 401 556 397 568 c 1
 345 487 l 1
 351 477 354 464 359 455 c 0
 364 445 378 397 378 397 c 1
 378 378 348 367 329 353 c 0
 315 343 295 323 284 323 c 0
 281 323 277 325 276 329 c 0
 271 342 262 348 253 356 c 1
 210 297 l 17
EndSplineSet
Validated: 1
EndChar

StartChar: Thorn
Encoding: 222 222 74
Width: 624
Flags: HW
VStem: 144 89<531 627>
LayerCount: 2
Fore
SplineSet
233 627 m 1
 233 535 221 396 221 167 c 0
 221 147 230 139 244 139 c 0
 282 139 358 197 402 230 c 8
 462 274 501 311 519 384 c 16
 525 408 528 430 528 450 c 0
 528 489 518 523 492 562 c 8
 462 607 430 624 375 636 c 1
 363 642 347 644 331 644 c 0
 285 644 233 627 233 627 c 1
28 673 m 0
 26 677 25 681 25 684 c 0
 25 707 70 716 95 734 c 8
 137 765 187 780 212 802 c 0
 214 804 216 805 218 805 c 0
 224 805 225 789 225 773 c 0
 225 769 225 766 225 762 c 0
 225 754 225 746 226 740 c 0
 228 728 229 723 229 714 c 0
 229 702 227 688 227 682 c 0
 227 669 235 665 246 665 c 0
 271 665 315 686 349 686 c 0
 352 686 356 685 359 685 c 8
 429 675 477 677 531 633 c 24
 578 595 604 558 608 498 c 16
 608 493 608 487 608 482 c 0
 608 403 570 356 521 289 c 8
 452 195 306 133 273 113 c 24
 250 99 218 101 218 74 c 16
 218 31 209 22 206 -12 c 24
 203 -41 200 -113 200 -113 c 0
 200 -129 213 -138 224 -151 c 0
 236 -164 261 -161 261 -177 c 0
 261 -196 236 -198 221 -200 c 16
 216 -201 211 -201 206 -201 c 0
 180 -201 161 -191 135 -178 c 8
 112 -166 95 -159 86 -135 c 16
 84 -129 82 -123 82 -118 c 0
 82 -111 84 -104 89 -98 c 8
 96 -88 120 -99 120 -86 c 16
 120 30 145 388 145 596 c 0
 145 643 144 683 141 710 c 0
 140 716 138 718 134 718 c 0
 122 718 97 697 80 691 c 0
 65 686 48 667 37 667 c 0
 34 667 30 669 28 673 c 0
EndSplineSet
Validated: 1
EndChar

StartChar: Ccedilla
Encoding: 199 199 75
Width: 531
Flags: HW
LayerCount: 2
Fore
SplineSet
229 141 m 0
 234 141 249 146 249 162 c 0
 249 170 246 180 246 190 c 0
 246 191 246 193 246 194 c 8
 246 194 263 406 263 436 c 16
 263 533 275 614 275 682 c 0
 275 720 272 728 269 728 c 0
 261 728 240 697 227 685 c 8
 176 639 201 706 179 329 c 24
 176 274 171 236 171 187 c 8
 171 173 185 168 197 160 c 16
 208 153 218 141 229 141 c 0
154 288 m 0
 154 321 172 551 172 617 c 0
 172 620 172 622 171 622 c 0
 168 622 157 591 151 578 c 0
 113 502 103 468 103 427 c 0
 103 402 108 359 108 343 c 0
 108 336 108 329 108 323 c 0
 108 280 142 223 150 223 c 0
 153 223 155 229 155 254 c 0
 155 267 154 275 154 288 c 0
221 29 m 1
 179 34 165 47 129 74 c 0
 83 109 66 143 46 197 c 0
 30 241 26 274 26 313 c 0
 26 497 87 530 154 657 c 0
 183 712 215 734 264 771 c 0
 289 789 306 805 330 805 c 0
 344 805 359 799 381 786 c 0
 409 769 421 753 439 728 c 0
 452 711 464 700 464 678 c 0
 464 664 457 658 449 648 c 0
 443 640 436 628 427 633 c 0
 389 655 377 679 344 707 c 0
 331 718 313 746 305 746 c 0
 289 746 292 593 286 495 c 2
 280 402 l 2
 266 194 264 172 264 169 c 0
 263 158 256 149 256 140 c 0
 256 109 324 105 352 105 c 0
 398 105 430 125 464 144 c 0
 481 154 491 181 505 181 c 0
 508 181 520 178 520 166 c 0
 520 156 511 142 504 132 c 0
 463 74 412 67 344 43 c 0
 317 34 299 27 273 27 c 1
 274 10 275 -5 275 -15 c 0
 275 -39 270 -48 255 -67 c 0
 239 -90 184 -119 171 -119 c 0
 169 -119 168 -118 168 -117 c 0
 168 -116 169 -113 172 -110 c 0
 200 -79 208 -87 218 -63 c 0
 223 -52 224 -41 224 -31 c 0
 224 -15 221 2 221 18 c 0
 221 21 221 26 221 29 c 1
EndSplineSet
Validated: 1
EndChar

StartChar: ae
Encoding: 230 230 76
Width: 529
Flags: HW
LayerCount: 2
Fore
SplineSet
283 240 m 0
 283 235 285 231 288 231 c 0
 301 231 337 271 359 289 c 0
 383 309 412 319 412 350 c 0
 412 362 400 366 391 374 c 24
 383 380 375 395 369 387 c 16
 354 369 344 370 329 358 c 24
 312 345 318 338 287 323 c 0
 281 320 279 309 279 296 c 0
 279 278 283 253 283 240 c 0
178 95 m 16
 181 99 181 104 181 108 c 0
 181 118 175 128 175 141 c 0
 175 153 180 165 180 175 c 0
 180 181 178 186 172 190 c 0
 170 192 167 193 165 193 c 0
 158 193 149 185 141 181 c 8
 128 174 116 171 111 157 c 16
 110 154 109 150 109 147 c 0
 109 138 114 130 117 120 c 8
 121 103 116 84 132 77 c 24
 140 73 146 83 154 86 c 24
 163 90 173 87 178 95 c 16
439 95 m 16
 440 92 440 90 440 87 c 0
 440 73 427 61 415 49 c 0
 381 15 326 0 278 0 c 0
 253 0 230 3 215 11 c 8
 200 19 200 39 184 43 c 16
 181 44 177 44 174 44 c 0
 151 44 138 25 113 15 c 0
 102 10 95 0 84 0 c 0
 83 0 81 0 80 0 c 8
 50 7 40 32 31 61 c 16
 26 77 20 94 20 109 c 0
 20 121 24 133 34 144 c 0
 65 178 63 178 86 194 c 24
 119 218 155 209 178 243 c 16
 186 255 188 267 188 279 c 0
 188 292 186 304 186 319 c 0
 186 322 186 326 186 329 c 0
 187 341 191 350 191 360 c 0
 191 364 190 370 188 375 c 0
 181 392 168 406 155 406 c 0
 146 406 135 399 126 384 c 8
 108 353 136 275 71 255 c 16
 63 252 54 250 46 250 c 0
 37 250 28 253 22 261 c 0
 17 267 14 274 14 280 c 0
 14 295 26 313 28 332 c 0
 28 335 28 337 28 340 c 0
 28 346 28 352 28 357 c 0
 28 365 29 373 34 381 c 8
 53 411 79 413 111 427 c 16
 144 442 163 458 198 458 c 0
 199 458 201 458 203 458 c 8
 228 457 239 444 261 433 c 24
 272 427 282 425 289 415 c 16
 289 414 290 414 290 413 c 0
 290 409 283 404 283 400 c 0
 283 397 285 395 295 393 c 0
 297 392 299 392 301 392 c 0
 317 392 328 408 344 416 c 0
 372 430 382 456 412 456 c 0
 413 456 414 456 415 456 c 8
 446 454 458 433 480 410 c 16
 492 397 514 383 514 370 c 0
 514 367 513 362 510 359 c 0
 467 316 434 295 384 255 c 24
 342 221 295 221 273 172 c 16
 269 162 267 151 267 141 c 0
 267 101 298 65 340 65 c 0
 341 65 343 65 344 65 c 8
 366 66 371 86 390 95 c 24
 400 100 407 104 418 104 c 24
 427 104 436 103 439 95 c 16
EndSplineSet
Validated: 1
EndChar

StartChar: multiply
Encoding: 215 215 92
Width: 268
Flags: HW
LayerCount: 2
Fore
SplineSet
168 530 m 0
 141 520 130 496 130 468 c 0
 130 459 132 449 134 440 c 0
 142 409 199 420 199 390 c 0
 199 377 185 377 173 374 c 16
 170 373 168 374 165 374 c 0
 150 374 136 383 122 383 c 0
 118 383 114 382 110 380 c 8
 92 371 98 352 56 303 c 0
 48 293 23 281 14 281 c 0
 12 281 11 282 11 283 c 0
 11 284 11 285 12 287 c 2
 50 343 l 18
 57 353 92 387 92 437 c 0
 92 451 89 467 82 484 c 0
 72 509 45 500 45 505 c 0
 45 506 45 506 46 507 c 0
 54 519 62 537 79 541 c 16
 80 541 82 541 83 541 c 0
 96 541 104 524 118 524 c 0
 119 524 120 524 121 524 c 8
 138 527 141 544 155 553 c 16
 161 557 189 578 211 578 c 0
 215 578 219 577 222 575 c 0
 233 570 243 561 243 549 c 0
 243 542 238 532 229 522 c 0
 220 513 214 510 208 510 c 0
 193 510 184 531 172 531 c 0
 171 531 170 531 168 530 c 0
EndSplineSet
Validated: 1
EndChar

StartChar: braceleft
Encoding: 123 123 93
Width: 259
Flags: HW
VStem: 106 61<191 276 522 554>
LayerCount: 2
Fore
SplineSet
249 768 m 0
 252 767 253 766 253 764 c 0
 253 758 243 748 240 740 c 8
 235 726 235 715 223 706 c 16
 212 698 169 707 169 691 c 0
 169 681 170 650 170 588 c 0
 170 565 170 544 170 522 c 0
 170 483 124 445 69 393 c 0
 66 390 63 386 63 383 c 0
 63 353 168 309 168 276 c 0
 168 263 168 245 168 212 c 0
 168 184 168 158 169 131 c 8
 169 122 181 123 189 121 c 16
 192 120 196 120 198 120 c 0
 210 120 220 126 230 126 c 0
 235 126 241 124 245 119 c 0
 247 116 248 113 248 110 c 0
 248 101 241 91 237 80 c 8
 232 64 231 49 217 40 c 16
 206 33 195 29 184 29 c 0
 175 29 166 32 156 36 c 8
 134 45 131 63 119 83 c 16
 112 95 106 156 106 252 c 0
 106 263 106 268 106 270 c 0
 106 306 3 352 3 379 c 0
 3 382 5 385 7 387 c 0
 62 439 108 481 108 522 c 0
 108 599 123 623 131 713 c 8
 134 748 166 760 200 771 c 16
 208 774 214 775 220 775 c 0
 228 775 237 773 249 768 c 0
EndSplineSet
Validated: 1
EndChar

StartChar: eth
Encoding: 240 240 96
Width: 472
Flags: HW
VStem: 89 104<208 248>
LayerCount: 2
Fore
SplineSet
224 153 m 0
 249 117 277 104 295 104 c 0
 302 104 309 107 313 110 c 8
 342 133 340 162 344 199 c 16
 346 215 347 230 347 243 c 0
 347 272 342 297 327 328 c 8
 314 355 303 379 273 382 c 16
 272 382 271 382 270 382 c 0
 251 382 239 365 227 349 c 0
 204 319 193 285 193 249 c 0
 193 217 202 184 224 153 c 0
268 804 m 0
 283 804 309 797 309 787 c 0
 309 785 308 784 307 782 c 0
 282 751 277 758 275 735 c 16
 274 726 273 719 273 712 c 0
 273 685 280 668 281 635 c 0
 281 630 283 628 286 628 c 0
 297 628 324 651 341 659 c 8
 374 674 389 690 424 702 c 24
 433 705 446 705 449 696 c 16
 450 693 450 691 450 688 c 0
 450 657 402 651 372 629 c 8
 350 614 348 613 311 595 c 0
 300 590 296 582 296 574 c 0
 296 547 340 508 362 475 c 8
 403 413 429 374 442 300 c 16
 445 283 446 266 446 252 c 0
 446 212 437 178 420 134 c 8
 406 97 393 76 362 51 c 16
 327 23 301 0 260 0 c 0
 255 0 251 -1 246 0 c 8
 201 9 179 36 151 73 c 24
 116 119 89 150 89 208 c 24
 89 266 120 294 151 343 c 24
 174 379 195 392 224 423 c 24
 232 431 242 433 246 444 c 16
 247 447 247 451 247 453 c 0
 247 470 233 482 223 498 c 8
 212 515 207 537 187 537 c 16
 186 537 185 537 184 537 c 0
 173 537 169 524 157 521 c 0
 143 517 127 509 115 509 c 0
 109 509 102 511 98 518 c 0
 96 521 95 523 95 526 c 0
 95 537 110 548 120 558 c 8
 139 577 169 567 183 591 c 16
 186 596 187 600 187 605 c 0
 187 619 178 638 178 675 c 0
 178 680 178 682 178 683 c 0
 178 688 176 690 173 690 c 0
 162 690 135 661 117 653 c 8
 86 640 71 620 37 620 c 16
 34 620 30 620 26 620 c 0
 14 620 0 621 0 626 c 0
 0 627 -2 628 0 629 c 0
 43 666 49 661 80 683 c 24
 124 714 149 732 194 761 c 24
 223 779 234 803 268 804 c 0
EndSplineSet
Validated: 1
EndChar

StartChar: thorn
Encoding: 254 254 99
Width: 458
Flags: HW
VStem: 92 85<77 471>
LayerCount: 2
Fore
SplineSet
177 233 m 0
 177 219 181 213 188 213 c 0
 211 213 259 267 286 292 c 8
 318 321 332 343 347 384 c 16
 350 393 361 413 361 438 c 0
 361 468 345 502 283 522 c 0
 277 524 270 525 265 525 c 0
 256 525 248 522 237 519 c 8
 170 499 181 534 178 338 c 24
 177 297 177 261 177 233 c 0
-15 -197 m 0
 -23 -193 -25 -185 -25 -177 c 0
 -25 -172 -25 -167 -25 -162 c 0
 -25 -159 -25 -160 -25 -155 c 0
 -25 -115 -8 -115 28 -89 c 8
 52 -73 88 -78 90 -49 c 16
 93 -2 94 39 94 78 c 0
 94 139 92 196 92 268 c 0
 92 279 92 292 92 304 c 0
 95 536 100 623 100 666 c 0
 100 682 99 692 97 702 c 0
 96 705 95 707 94 707 c 0
 89 707 77 682 65 679 c 0
 63 678 59 678 56 678 c 0
 47 678 18 682 18 700 c 0
 18 728 47 739 71 756 c 0
 105 781 129 810 166 810 c 0
 172 810 178 810 184 808 c 8
 198 804 203 788 203 779 c 0
 203 760 183 750 181 728 c 0
 177 692 176 656 176 623 c 0
 176 600 177 578 178 562 c 0
 179 553 183 550 190 550 c 0
 205 550 235 566 255 568 c 0
 283 570 303 583 326 583 c 0
 334 583 341 581 350 578 c 8
 406 554 445 518 452 458 c 16
 453 453 453 446 453 441 c 0
 453 385 414 351 375 304 c 8
 319 235 277 215 194 166 c 0
 170 152 167 130 167 104 c 0
 167 95 167 86 167 76 c 0
 167 68 167 60 166 52 c 0
 166 48 165 45 165 42 c 0
 165 26 170 11 170 -3 c 0
 170 -10 169 -17 166 -25 c 8
 149 -73 118 -89 83 -126 c 24
 63 -148 53 -161 28 -177 c 16
 16 -185 5 -199 -7 -199 c 0
 -10 -199 -12 -198 -15 -197 c 0
EndSplineSet
Validated: 1
EndChar

StartChar: cedilla
Encoding: 184 184 100
Width: 541
Flags: HW
LayerCount: 2
Fore
SplineSet
236 39 m 0
 236 43 238 44 241 44 c 0
 247 44 256 39 263 39 c 0
 269 39 277 41 282 41 c 0
 286 41 288 40 288 36 c 0
 289 19 290 6 290 -4 c 0
 290 -28 284 -36 269 -55 c 1
 253 -78 198 -108 185 -108 c 0
 183 -108 182 -106 182 -105 c 0
 182 -104 183 -101 186 -98 c 0
 214 -67 222 -76 232 -52 c 16
 237 -41 239 -29 239 -19 c 0
 239 -3 236 14 236 30 c 0
 236 33 236 36 236 39 c 0
EndSplineSet
Validated: 1
EndChar

StartChar: Lslash
Encoding: 321 321 104
Width: 563
Flags: HW
VStem: 151 92<170 267 322 391> 177 69<524 710> 312 40<173 475 619 804>
LayerCount: 2
Fore
SplineSet
465 86 m 8
 503 89 516 150 539 150 c 0
 543 150 546 148 550 144 c 0
 555 139 557 134 557 129 c 0
 557 109 524 87 504 68 c 0
 480 44 420 22 398 22 c 0
 397 22 396 22 396 22 c 0
 367 24 354 36 329 49 c 0
 300 64 292 98 260 98 c 0
 259 98 259 98 258 98 c 0
 233 97 229 72 209 58 c 0
 209 58 170 28 146 28 c 0
 142 28 138 29 135 31 c 0
 132 33 131 38 131 42 c 0
 131 50 135 61 135 67 c 0
 135 70 133 71 131 71 c 0
 130 71 130 71 129 71 c 0
 77 56 79 30 18 12 c 0x60
 15 11 12 11 11 11 c 1
 11 17 56 52 74 68 c 0
 98 90 121 92 135 120 c 0
 149 148 154 172 154 198 c 0
 154 220 151 241 151 267 c 1xa0
 138 248 126 228 116 203 c 0
 101 166 22 121 0 121 c 0
 -4 121 -3 122 -3 125 c 0
 -3 127 -3 131 0 135 c 0
 46 203 67 228 106 289 c 0
 120 312 137 334 153 357 c 1
 153 366 153 376 153 385 c 0
 153 414 152 440 151 455 c 0
 151 457 149 458 148 458 c 0
 144 458 134 440 126 436 c 0
 111 428 94 412 82 412 c 0
 78 412 74 413 71 418 c 0
 68 422 67 426 67 429 c 0
 67 447 103 460 120 479 c 0
 136 497 155 500 166 522 c 0
 180 550 185 721 185 721 c 0
 185 725 183 727 181 727 c 0
 171 727 145 699 128 691 c 0
 103 680 80 646 62 646 c 0
 57 646 52 648 48 654 c 0
 45 658 44 663 44 667 c 0
 44 686 82 701 104 718 c 0
 146 752 173 760 217 786 c 0
 228 793 245 813 252 813 c 0
 254 813 256 812 256 808 c 0
 259 776 260 763 260 752 c 0
 260 724 253 714 246 481 c 1
 312 568 l 1
 313 779 318 805 336 805 c 0
 337 805 339 805 341 805 c 0
 353 803 356 793 356 782 c 0
 356 770 352 753 352 740 c 0
 352 728 352 717 352 706 c 0
 352 676 352 648 352 620 c 1
 369 643 384 659 411 679 c 0
 435 697 476 724 490 724 c 0
 493 724 496 723 496 720 c 0
 496 718 495 716 494 713 c 0
 466 655 449 642 415 599 c 2
 352 522 l 1
 351 472 350 437 350 399 c 0
 350 374 350 348 351 316 c 0
 351 311 351 306 351 301 c 0
 351 275 350 252 350 229 c 0
 350 203 352 180 359 154 c 0
 364 137 387 147 402 138 c 0
 429 124 433 86 462 86 c 0
 463 86 464 86 465 86 c 8
269 170 m 0
 275 170 284 166 288 166 c 0
 290 166 291 167 292 169 c 0
 310 223 312 352 312 424 c 0
 312 455 312 475 312 475 c 2
 244 391 l 1
 244 355 244 324 243 280 c 0
 243 245 232 217 232 189 c 0
 232 183 232 178 233 172 c 0
 234 167 238 165 242 165 c 0
 249 165 260 170 269 170 c 0
EndSplineSet
Validated: 1
EndChar

StartChar: Scedilla
Encoding: 350 350 108
Width: 557
Flags: HW
LayerCount: 2
Fore
SplineSet
16 151 m 0
 16 160 40 210 67 210 c 0
 108 210 173 162 218 144 c 0
 231 139 312 97 362 97 c 0
 373 97 383 99 390 104 c 0
 436 137 429 185 442 240 c 0
 450 272 452 290 452 323 c 0
 452 338 456 352 456 364 c 0
 456 392 423 423 361 423 c 0
 337 423 314 420 288 420 c 0
 274 420 258 421 243 424 c 0
 195 434 162 431 120 458 c 0
 95 473 71 484 71 513 c 0
 71 538 68 560 68 582 c 0
 68 624 78 666 137 737 c 0
 180 789 219 810 239 810 c 0
 266 810 287 783 319 773 c 0
 367 758 392 735 442 735 c 2
 444 735 l 2
 504 735 550 769 560 769 c 0
 561 769 562 768 562 767 c 0
 562 757 479 659 394 659 c 0
 343 659 306 693 267 710 c 0
 241 721 229 743 204 743 c 0
 162 743 138 693 138 652 c 0
 138 613 157 571 203 541 c 0
 257 506 300 514 362 498 c 0
 411 486 447 497 488 467 c 0
 520 443 530 411 530 379 c 0
 530 334 511 290 506 267 c 0
 494 213 482 181 467 129 c 1
 468 129 470 128 471 128 c 0
 483 128 499 143 507 143 c 0
 510 143 512 142 513 138 c 1
 498 101 478 84 445 61 c 0
 401 30 360 19 325 17 c 1
 325 16 325 16 325 15 c 0
 326 -2 327 -15 327 -25 c 0
 327 -49 321 -57 306 -76 c 0
 290 -99 235 -128 222 -128 c 0
 220 -128 219 -127 219 -126 c 0
 219 -125 220 -122 223 -119 c 0
 251 -88 259 -97 269 -73 c 0
 274 -62 275 -50 275 -40 c 0
 275 -24 272 -7 272 9 c 0
 272 12 272 15 272 18 c 0
 272 19 273 21 273 22 c 1
 226 29 149 48 98 83 c 0
 67 105 16 123 16 151 c 0
EndSplineSet
Validated: 1
EndChar

StartChar: aogonek
Encoding: 261 261 114
Width: 307
Flags: HW
LayerCount: 2
Fore
SplineSet
119 81 m 0
 127 81 139 91 148 95 c 8
 163 101 181 104 182 120 c 16
 185 154 186 161 186 179 c 0
 186 186 186 189 186 191 c 0
 186 199 188 207 188 214 c 0
 188 226 178 230 173 230 c 0
 162 230 151 219 139 212 c 0
 125 203 105 198 105 182 c 0
 105 179 106 177 106 165 c 0
 106 153 104 139 104 126 c 0
 104 107 108 81 119 81 c 0
168 439 m 0
 184 439 193 430 206 421 c 0
 235 401 253 392 253 343 c 0
 253 330 251 317 251 302 c 0
 251 294 251 294 251 283 c 0
 251 259 250 228 250 198 c 0
 250 171 251 146 256 132 c 0
 262 117 298 83 298 53 c 0
 298 31 281 28 267 19 c 1
 267 17 l 2
 267 1 264 -16 264 -32 c 0
 264 -42 265 -54 270 -65 c 0
 280 -89 288 -80 316 -111 c 0
 319 -114 321 -117 321 -118 c 0
 321 -119 319 -120 317 -120 c 0
 304 -120 249 -91 233 -68 c 0
 218 -49 213 -40 213 -16 c 0
 213 -9 213 -2 214 8 c 1
 209 14 206 23 201 31 c 0
 193 43 198 72 189 72 c 0
 183 72 151 49 124 39 c 0
 97 29 63 0 43 0 c 0
 30 0 22 10 22 85 c 0
 22 108 23 135 26 170 c 0
 29 208 73 205 102 231 c 0
 135 260 184 268 184 308 c 0
 184 318 172 356 111 356 c 0
 87 356 66 338 48 315 c 0
 44 310 43 303 43 296 c 0
 43 284 44 273 30 273 c 0
 14 273 3 295 3 311 c 0
 3 325 15 332 25 343 c 0
 51 371 67 382 99 404 c 0
 124 420 138 439 168 439 c 0
EndSplineSet
Validated: 1
EndChar

StartChar: lslash
Encoding: 322 322 115
Width: 225
Flags: HW
VStem: 70 84<88 283 377 403>
LayerCount: 2
Fore
SplineSet
25 264 m 0
 25 321 37 326 70 377 c 1
 70 385 70 393 70 402 c 0
 70 470 71 517 71 570 c 0
 71 638 70 672 70 683 c 0
 70 694 73 707 73 717 c 0
 73 726 70 733 61 737 c 0
 55 740 53 730 46 728 c 0
 37 726 20 723 9 723 c 0
 2 723 0 724 0 727 c 0
 0 728 -2 729 0 731 c 0
 25 756 15 758 31 768 c 0
 63 787 88 799 120 799 c 0
 129 799 140 798 151 796 c 0
 170 792 182 782 190 765 c 0
 193 760 195 752 195 746 c 0
 195 715 168 678 163 667 c 1
 162 647 162 627 162 609 c 0
 162 573 163 541 164 508 c 1
 172 516 l 1
 184 527 210 557 220 557 c 0
 223 557 225 555 225 550 c 0
 225 547 225 544 225 541 c 0
 225 495 212 479 175 424 c 1
 162 403 l 1
 161 393 160 383 159 372 c 1
 157 264 154 193 154 95 c 0
 154 82 166 66 166 49 c 0
 166 38 160 25 141 12 c 0
 127 2 113 0 102 0 c 0
 76 0 59 19 49 25 c 0
 30 36 0 31 0 55 c 0
 0 69 20 68 31 77 c 0
 46 90 65 94 67 114 c 0
 71 162 72 200 72 237 c 0
 72 252 71 268 71 283 c 1
 54 270 38 260 30 260 c 0
 27 260 25 261 25 264 c 0
EndSplineSet
Validated: 1
EndChar

StartChar: Tbar
Encoding: 358 358 121
Width: 572
Flags: HW
HStem: 475 41<10 319>
VStem: 258 26<158 307> 258 29<307 474>
LayerCount: 2
Fore
SplineSet
177 749 m 0
 146 749 127 733 98 721 c 0
 72 710 21 683 10 683 c 0
 9 683 8 683 8 684 c 0
 8 685 9 688 12 691 c 0
 52 734 56 732 89 752 c 0
 128 776 187 810 256 810 c 0
 266 810 276 809 286 808 c 0
 323 803 351 801 375 771 c 0
 381 764 406 726 460 726 c 0
 493 726 518 750 561 750 c 0
 565 750 566 749 566 748 c 0
 566 741 521 718 501 707 c 0
 422 663 379 656 342 656 c 0
 328 656 315 657 301 657 c 0
 298 657 295 657 292 657 c 1
 289 634 289 615 289 599 c 0
 289 574 290 555 290 532 c 0
 290 527 290 522 290 517 c 1
 317 517 339 517 356 516 c 0
 359 516 360 515 360 513 c 0
 360 508 350 496 347 488 c 0
 345 483 347 475 342 475 c 0
 333 475 324 476 286 476 c 1
 286 473 l 1
 286 398 287 343 287 302 c 0
 287 143 284 185 284 74 c 0
 284 60 292 55 305 55 c 0
 324 55 353 66 375 68 c 0
 410 72 523 118 535 118 c 0
 537 118 539 118 539 116 c 0
 539 114 538 112 535 108 c 0
 495 57 449 48 387 34 c 0
 331 22 284 8 237 8 c 0
 199 8 162 16 123 40 c 0
 50 83 30 144 15 227 c 0
 12 244 10 261 10 276 c 0
 10 324 26 365 46 418 c 0
 54 440 64 458 73 475 c 1
 36 475 10 475 10 475 c 0
 8 475 7 477 7 478 c 0
 7 482 13 491 16 496 c 0
 25 514 21 517 48 517 c 0
 59 517 73 516 97 516 c 1
 114 542 135 566 160 596 c 0
 195 638 281 687 281 720 c 0
 281 748 197 749 177 749 c 0
252 92 m 0
 257 149 258 204 258 265 c 0
 258 307 258 352 258 402 c 0
 258 429 258 453 258 476 c 1
 245 476 230 476 212 476 c 0
 187 476 161 476 136 476 c 1
 109 418 103 353 103 313 c 0
 103 224 140 174 160 151 c 0
 182 126 223 79 242 79 c 0
 247 79 251 83 252 92 c 0
159 516 m 1
 194 516 227 517 259 517 c 1
 260 573 262 607 262 617 c 0
 262 627 259 632 255 632 c 0
 237 632 188 560 159 516 c 1
EndSplineSet
Validated: 1
EndChar

StartChar: tbar
Encoding: 359 359 122
Width: 267
Flags: HW
HStem: 255 41<14 190>
LayerCount: 2
Fore
SplineSet
256 141 m 0
 222 89 235 91 208 71 c 0
 166 38 123 28 80 22 c 0
 79 22 78 22 77 22 c 0
 60 22 58 50 58 68 c 2
 58 206 l 2
 58 223 58 241 58 256 c 1
 23 256 -4 255 -4 255 c 0
 -6 255 -7 257 -7 258 c 0
 -7 262 -3 270 0 275 c 0
 4 284 7 296 16 296 c 2
 57 296 l 1
 57 303 57 310 57 317 c 0
 57 356 58 362 58 367 c 0
 58 373 54 374 48 374 c 0
 39 374 24 370 14 370 c 0
 7 370 2 372 0 378 c 0
 -1 380 0 383 0 385 c 0
 0 412 48 410 68 436 c 0
 83 455 67 451 98 494 c 0
 106 505 122 515 134 515 c 0
 139 515 144 513 146 507 c 0
 148 503 150 498 150 493 c 0
 150 483 146 472 146 462 c 0
 146 455 148 447 154 441 c 0
 162 432 172 439 183 435 c 0
 199 429 220 432 220 413 c 0
 220 397 197 394 183 383 c 0
 173 375 167 372 156 365 c 0
 140 354 136 333 136 308 c 0
 136 304 136 300 136 296 c 1
 162 296 188 296 206 296 c 0
 215 296 222 296 226 296 c 0
 229 296 230 295 230 293 c 0
 230 288 220 276 217 268 c 0
 215 263 217 255 212 255 c 0
 204 255 194 256 137 256 c 1
 137 255 137 253 137 252 c 0
 137 248 137 244 137 240 c 0
 136 221 135 201 135 183 c 0
 135 152 137 125 143 108 c 0
 145 102 150 99 154 99 c 0
 167 99 188 118 205 123 c 0
 220 128 249 146 256 146 c 0
 257 146 258 146 258 145 c 0
 258 144 257 143 256 141 c 0
EndSplineSet
Validated: 1
EndChar

StartChar: Eogonek
Encoding: 280 280 129
Width: 713
Flags: HW
VStem: 432 41<424 452>
LayerCount: 2
Fore
SplineSet
301 231 m 0
 301 261 302 335 302 605 c 1
 301 620 301 633 301 643 c 0
 301 663 302 680 302 713 c 0
 302 731 296 738 286 738 c 0
 250 738 163 642 135 584 c 0
 119 549 113 501 113 452 c 0
 113 396 120 339 129 302 c 0
 137 267 178 191 212 160 c 0
 223 150 233 133 245 133 c 0
 247 133 250 134 252 135 c 0
 291 151 302 157 302 188 c 0
 302 201 301 205 301 231 c 0
329 675 m 0
 329 664 330 652 330 642 c 0
 330 630 327 619 327 583 c 0
 327 541 330 495 330 449 c 0
 330 415 328 366 328 283 c 0
 328 217 330 185 330 174 c 0
 330 157 328 144 328 134 c 0
 328 99 358 78 388 78 c 0
 401 78 413 83 415 95 c 0
 421 132 428 123 431 184 c 0
 431 190 433 397 433 531 c 0
 433 630 431 644 431 656 c 0
 431 673 433 682 433 692 c 0
 433 701 432 712 425 731 c 0
 422 740 402 748 383 748 c 0
 340 748 329 708 329 675 c 0
584 633 m 0
 538 633 517 740 492 740 c 0
 483 740 469 722 469 695 c 0
 469 685 471 673 471 659 c 0
 471 629 466 630 466 586 c 0
 466 537 473 487 473 452 c 0
 473 440 479 435 488 435 c 0
 505 435 536 450 560 450 c 0
 591 450 603 412 628 412 c 0
 645 412 663 425 673 425 c 0
 681 425 683 415 683 408 c 0
 683 369 623 359 609 359 c 0
 584 359 577 385 553 393 c 0
 533 400 507 418 490 418 c 0
 472 418 460 396 460 293 c 0
 460 277 460 260 460 246 c 0
 460 209 457 182 457 154 c 0
 457 117 467 52 504 52 c 0
 541 52 596 105 628 105 c 0
 646 105 650 86 650 79 c 0
 650 50 597 44 562 34 c 0
 535 26 512 18 489 14 c 1
 489 -1 486 -16 486 -31 c 0
 486 -41 488 -52 493 -63 c 0
 503 -87 511 -79 539 -110 c 0
 542 -113 543 -116 543 -117 c 0
 543 -118 542 -119 540 -119 c 0
 527 -119 472 -90 456 -67 c 0
 441 -48 435 -39 435 -15 c 0
 435 -9 435 -1 436 8 c 1
 430 8 423 7 417 7 c 0
 382 7 346 13 304 25 c 0
 194 57 116 89 65 190 c 0
 29 261 8 331 8 400 c 0
 8 470 30 537 80 599 c 0
 169 710 218 780 347 805 c 0
 377 810 403 813 429 813 c 0
 507 813 571 786 645 719 c 0
 648 716 650 711 650 706 c 0
 650 680 617 633 584 633 c 0
EndSplineSet
Validated: 1
EndChar

StartChar: Dcroat
Encoding: 272 272 132
Width: 504
Flags: HW
LayerCount: 2
Fore
SplineSet
200 108 m 0
 268 77 312 61 373 61 c 0
 378 61 384 61 390 61 c 8
 404 62 405 79 409 92 c 16
 413 105 414 116 414 127 c 0
 414 138 413 151 412 166 c 8
 408 242 396 249 362 304 c 24
 335 348 307 395 240 445 c 16
 214 464 199 493 170 493 c 0
 167 493 163 493 160 492 c 8
 144 489 140 473 135 458 c 16
 131 445 129 432 129 421 c 0
 129 404 132 387 132 367 c 0
 132 360 132 356 132 355 c 0
 132 349 224 351 224 347 c 0
 224 345 216 335 211 328 c 0
 207 322 205 316 190 313 c 0
 181 311 172 311 165 311 c 0
 148 311 136 314 131 314 c 0
 129 314 128 313 128 312 c 8
 124 270 114 206 114 101 c 0
 114 98 115 97 117 97 c 0
 123 97 137 110 147 111 c 0
 157 112 166 113 174 113 c 0
 182 113 191 112 200 108 c 0
166 779 m 0
 166 768 147 770 141 759 c 8
 126 730 129 709 126 676 c 16
 125 664 123 653 123 644 c 0
 123 636 124 629 129 621 c 8
 187 527 287 542 369 467 c 24
 424 417 448 368 475 306 c 0
 485 282 487 264 487 244 c 0
 487 227 485 209 485 187 c 0
 485 186 485 184 485 183 c 0
 485 166 486 151 486 137 c 0
 486 118 484 99 473 77 c 8
 443 20 384 12 319 12 c 16
 318 12 318 12 317 12 c 0
 247 12 171 51 138 55 c 0
 129 56 121 57 113 57 c 0
 71 57 46 41 12 25 c 0
 11 25 11 24 10 24 c 0
 8 24 7 26 7 29 c 0
 7 36 11 48 15 55 c 8
 32 85 81 74 86 108 c 16
 95 173 90 202 93 261 c 24
 94 281 95 294 96 314 c 1
 96 316 90 317 82 317 c 0
 66 317 38 314 26 314 c 0
 22 314 20 314 20 315 c 0
 20 320 26 349 41 358 c 0
 43 359 47 360 51 360 c 0
 64 360 84 356 92 356 c 0
 94 356 96 356 96 357 c 1
 96 376 95 395 95 409 c 0
 95 470 98 485 98 493 c 0
 98 497 97 500 95 507 c 0
 89 525 49 552 49 584 c 0
 49 673 60 756 141 796 c 16
 143 797 144 797 146 797 c 0
 155 797 165 788 166 779 c 0
EndSplineSet
Validated: 1
EndChar

StartChar: Tcedilla
Encoding: 354 354 139
Width: 572
Flags: HW
VStem: 258 26<158 307> 258 29<307 474>
LayerCount: 2
Fore
SplineSet
252 92 m 0
 257 149 258 204 258 265 c 0
 258 307 258 352 258 402 c 0
 258 528 262 601 262 617 c 0
 262 627 259 632 255 632 c 0
 235 632 177 546 151 504 c 0
 112 441 103 359 103 313 c 0
 103 224 140 174 160 151 c 0
 182 126 223 79 242 79 c 0
 247 79 251 83 252 92 c 0
177 749 m 0
 146 749 127 733 98 721 c 0
 72 710 21 683 10 683 c 0
 9 683 8 683 8 684 c 0
 8 685 9 688 12 691 c 0
 52 734 56 732 89 752 c 0
 128 776 187 810 256 810 c 0
 266 810 276 809 286 808 c 0
 323 803 351 801 375 771 c 0
 381 764 406 726 460 726 c 0
 493 726 518 750 561 750 c 0
 565 750 566 749 566 748 c 0
 566 741 521 718 501 707 c 0
 422 663 379 656 342 656 c 0
 328 656 315 657 301 657 c 0
 298 657 295 657 292 657 c 1
 289 634 289 615 289 599 c 0
 289 574 290 555 290 532 c 0
 290 515 289 496 286 473 c 1
 286 398 287 343 287 302 c 0
 287 143 284 185 284 74 c 0
 284 60 292 55 305 55 c 0
 324 55 353 66 375 68 c 0
 410 72 523 118 535 118 c 0
 537 118 539 118 539 116 c 0
 539 114 538 112 535 108 c 0
 495 57 449 48 387 34 c 0
 345 25 308 14 273 10 c 1
 274 9 275 8 275 6 c 0
 276 -11 278 -24 278 -34 c 0
 278 -58 272 -66 257 -85 c 0
 241 -108 186 -137 173 -137 c 0
 171 -137 170 -136 170 -135 c 0
 170 -134 171 -131 174 -128 c 0
 202 -97 210 -106 220 -82 c 0
 225 -71 226 -59 226 -49 c 0
 226 -33 223 -16 223 0 c 2
 223 8 l 1
 190 10 157 20 123 40 c 0
 50 83 30 144 15 227 c 0
 12 244 10 261 10 276 c 0
 10 324 26 365 46 418 c 0
 76 495 108 533 160 596 c 0
 195 638 281 687 281 720 c 0
 281 748 197 749 177 749 c 0
EndSplineSet
Validated: 1
EndChar

StartChar: eogonek
Encoding: 281 281 144
Width: 314
Flags: HW
LayerCount: 2
Fore
SplineSet
114 199 m 0
 142 218 155 223 175 246 c 16
 195 268 218 279 218 308 c 0
 218 334 201 337 181 356 c 0
 161 375 123 414 108 414 c 0
 104 414 101 412 101 406 c 0
 101 402 103 391 103 367 c 0
 103 340 100 320 100 293 c 0
 100 284 100 274 101 264 c 0
 101 261 101 258 101 255 c 0
 101 243 100 228 100 217 c 0
 100 205 103 197 108 197 c 0
 110 197 112 197 114 199 c 0
221 261 m 0
 186 217 157 197 126 154 c 0
 124 151 123 147 123 144 c 0
 123 133 137 123 144 111 c 0
 150 101 156 95 163 86 c 1
 190 86 203 99 221 101 c 1
 241 113 281 150 289 150 c 0
 290 150 291 148 291 147 c 0
 291 146 290 144 289 141 c 0
 255 70 256 90 227 65 c 0
 197 39 177 24 145 11 c 1
 145 9 l 2
 145 -7 142 -24 142 -40 c 0
 142 -50 143 -62 148 -73 c 0
 158 -97 167 -88 195 -119 c 0
 198 -122 199 -125 199 -126 c 0
 199 -127 198 -128 196 -128 c 0
 183 -128 128 -99 112 -76 c 0
 97 -57 91 -49 91 -25 c 0
 91 -17 91 -7 92 4 c 1
 80 11 68 26 55 37 c 0
 19 69 15 48 15 190 c 0
 15 230 15 282 15 353 c 0
 15 387 42 399 68 421 c 0
 100 448 121 470 163 470 c 0
 192 470 204 453 227 436 c 0
 255 414 292 400 292 358 c 0
 292 313 250 298 221 261 c 0
EndSplineSet
Validated: 1
EndChar

StartChar: dcroat
Encoding: 273 273 146
Width: 425
Flags: HW
HStem: 390 73<244 254>
VStem: 84 97<130 186 184 216> 87 97<256 311>
LayerCount: 2
Fore
SplineSet
245 85 m 16xa0
 250 85 254 85 259 85 c 0
 273 85 287 87 298 98 c 8
 326 126 319 158 323 197 c 16
 325 215 326 231 326 246 c 0
 326 272 324 295 321 326 c 8
 319 350 301 358 283 372 c 16
 277 376 262 390 244 390 c 0
 232 390 218 384 204 366 c 0
 187 342 183 312 183 282 c 0
 183 274 184 265 184 257 c 0
 184 256 190 256 198 256 c 0
 212 256 235 257 249 257 c 0
 257 257 263 257 263 256 c 0
 263 247 249 225 248 215 c 1
 182 215 l 1
 181 202 180 180 180 155 c 0
 180 140 180 124 182 108 c 8
 185 82 219 86 245 85 c 16xa0
213 0 m 0
 211 0 208 0 206 0 c 0
 196 0 185 0 175 0 c 0
 133 0 93 4 87 43 c 0xa0
 84 62 83 97 83 134 c 0
 83 183 84 208 84 216 c 0
 84 217 78 217 69 217 c 0
 57 217 41 217 29 217 c 0
 21 217 14 217 14 218 c 0
 14 230 32 242 32 255 c 0
 32 256 36 256 42 256 c 0
 51 256 66 255 76 255 c 0
 82 255 87 256 87 257 c 0
 87 267 87 291 87 304 c 8
 87 341 113 339 145 378 c 0
 148 382 150 384 150 386 c 0
 150 389 145 389 141 389 c 0
 137 389 133 389 129 389 c 0
 127 389 126 389 125 389 c 0
 121 390 117 390 114 390 c 0
 103 390 93 387 81 387 c 0
 79 387 78 387 76 387 c 0
 40 390 -25 391 -25 404 c 0
 -25 405 -25 407 -23 409 c 0
 20 455 32 453 67 482 c 24
 92 502 66 517 131 535 c 0
 132 535 134 536 135 536 c 0
 141 536 142 528 142 520 c 0
 142 510 140 496 140 485 c 0
 140 474 143 465 153 464 c 0
 185 462 200 461 209 461 c 0
 223 461 222 463 244 463 c 8
 290 463 313 463 362 466 c 0
 363 466 364 466 365 466 c 0
 384 466 399 452 402 433 c 0
 410 387 414 350 414 310 c 0
 414 281 412 251 409 215 c 8
 404 163 411 126 381 83 c 24
 357 48 330 42 292 25 c 16
 263 12 246 0 215 0 c 0
 214 0 214 0 213 0 c 0
EndSplineSet
Validated: 1
EndChar

StartChar: uni1E28
Encoding: 7720 7720 175
Width: 695
Flags: HW
VStem: 19 100<519 553> 393 40<402 482> 393 43<482 507>
LayerCount: 2
Fore
SplineSet
194 101 m 0
 192 97 190 94 190 92 c 0
 190 87 196 85 203 85 c 0
 226 85 274 107 298 123 c 0
 307 130 310 136 310 144 c 0
 310 164 285 189 276 209 c 0
 272 217 268 221 264 221 c 0
 242 221 214 137 194 101 c 0
360 341 m 0
 368 341 403 350 403 402 c 0
 403 430 393 454 393 482 c 0
 393 487 389 489 384 489 c 0
 372 489 350 478 350 467 c 0
 350 464 351 464 351 452 c 0
 351 429 346 389 346 365 c 0
 346 352 347 341 360 341 c 0
433 402 m 0
 433 387 438 381 447 381 c 0
 473 381 529 431 581 449 c 0
 591 453 590 466 587 476 c 0
 576 518 551 545 495 545 c 0
 465 545 436 535 436 507 c 0
 436 470 433 442 433 402 c 0
594 372 m 0
 594 389 563 392 552 392 c 0
 532 392 509 385 485 378 c 0
 467 372 479 369 442 351 c 0
 434 347 432 345 432 342 c 0
 432 338 436 331 436 317 c 0
 436 310 435 307 435 304 c 0
 435 299 437 297 440 297 c 0
 451 297 482 323 501 329 c 0
 535 339 565 325 587 353 c 0
 591 358 594 366 594 372 c 0
391 271 m 0
 394 271 394 267 396 267 c 0
 398 267 399 276 399 286 c 0
 399 303 397 326 397 326 c 1
 396 314 356 320 356 302 c 0
 356 292 349 277 349 263 c 0
 349 255 350 254 352 254 c 0
 359 254 383 271 391 271 c 0
376 12 m 1
 376 11 377 10 377 9 c 0
 378 -8 379 -21 379 -31 c 0
 379 -55 373 -63 358 -82 c 0
 342 -105 287 -134 274 -134 c 0
 272 -134 271 -133 271 -132 c 0
 271 -131 272 -128 275 -125 c 0
 303 -94 312 -103 322 -79 c 0
 327 -68 328 -56 328 -46 c 0
 328 -30 325 -13 325 3 c 2
 325 11 l 1
 289 20 269 58 227 58 c 0
 178 58 96 -6 79 -6 c 0
 77 -6 76 -5 76 -3 c 0
 76 -1 77 3 80 9 c 0
 129 104 197 172 237 292 c 0
 262 365 278 416 278 482 c 0
 278 501 276 521 273 544 c 0
 262 630 266 718 184 746 c 0
 178 748 173 750 167 750 c 0
 127 750 90 701 90 656 c 0
 90 612 120 570 120 519 c 1
 6 449 l 1
 6 451 5 453 5 456 c 0
 5 481 19 524 19 553 c 0
 19 594 22 639 22 679 c 1
 53 750 71 768 120 796 c 1
 143 806 188 824 221 824 c 0
 261 824 317 764 319 762 c 0
 393 677 343 537 384 537 c 0
 414 537 480 599 525 599 c 0
 533 599 541 597 547 593 c 0
 595 559 690 522 690 409 c 0
 690 365 675 323 673 270 c 0
 669 165 632 81 632 -4 c 0
 632 -44 640 -85 664 -129 c 0
 678 -156 728 -139 728 -170 c 0
 728 -184 711 -187 697 -190 c 0
 679 -194 661 -198 645 -198 c 0
 589 -198 539 -156 539 -74 c 0
 539 -45 544 -12 544 22 c 0
 544 106 588 163 588 233 c 0
 588 288 567 304 536 304 c 0
 494 304 434 271 399 233 c 0
 379 211 375 179 375 142 c 0
 375 117 377 91 378 65 c 0
 378 60 382 57 388 57 c 0
 394 57 404 59 410 59 c 0
 420 59 421 54 421 48 c 0
 421 26 401 16 376 12 c 1
EndSplineSet
Validated: 1
EndChar

StartChar: uni1E29
Encoding: 7721 7721 176
Width: 346
Flags: HW
LayerCount: 2
Fore
SplineSet
142 -173 m 1
 142 -172 144 -170 147 -166 c 0
 175 -135 184 -144 194 -120 c 16
 199 -109 200 -97 200 -87 c 0
 200 -71 197 -54 197 -38 c 0
 197 -32 197 -29 197 -28 c 0
 197 -24 193 -22 188 -22 c 0
 176 -22 154 -31 145 -31 c 0
 142 -31 140 -30 140 -28 c 0
 140 -27 140 -26 141 -25 c 0
 181 61 246 69 246 250 c 0
 246 272 245 296 243 323 c 8
 240 369 249 381 218 439 c 0
 216 443 214 444 211 444 c 0
 203 444 191 431 178 427 c 8
 153 420 127 413 126 387 c 16
 121 256 120 188 120 144 c 0
 120 121 120 105 120 90 c 0
 120 67 120 46 117 7 c 0
 117 1 111 0 105 0 c 0
 98 0 90 0 82 0 c 0
 79 0 77 1 74 0 c 1
 72 0 70 0 68 0 c 0
 60 0 52 0 45 0 c 0
 39 0 34 1 34 7 c 0
 34 14 35 36 35 80 c 0
 35 138 33 190 31 261 c 0
 30 295 30 326 30 356 c 0
 30 392 30 427 30 464 c 0
 30 494 30 524 29 559 c 0
 29 561 29 563 29 565 c 0
 29 587 32 605 32 622 c 0
 32 633 31 644 27 657 c 8
 18 688 -2 698 -13 728 c 16
 -20 747 -36 785 -36 799 c 0
 -36 803 -34 805 -32 805 c 0
 -31 805 -29 804 -26 802 c 0
 26 767 36 734 80 734 c 0
 82 734 85 734 88 734 c 8
 113 734 114 762 136 774 c 16
 154 784 171 797 188 797 c 0
 191 797 195 797 199 796 c 0
 204 795 206 791 206 788 c 0
 206 776 176 754 166 737 c 8
 153 715 157 707 132 682 c 0
 124 674 121 663 121 652 c 0
 121 638 125 622 125 606 c 0
 125 600 124 593 124 575 c 0
 124 542 127 516 127 485 c 0
 127 466 126 456 126 453 c 0
 126 447 128 445 131 445 c 0
 143 445 177 477 197 488 c 8
 222 501 231 518 258 525 c 16
 270 528 285 536 296 536 c 0
 303 536 308 532 310 525 c 0
 333 460 339 431 339 385 c 0
 339 375 338 363 338 350 c 8
 338 236 328 169 270 68 c 0
 254 39 248 17 248 -12 c 0
 248 -18 249 -25 249 -32 c 0
 250 -49 251 -62 251 -72 c 0
 251 -96 245 -104 230 -123 c 1
 204 -136 149 -173 142 -173 c 1
EndSplineSet
Validated: 1
EndChar

StartChar: uni1E96
Encoding: 7830 7830 285
Width: 346
Flags: HW
HStem: -174 41<61 282>
LayerCount: 2
Fore
SplineSet
44 -123 m 0
 53 -105 48 -101 77 -101 c 0
 84 -101 92 -101 103 -101 c 1
 106 -96 111 -92 114 -86 c 0
 163 -5 203 36 230 126 c 0
 242 169 247 203 247 239 c 0
 247 265 245 291 243 323 c 0
 240 369 249 381 218 439 c 0
 216 443 214 444 211 444 c 0
 203 444 191 431 178 427 c 0
 153 419 127 413 126 387 c 0
 121 256 120 188 120 144 c 0
 120 121 120 105 120 90 c 0
 120 67 120 46 117 7 c 0
 117 1 111 0 105 0 c 0
 98 0 90 0 82 0 c 0
 79 0 77 1 74 0 c 0
 72 0 70 0 68 0 c 0
 60 0 52 0 45 0 c 0
 39 0 34 1 34 7 c 0
 34 14 35 36 35 80 c 0
 35 138 33 190 31 261 c 0
 30 295 30 326 30 356 c 0
 30 392 30 427 30 464 c 0
 30 494 30 524 29 559 c 0
 29 561 29 563 29 565 c 0
 29 587 32 605 32 622 c 0
 32 633 31 644 27 657 c 0
 19 688 -3 698 -13 728 c 0
 -20 747 -36 785 -36 799 c 0
 -36 803 -34 805 -32 805 c 0
 -31 805 -29 804 -26 802 c 0
 26 767 36 734 80 734 c 0
 82 734 85 734 88 734 c 0
 113 736 114 762 136 774 c 0
 154 784 171 797 188 797 c 0
 191 797 195 797 199 796 c 0
 204 795 206 791 206 788 c 0
 206 776 176 754 166 737 c 0
 154 715 157 707 132 682 c 0
 124 674 121 663 121 652 c 0
 121 638 125 622 125 606 c 0
 125 600 124 593 124 575 c 0
 124 542 127 516 127 485 c 0
 127 466 126 456 126 453 c 0
 126 447 128 445 131 445 c 0
 143 445 177 477 197 488 c 0
 222 501 231 518 258 525 c 0
 270 528 285 536 296 536 c 0
 303 536 308 532 310 525 c 0
 333 460 339 431 339 385 c 0
 339 375 338 363 338 350 c 0
 334 236 328 169 270 68 c 0
 237 13 195 -52 157 -102 c 1
 160 -102 l 2
 191 -102 215 -101 240 -101 c 0
 255 -101 272 -102 290 -102 c 1
 292 -103 293 -104 293 -105 c 0
 293 -110 284 -122 281 -130 c 0
 279 -135 279 -143 274 -143 c 2
 195 -143 l 2
 160 -143 140 -143 125 -143 c 1
 111 -160 l 2
 99 -174 64 -194 52 -194 c 0
 49 -194 48 -192 48 -189 c 0
 48 -188 48 -186 49 -184 c 0
 57 -167 66 -153 74 -142 c 1
 65 -142 52 -142 38 -143 c 0
 36 -143 36 -142 36 -141 c 0
 36 -137 41 -128 44 -123 c 0
EndSplineSet
Validated: 1
EndChar

StartChar: uni1E9A
Encoding: 7834 7834 289
Width: 317
Flags: HW
HStem: 470 31<165 175> 679 31<165 175>
VStem: 233 31<590 602>
LayerCount: 2
Fore
SplineSet
119 81 m 0
 127 81 139 91 148 95 c 8
 163 101 181 104 182 120 c 16
 185 154 186 161 186 179 c 0
 186 186 186 189 186 191 c 0
 186 199 188 207 188 214 c 0
 188 226 178 230 173 230 c 0
 162 230 151 219 139 212 c 0
 125 203 105 198 105 182 c 0
 105 179 106 177 106 165 c 0
 106 153 104 139 104 126 c 0
 104 107 108 81 119 81 c 0
168 439 m 0
 184 439 193 430 206 421 c 8
 235 401 253 392 253 343 c 0
 253 330 251 317 251 302 c 0
 251 294 251 294 251 283 c 0
 251 259 250 228 250 198 c 0
 250 171 251 146 256 132 c 0
 262 117 298 83 298 53 c 0
 298 30 280 28 265 18 c 16
 253 10 245 0 232 0 c 0
 213 0 210 17 201 31 c 16
 193 43 198 72 189 72 c 0
 183 72 151 49 124 39 c 16
 97 29 63 0 43 0 c 0
 30 0 22 10 22 85 c 0
 22 108 23 135 26 170 c 8
 29 208 73 205 102 231 c 24
 135 260 184 268 184 308 c 0
 184 318 172 356 111 356 c 0
 87 356 66 338 48 315 c 0
 44 310 43 303 43 296 c 0
 43 284 44 273 30 273 c 0
 14 273 3 295 3 311 c 0
 3 325 15 332 25 343 c 8
 51 371 67 382 99 404 c 24
 124 420 138 439 168 439 c 0
264 590 m 0
 264 527 222 470 165 470 c 1
 165 501 l 1
 201 501 233 539 233 590 c 0
 233 642 201 679 165 679 c 1
 165 710 l 1
 222 710 264 653 264 590 c 0
EndSplineSet
Validated: 1
EndChar

StartChar: quotesingle
Encoding: 39 39 381
Width: 200
Flags: HW
VStem: 23 121<522 691 691 700>
LayerCount: 2
Fore
SplineSet
39 692 m 16
 39 718 66 724 90 736 c 0
 108 746 138 768 152 768 c 0
 158 768 161 765 161 757 c 0
 161 645 161 732 162 637 c 1
 162 606 l 2
 162 576 161 606 161 531 c 8
 161 504 134 499 112 484 c 16
 93 471 60 441 47 441 c 0
 43 441 41 445 41 451 c 2
 41 492 l 2
 41 564 40 614 39 692 c 16
EndSplineSet
Validated: 1
EndChar

StartChar: parenleft
Encoding: 40 40 382
Width: 218
Flags: HW
LayerCount: 2
Fore
SplineSet
180 811 m 1
 180 787 88 638 88 436 c 0
 88 393 92 347 98 295 c 8
 113 164 180 119 180 101 c 0
 180 92 161 85 151 76 c 0
 140 66 128 45 118 45 c 0
 116 45 113 46 111 49 c 0
 60 108 38 217 38 336 c 0
 38 395 43 457 52 516 c 0
 66 611 173 811 180 811 c 1
EndSplineSet
Validated: 1
EndChar

StartChar: asterisk
Encoding: 42 42 384
Width: 540
Flags: HW
LayerCount: 2
Fore
SplineSet
486 494 m 0
 495 494 508 491 508 483 c 0
 508 474 495 462 490 451 c 8
 478 424 470 408 447 390 c 24
 438 383 429 390 417 390 c 0
 404 390 381 396 370 396 c 0
 365 396 361 395 361 391 c 0
 361 382 379 368 399 291 c 16
 407 259 426 233 426 206 c 0
 426 194 419 163 390 163 c 0
 382 163 371 165 362 165 c 2
 351 165 l 2
 344 165 337 166 331 171 c 8
 302 195 308 224 298 260 c 24
 283 314 273 390 267 390 c 0
 250 390 225 253 152 168 c 0
 148 164 143 162 139 162 c 0
 129 162 117 169 105 171 c 8
 95 173 76 169 81 177 c 16
 112 232 122 243 142 288 c 24
 153 314 175 381 175 384 c 0
 175 390 169 392 160 392 c 0
 145 392 121 387 103 387 c 0
 98 387 93 388 88 389 c 0
 70 393 35 390 35 402 c 0
 35 414 71 441 77 447 c 24
 97 469 100 494 135 494 c 2
 143 494 l 2
 146 494 150 495 154 495 c 0
 171 495 188 488 203 488 c 0
 220 488 243 498 243 529 c 0
 243 538 242 549 242 559 c 0
 242 579 245 567 245 601 c 2
 245 628 l 2
 245 681 274 685 278 685 c 0
 286 685 295 679 306 678 c 0
 326 676 332 660 332 635 c 0
 332 612 328 583 328 551 c 0
 328 503 330 487 368 487 c 0
 383 487 401 490 417 490 c 0
 421 490 425 489 429 489 c 0
 432 489 435 489 438 489 c 0
 455 489 472 494 486 494 c 0
EndSplineSet
Validated: 1
EndChar

StartChar: plus
Encoding: 43 43 385
Width: 322
Flags: HW
HStem: 335 41<41 281>
VStem: 147 41<248 335 347 468>
LayerCount: 2
Fore
SplineSet
146 376 m 1
 146 389 l 2
 146 414 147 436 147 466 c 0
 147 471 156 470 161 472 c 0
 169 475 180 484 185 484 c 0
 186 484 187 483 187 481 c 0
 188 463 189 447 189 431 c 0
 189 414 188 396 188 376 c 1
 207 376 227 377 244 377 c 0
 259 377 276 376 294 376 c 1
 296 375 297 374 297 373 c 0
 297 368 288 356 285 348 c 0
 283 343 284 335 279 335 c 0
 249 335 227 334 202 334 c 2
 188 334 l 1
 188 305 189 285 189 272 c 0
 189 238 186 245 168 236 c 0
 163 234 154 227 150 227 c 0
 149 227 147 228 147 229 c 0
 148 251 148 265 148 276 c 0
 148 298 147 307 147 335 c 1
 119 335 109 336 89 336 c 0
 78 336 64 336 42 335 c 0
 40 335 40 336 40 337 c 0
 40 341 45 350 48 355 c 0
 56 373 51 377 84 377 c 0
 97 377 116 376 146 376 c 1
EndSplineSet
Validated: 1
EndChar

StartChar: comma
Encoding: 44 44 386
Width: 277
Flags: HW
LayerCount: 2
Fore
SplineSet
10 52 m 1
 10 62 36 89 60 133 c 16
 77 165 118 191 118 218 c 0
 118 225 116 232 110 239 c 0
 85 267 90 268 78 286 c 16
 69 299 52 305 52 321 c 0
 52 353 84 360 108 383 c 24
 135 409 155 436 184 436 c 0
 208 436 214 407 230 389 c 0
 249 366 268 350 268 324 c 0
 268 290 243 290 224 272 c 24
 200 249 185 240 163 215 c 24
 140 189 135 170 111 144 c 16
 84 115 19 52 10 52 c 1
EndSplineSet
Validated: 1
EndChar

StartChar: hyphen
Encoding: 45 45 387
Width: 322
Flags: HW
HStem: 335 42<49 288>
VStem: 40 257<336 376>
LayerCount: 2
Fore
SplineSet
48 355 m 0
 57 373 52 377 81 377 c 0
 96 377 121 376 161 376 c 2
 164 376 l 2
 195 376 219 377 244 377 c 0
 259 377 276 376 294 376 c 1
 296 375 297 374 297 373 c 0
 297 368 288 356 285 348 c 8
 283 343 284 335 279 335 c 18
 199 335 l 2
 126 335 118 336 86 336 c 0
 75 336 61 336 42 335 c 0
 40 335 40 336 40 337 c 0
 40 341 45 350 48 355 c 0
EndSplineSet
Validated: 1
EndChar

StartChar: period
Encoding: 46 46 388
Width: 218
Flags: HW
HStem: 162 177<80 122>
VStem: 17 185<243 284>
LayerCount: 2
Fore
SplineSet
181 243 m 0
 157 219 154 209 132 193 c 16
 114 179 105 162 82 162 c 2
 80 162 l 9
 62 163 54 175 43 189 c 16
 30 206 17 221 17 240 c 0
 17 243 18 245 18 248 c 8
 23 279 46 290 71 309 c 16
 90 324 103 339 127 339 c 2
 132 339 l 1
 169 336 165 339 187 312 c 0
 197 300 203 290 203 280 c 0
 203 269 195 257 181 243 c 0
EndSplineSet
Validated: 1
EndChar

StartChar: slash
Encoding: 47 47 389
Width: 371
Flags: HW
LayerCount: 2
Fore
SplineSet
34 67 m 0
 34 87 149 274 203 384 c 24
 256 493 307 597 329 667 c 0
 330 669 331 669 333 669 c 0
 339 669 345 669 351 669 c 0
 356 669 359 668 359 666 c 2
 359 664 l 1
 255 392 83 125 58 68 c 0
 56 63 51 60 47 60 c 0
 40 60 34 65 34 67 c 0
EndSplineSet
Validated: 1
EndChar

StartChar: less
Encoding: 60 60 392
Width: 492
Flags: HW
LayerCount: 2
Fore
SplineSet
453 552 m 1
 358 462 269 471 144 362 c 0
 136 355 133 350 133 344 c 0
 133 312 235 293 280 258 c 0
 332 218 425 217 425 161 c 0
 425 136 413 133 400 133 c 0
 392 133 382 134 373 134 c 0
 361 134 352 132 339 132 c 0
 276 132 233 177 177 223 c 16
 133 259 44 292 44 328 c 0
 44 335 47 343 56 350 c 0
 141 424 169 426 246 464 c 16
 315 498 433 552 453 552 c 1
EndSplineSet
Validated: 1
EndChar

StartChar: question
Encoding: 63 63 395
Width: 342
Flags: HW
LayerCount: 2
Fore
SplineSet
223 101 m 0
 199 77 196 67 174 51 c 16
 156 37 147 20 124 20 c 2
 122 20 l 9
 104 21 96 34 85 48 c 16
 72 65 59 79 59 98 c 0
 59 101 60 103 60 106 c 8
 65 137 88 149 113 168 c 16
 132 183 145 198 169 198 c 2
 174 198 l 1
 211 195 207 198 229 171 c 0
 239 159 245 148 245 138 c 0
 245 127 237 115 223 101 c 0
112 236 m 0
 112 256 129 278 136 304 c 8
 149 349 199 446 222 516 c 16
 235 559 256 585 256 625 c 0
 256 655 244 725 189 725 c 0
 162 725 145 703 120 685 c 0
 83 656 46 558 35 558 c 0
 33 558 31 562 31 571 c 0
 31 629 39 666 74 710 c 16
 110 755 145 799 195 799 c 0
 202 799 210 798 218 796 c 8
 293 778 313 704 319 627 c 16
 319 624 319 620 319 617 c 0
 319 577 294 555 276 516 c 8
 252 468 207 436 207 373 c 0
 207 357 210 339 211 319 c 0
 212 290 228 268 228 245 c 0
 228 231 219 210 199 210 c 0
 190 210 179 212 169 212 c 0
 155 212 144 206 134 206 c 0
 121 206 112 223 112 236 c 0
EndSplineSet
Validated: 1
EndChar

StartChar: at
Encoding: 64 64 396
Width: 442
Flags: HW
LayerCount: 2
Fore
SplineSet
162 230 m 0
 169 230 178 238 186 241 c 8
 198 245 212 246 213 258 c 16
 216 297 218 317 218 326 c 0
 218 328 219 340 205 340 c 0
 196 340 187 332 178 327 c 0
 166 320 152 315 152 304 c 0
 152 302 153 301 153 292 c 0
 153 283 152 273 152 263 c 0
 152 249 153 230 162 230 c 0
41 236 m 0
 41 178 140 130 179 130 c 0
 220 130 305 148 338 194 c 0
 346 206 351 231 351 264 c 0
 351 287 348 312 344 339 c 0
 337 382 294 460 266 497 c 1
 255 502 218 503 179 503 c 0
 164 503 149 503 135 503 c 0
 104 503 80 504 76 507 c 0
 76 508 45 515 57 521 c 0
 66 525 291 540 294 540 c 0
 350 540 399 363 399 328 c 0
 399 286 392 209 377 191 c 0
 338 145 184 89 131 89 c 0
 78 89 0 156 0 188 c 0
 0 190 -1 192 0 194 c 0
 -1 200 0 206 0 213 c 0
 0 275 31 359 51 412 c 8
 61 438 122 493 183 493 c 0
 213 493 269 476 269 422 c 0
 269 413 268 403 268 392 c 0
 268 386 268 387 268 378 c 0
 268 361 267 338 267 316 c 0
 267 297 268 277 272 267 c 0
 276 256 305 232 305 210 c 0
 305 188 272 179 255 179 c 0
 247 179 237 180 231 184 c 0
 223 189 227 223 218 223 c 0
 213 223 194 208 166 199 c 16
 144 192 118 170 102 170 c 0
 91 170 84 178 84 232 c 0
 84 248 86 269 88 295 c 8
 91 325 126 323 150 340 c 24
 175 358 202 359 213 388 c 24
 216 396 215 405 209 412 c 24
 204 419 196 432 156 432 c 0
 100 432 41 302 41 236 c 0
EndSplineSet
Validated: 1
EndChar

StartChar: A
Encoding: 65 65 397
Width: 633
Flags: HW
HStem: 0 52<501 599> 11 57<279 347> 49 53<116 181> 232 14<124 137> 682 68<380 489>
VStem: 39 78<247 412> 391 148<624 697> 421 94<71 285> 430 95<161 304> 442 97<379 685>
LayerCount: 2
Fore
SplineSet
433 375 m 0x1c40
 437 407 442 500 442 562 c 0
 442 597 440 624 436 624 c 0
 410 624 405 588 396 565 c 0
 388 543 392 555 295 384 c 17
 321 376 319 374 324 374 c 0
 328 374 336 375 366 375 c 0
 389 375 410 364 422 364 c 0
 428 364 432 366 433 375 c 0x1c40
117 357 m 0
 117 353 122 247 137 247 c 0
 139 247 141 249 143 252 c 0
 215 349 275 435 310 507 c 0
 344 578 372 599 390 670 c 0
 391 673 391 675 391 677 c 0x1e
 391 681 389 682 387 682 c 0
 373 682 325 631 298 611 c 8
 255 577 234 554 197 513 c 16
 162 474 117 444 117 357 c 0
34 12 m 0
 19 12 7 28 7 40 c 0
 7 62 36 85 49 111 c 8
 71 152 132 205 132 227 c 0
 132 230 129 232 124 232 c 0
 116 232 103 229 92 229 c 0
 84 229 77 232 72 236 c 0
 46 260 39 284 39 316 c 0
 39 405 82 447 126 501 c 24
 191 580 241 614 326 670 c 16
 378 705 413 750 475 750 c 0
 504 750 536 741 538 713 c 16
 539 691 540 673 540 657 c 0x3e
 540 575 525 535 525 283 c 0x3c80
 525 235 515 198 515 159 c 0
 515 109 535 52 566 52 c 0
 583 52 599 78 612 78 c 0
 619 78 626 68 626 60 c 0
 626 44 606 27 590 15 c 0
 573 2 556 0 538 0 c 0
 466 0 449 19 439 31 c 16
 422 54 418 74 418 98 c 0
 418 118 421 141 421 166 c 0
 421 172 421 173 421 181 c 0x9d
 421 223 430 276 430 286 c 0
 430 310 394 303 369 309 c 0
 339 317 320 325 293 325 c 0
 216 325 221 276 184 219 c 8
 164 186 148 170 132 135 c 16
 128 126 116 111 116 105 c 0
 116 103 118 102 120 102 c 0x3c80
 132 102 164 112 182 112 c 0
 186 112 192 112 197 111 c 8
 237 107 267 108 295 77 c 0
 302 70 313 69 323 69 c 0
 326 69 330 69 333 69 c 0x5c80
 347 69 356 66 356 52 c 0x9c80
 356 26 322 22 295 15 c 0
 285 12 275 11 266 11 c 0x5c80
 247 11 230 17 206 22 c 8
 171 29 155 49 121 49 c 0x3c80
 87 49 59 12 34 12 c 0
EndSplineSet
Validated: 1
EndChar

StartChar: B
Encoding: 66 66 398
Width: 654
Flags: HW
LayerCount: 2
Fore
SplineSet
412 394 m 0
 380 394 381 377 367 236 c 16
 364 203 357 182 357 153 c 0
 357 145 358 136 359 127 c 8
 361 105 394 117 416 110 c 16
 447 100 467 75 494 75 c 0
 500 75 506 75 512 78 c 8
 531 86 570 104 570 217 c 0
 570 250 559 273 542 305 c 8
 525 337 516 364 481 376 c 16
 462 383 434 394 412 394 c 0
500 611 m 0
 500 658 452 685 440 685 c 0
 421 685 425 619 411 538 c 24
 406 510 392 464 392 446 c 0
 392 441 395 439 398 439 c 0
 411 439 444 470 456 487 c 0
 486 528 490 544 497 584 c 16
 499 593 500 602 500 611 c 0
30 7 m 0
 13 7 8 22 8 31 c 0
 8 65 74 74 98 112 c 8
 144 187 166 235 177 321 c 16
 184 378 195 429 195 477 c 0
 195 528 182 578 143 628 c 8
 113 665 26 627 26 681 c 0
 26 703 52 716 75 727 c 0
 98 738 116 744 138 744 c 0
 218 744 256 682 265 669 c 0
 284 642 290 617 290 590 c 0
 290 568 287 545 286 518 c 8
 283 423 271 369 238 279 c 16
 227 248 213 189 184 154 c 0
 155 119 122 98 122 94 c 0
 122 94 123 94 124 94 c 0
 140 94 149 106 220 106 c 0
 224 106 227 106 231 106 c 0
 260 106 283 107 313 129 c 0
 327 139 331 150 331 161 c 0
 331 171 328 184 328 196 c 0
 328 204 390 643 390 686 c 0
 390 689 388 690 385 690 c 0
 380 690 369 687 362 687 c 0
 355 687 352 691 352 697 c 0
 352 702 354 709 359 715 c 0
 391 754 427 770 477 770 c 0
 523 770 552 757 578 722 c 16
 591 705 595 687 595 669 c 0
 595 559 515 554 515 488 c 0
 515 450 543 444 578 436 c 0
 615 428 632 389 649 349 c 0
 655 335 657 322 657 310 c 0
 657 293 653 277 649 255 c 0
 631 164 577 86 577 73 c 0
 577 62 615 66 615 51 c 0
 615 24 582 22 555 15 c 16
 530 9 508 6 488 6 c 0
 456 6 426 13 387 20 c 8
 337 29 318 65 212 65 c 0
 128 65 118 24 70 15 c 0
 57 12 42 7 30 7 c 0
EndSplineSet
Validated: 1
EndChar

StartChar: C
Encoding: 67 67 399
Width: 531
Flags: HW
LayerCount: 2
Fore
SplineSet
154 288 m 0
 154 321 172 551 172 617 c 0
 172 620 172 622 171 622 c 0
 168 622 157 591 151 578 c 0
 113 502 103 468 103 427 c 0
 103 402 108 359 108 343 c 0
 108 336 108 329 108 323 c 0
 108 280 142 223 150 223 c 0
 153 223 155 229 155 254 c 0
 155 267 154 275 154 288 c 0
229 141 m 0
 234 141 249 146 249 162 c 0
 249 170 246 180 246 190 c 0
 246 191 246 193 246 194 c 8
 246 194 263 406 263 436 c 16
 263 533 275 614 275 682 c 0
 275 720 272 728 269 728 c 0
 261 728 240 697 227 685 c 8
 176 639 201 706 179 329 c 24
 176 274 171 236 171 187 c 8
 171 173 185 168 197 160 c 16
 208 153 218 141 229 141 c 0
264 169 m 1
 263 158 256 149 256 140 c 0
 256 109 324 105 352 105 c 0
 398 105 430 125 464 144 c 0
 481 154 491 181 505 181 c 0
 508 181 520 178 520 166 c 0
 520 156 511 142 504 132 c 8
 463 74 412 67 344 43 c 16
 317 34 300 27 274 27 c 0
 187 27 177 38 129 74 c 24
 83 109 66 143 46 197 c 16
 30 241 26 274 26 313 c 0
 26 497 87 530 154 657 c 24
 183 712 215 734 264 771 c 16
 289 789 306 805 330 805 c 0
 344 805 359 799 381 786 c 8
 409 769 421 753 439 728 c 0
 452 711 464 700 464 678 c 0
 464 664 457 658 449 648 c 24
 443 640 436 628 427 633 c 24
 389 655 377 679 344 707 c 16
 331 718 313 746 305 746 c 0
 289 746 292 593 286 495 c 26
 280 402 l 18
 266 194 264 172 264 169 c 1
EndSplineSet
Validated: 1
EndChar

StartChar: D
Encoding: 68 68 400
Width: 504
Flags: HW
LayerCount: 2
Fore
SplineSet
373 61 m 0
 406 61 400 62 409 92 c 16
 413 105 414 116 414 127 c 0
 414 138 413 151 412 166 c 8
 408 242 396 249 362 304 c 24
 335 348 307 395 240 445 c 16
 214 464 199 493 170 493 c 0
 119 493 136 418 128 307 c 24
 124 246 114 225 114 101 c 0
 114 98 115 97 117 97 c 0
 127 97 129 113 174 113 c 0
 210 113 265 61 373 61 c 0
166 779 m 0
 166 768 147 770 141 759 c 8
 125 730 128 709 126 676 c 16
 125 664 123 653 123 644 c 0
 123 636 124 629 129 621 c 8
 175 537 241 590 369 467 c 24
 419 419 487 321 487 244 c 0
 487 226 485 206 485 183 c 0
 485 166 486 151 486 137 c 0
 486 118 484 99 473 77 c 8
 455 41 368 12 317 12 c 0
 234 12 175 57 113 57 c 0
 57 57 18 24 10 24 c 0
 8 24 7 26 7 29 c 0
 7 36 11 48 15 55 c 8
 32 85 81 74 86 108 c 16
 95 173 91 201 93 261 c 16
 95 322 96 353 96 373 c 0
 96 397 95 419 95 450 c 0
 95 465 98 475 98 487 c 0
 98 529 49 544 49 584 c 0
 49 673 55 769 141 796 c 16
 143 797 144 797 146 797 c 0
 155 797 166 789 166 779 c 0
EndSplineSet
Validated: 1
EndChar

StartChar: E
Encoding: 69 69 401
Width: 713
Flags: HW
VStem: 432 41<424 452>
LayerCount: 2
Fore
SplineSet
301 231 m 0
 301 261 302 335 302 605 c 1
 301 620 301 633 301 643 c 0
 301 663 302 680 302 713 c 0
 302 731 296 738 286 738 c 0
 250 738 163 642 135 584 c 0
 119 549 113 501 113 452 c 0
 113 396 120 339 129 302 c 0
 137 267 178 191 212 160 c 0
 223 150 233 133 245 133 c 0
 247 133 250 134 252 135 c 0
 291 151 302 157 302 188 c 0
 302 201 301 205 301 231 c 0
329 675 m 0
 329 664 330 652 330 642 c 0
 330 630 327 619 327 583 c 0
 327 541 330 495 330 449 c 0
 330 415 328 366 328 283 c 0
 328 217 330 185 330 174 c 0
 330 157 328 144 328 134 c 0
 328 99 358 78 388 78 c 0
 401 78 413 83 415 95 c 0
 421 132 428 123 431 184 c 0
 431 190 433 397 433 531 c 0
 433 630 431 644 431 656 c 0
 431 673 433 682 433 692 c 0
 433 701 432 712 425 731 c 0
 422 740 402 748 383 748 c 0
 340 748 329 708 329 675 c 0
584 633 m 0
 538 633 517 740 492 740 c 0
 483 740 469 722 469 695 c 0
 469 685 471 673 471 659 c 0
 471 629 466 630 466 586 c 0
 466 537 473 487 473 452 c 0
 473 440 479 435 488 435 c 0
 505 435 536 450 560 450 c 0
 591 450 603 412 628 412 c 0
 645 412 663 425 673 425 c 0
 681 425 683 415 683 408 c 0
 683 369 623 359 609 359 c 0
 584 359 577 385 553 393 c 0
 533 400 507 418 490 418 c 0
 472 418 460 396 460 293 c 0
 460 277 460 260 460 246 c 0
 460 209 457 182 457 154 c 0
 457 117 467 52 504 52 c 0
 541 52 596 105 628 105 c 0
 646 105 650 86 650 79 c 0
 650 50 597 44 562 34 c 0
 507 17 463 7 417 7 c 0
 382 7 346 13 304 25 c 8
 194 57 116 89 65 190 c 16
 29 261 8 331 8 400 c 0
 8 470 30 537 80 599 c 0
 169 710 218 780 347 805 c 16
 377 810 403 813 429 813 c 0
 507 813 571 786 645 719 c 0
 648 716 650 711 650 706 c 0
 650 680 617 633 584 633 c 0
EndSplineSet
Validated: 1
EndChar

StartChar: F
Encoding: 70 70 402
Width: 352
Flags: HW
LayerCount: 2
Fore
SplineSet
88 8 m 0
 79 8 72 11 68 18 c 128
 64 25 63 39 63 61 c 0
 63 69 64 82 66 100 c 128
 68 118 68 133 68 144 c 0
 68 159 70 178 76 201 c 128
 82 224 85 241 85 252 c 0
 85 270 80 285 71 298 c 0
 69 301 64 302 57 302 c 128
 50 302 45 304 43 307 c 0
 40 312 38 318 38 323 c 0
 38 332 42 337 49 337 c 0
 52 337 56 336 61 334 c 128
 66 332 70 331 71 331 c 0
 74 331 75 343 75 367 c 0
 75 385 74 410 72 442 c 128
 70 474 69 496 69 510 c 0
 69 517 70 524 70 530 c 128
 70 536 70 542 70 546 c 128
 70 550 71 551 71 552 c 0
 71 555 70 556 67 556 c 0
 60 556 47 547 28 528 c 0
 25 525 22 520 20 514 c 128
 18 508 17 503 16 498 c 128
 15 493 14 488 12 484 c 128
 10 480 7 478 4 478 c 0
 -7 478 -13 485 -13 498 c 0
 -13 509 -9 524 0 541 c 0
 3 546 6 551 9 554 c 128
 12 557 18 560 24 564 c 128
 30 568 34 570 37 571 c 0
 57 584 90 601 136 622 c 128
 182 643 222 664 258 686 c 128
 294 708 320 734 338 762 c 1
 351 783 369 794 394 794 c 0
 409 794 423 788 435 778 c 128
 447 768 453 755 453 740 c 0
 453 727 443 710 424 691 c 1
 411 679 396 673 381 673 c 0
 375 673 368 676 360 682 c 128
 352 688 344 691 339 691 c 0
 333 691 328 690 324 688 c 128
 320 686 315 684 308 679 c 128
 298 672 298 672 295 670 c 0
 288 666 277 660 262 653 c 128
 247 646 234 639 226 632 c 128
 218 625 210 616 203 605 c 0
 192 586 186 548 186 489 c 0
 186 474 187 456 188 434 c 128
 189 412 190 399 190 396 c 0
 190 390 194 387 203 387 c 0
 206 387 211 387 218 388 c 128
 225 389 229 390 232 390 c 128
 235 390 243 391 257 393 c 128
 271 395 283 396 292 396 c 0
 319 396 332 384 332 361 c 0
 332 347 327 334 317 323 c 128
 307 312 296 306 283 306 c 0
 275 306 269 308 266 313 c 128
 263 318 260 322 260 328 c 128
 260 334 257 339 252 344 c 128
 247 349 240 351 229 351 c 0
 217 351 206 347 197 338 c 0
 189 331 185 312 185 283 c 0
 185 276 185 263 186 244 c 128
 187 225 187 209 187 198 c 0
 187 158 184 123 178 92 c 0
 178 91 178 85 176 73 c 128
 174 61 172 53 171 50 c 128
 170 47 167 42 163 34 c 128
 159 26 153 21 146 18 c 128
 139 15 131 13 120 12 c 0
 118 12 114 11 106 10 c 128
 98 9 92 8 88 8 c 0
EndSplineSet
Validated: 1
EndChar

StartChar: G
Encoding: 71 71 403
Width: 728
Flags: HW
VStem: 268 36<261 460>
LayerCount: 2
Fore
SplineSet
357 312 m 0
 357 328 381 351 393 369 c 8
 401 381 406 398 436 398 c 0
 461 398 479 383 504 369 c 8
 522 359 541 353 541 329 c 0
 541 311 526 300 513 286 c 0
 490 262 475 254 462 254 c 0
 447 254 435 264 421 270 c 8
 414 273 357 294 357 312 c 0
269 685 m 0
 269 696 266 700 260 700 c 0
 241 700 196 654 171 632 c 0
 117 583 106 525 106 478 c 0
 106 459 109 441 110 427 c 8
 116 345 114 292 157 221 c 16
 172 195 222 147 247 147 c 0
 254 147 259 153 260 163 c 0
 269 254 269 640 269 685 c 0
769 772 m 0
 780 772 798 764 798 759 c 0
 798 755 679 670 551 670 c 0
 483 670 448 698 406 707 c 0
 380 713 345 735 327 735 c 0
 319 735 313 731 313 721 c 0
 310 640 303 583 303 506 c 0
 303 461 305 461 305 393 c 0
 305 334 303 267 303 214 c 0
 303 177 304 147 307 132 c 8
 312 103 340 97 369 89 c 16
 378 87 386 86 393 86 c 0
 411 86 427 91 449 95 c 8
 484 101 508 97 535 120 c 24
 579 158 585 199 596 255 c 16
 601 284 605 306 605 330 c 0
 605 355 601 379 590 409 c 8
 576 447 559 466 525 488 c 24
 491 510 466 505 427 513 c 16
 423 514 420 514 416 514 c 0
 405 514 393 512 383 512 c 0
 371 512 361 515 361 531 c 0
 361 563 411 567 445 579 c 0
 467 586 483 589 501 589 c 0
 508 589 516 589 525 588 c 8
 575 583 619 588 648 547 c 16
 682 499 691 451 691 399 c 0
 691 367 688 335 685 298 c 8
 678 210 630 124 584 76 c 8
 548 39 511 39 461 27 c 16
 432 20 388 15 344 15 c 0
 307 15 272 19 246 25 c 8
 184 39 141 44 94 87 c 16
 32 144 11 183 11 294 c 0
 11 337 14 391 19 461 c 8
 22 506 34 531 58 570 c 24
 109 656 203 709 261 740 c 16
 302 762 331 800 370 800 c 0
 377 800 385 799 393 796 c 0
 434 781 455 779 495 771 c 16
 561 758 587 749 628 749 c 0
 652 749 681 752 725 759 c 0
 742 762 754 772 769 772 c 0
EndSplineSet
Validated: 1
EndChar

StartChar: H
Encoding: 72 72 404
Width: 695
Flags: HW
HStem: 9 48<377 415> 58 27<191 250> 449 22G<6 39> 489 47<367 393> 545 54<465 562> 750 75<135 241>
VStem: 19 100<519 613> 22 69<567 718> 278 74<366 488> 310 65<117 189> 393 43<404 489> 399 37<297 326 349 357 381 489> 539 93<-109 117> 588 85<134 296> 594 96<279 450>
LayerCount: 2
Fore
SplineSet
391 271 m 0xfc10
 394 271 394 267 396 267 c 0
 398 267 399 276 399 286 c 0
 399 303 397 326 397 326 c 1
 396 314 356 320 356 302 c 16
 356 292 349 277 349 263 c 0
 349 255 350 254 352 254 c 0
 359 254 383 271 391 271 c 0xfc10
594 372 m 0xfc12
 594 389 563 392 552 392 c 0
 532 392 509 385 485 378 c 8
 467 372 479 369 442 351 c 0
 434 347 432 345 432 342 c 0
 432 338 436 331 436 317 c 0
 436 310 435 307 435 304 c 0
 435 299 437 297 440 297 c 0
 451 297 482 323 501 329 c 8
 535 339 565 325 587 353 c 16
 591 358 594 366 594 372 c 0xfc12
433 402 m 0
 433 387 438 381 447 381 c 0
 473 381 529 431 581 449 c 8
 591 453 590 466 587 476 c 24
 576 518 551 545 495 545 c 0
 465 545 436 535 436 507 c 0
 436 470 433 442 433 402 c 0
360 341 m 0
 368 341 403 350 403 402 c 0
 403 430 393 454 393 482 c 0
 393 487 389 489 384 489 c 0
 372 489 350 478 350 467 c 0
 350 464 351 464 351 452 c 0xfca0
 351 429 346 389 346 365 c 0
 346 352 347 341 360 341 c 0
194 101 m 0
 192 97 190 94 190 92 c 0
 190 87 196 85 203 85 c 0
 226 85 274 107 298 123 c 0
 307 130 310 136 310 144 c 0xfc40
 310 164 285 189 276 209 c 0
 272 217 268 221 264 221 c 0
 242 221 214 137 194 101 c 0
339 9 m 0
 293 9 274 58 227 58 c 0
 178 58 96 -6 79 -6 c 0
 77 -6 76 -5 76 -3 c 0
 76 -1 77 3 80 9 c 0
 129 104 197 172 237 292 c 16
 262 365 278 416 278 482 c 0
 278 501 276 521 273 544 c 8
 262 630 266 718 184 746 c 16
 178 748 173 750 167 750 c 0
 127 750 90 701 90 656 c 0xfd80
 90 612 120 570 120 519 c 1
 6 449 l 1
 6 451 5 453 5 456 c 0
 5 481 19 524 19 553 c 0xfe
 19 594 22 639 22 679 c 1xfd
 53 750 71 768 120 796 c 1
 143 806 188 824 221 824 c 0
 261 824 317 764 319 762 c 8
 393 677 343 537 384 537 c 0
 414 537 480 599 525 599 c 0
 533 599 541 597 547 593 c 8
 595 559 690 522 690 409 c 0xfe02
 690 365 675 323 673 270 c 0xfc04
 669 165 632 81 632 -4 c 0
 632 -44 640 -85 664 -129 c 8
 678 -156 728 -139 728 -170 c 0
 728 -184 711 -187 697 -190 c 0
 679 -194 661 -198 645 -198 c 0
 589 -198 539 -156 539 -74 c 0xfc08
 539 -45 544 -12 544 22 c 0
 544 106 588 163 588 233 c 0
 588 288 567 304 536 304 c 0
 494 304 434 271 399 233 c 0xfc14
 379 211 375 179 375 142 c 0
 375 117 377 91 378 65 c 0
 378 60 382 57 388 57 c 0
 394 57 404 59 410 59 c 0
 420 59 421 54 421 48 c 0
 421 16 374 9 339 9 c 0
EndSplineSet
Validated: 1
EndChar

StartChar: I
Encoding: 73 73 405
Width: 352
Flags: W
HStem: -196 21G<-75.5 -73.5> 465 21G<70 80> 710 36<242.611 299.157> 720 54<88.4107 158.557>
VStem: 171 47<169.004 374.608> 174 66<388.465 580.226> 310 34<531.655 699.529>
LayerCount: 2
Fore
SplineSet
310 659 m 0xea
 310 693 286 710 270 710 c 0
 248 710 234 694 234 634 c 0
 234 601 240 567 240 528 c 0xe6
 240 452 218 240 218 184 c 0
 218 174 219 169 221 169 c 0
 232 169 268 286 280 338 c 0
 294 399 295 443 295 495 c 0
 295 506 295 519 295 531 c 0
 295 620 310 618 310 659 c 0xea
382 767 m 0
 382 760 345 750 344 734 c 0
 335 633 348 544 326 433 c 8
 307 334 300 273 252 184 c 16
 219 123 173 83 135 34 c 0
 74 -46 18 -125 -49 -178 c 0
 -63 -189 -72 -196 -75 -196 c 0
 -76 -196 -76 -195 -76 -194 c 0
 -76 -178 95 11 135 114 c 8
 158 170 159 207 163 267 c 16
 165 291 171 309 171 327 c 0
 171 340 163 375 151 375 c 0
 141 375 126 361 114 356 c 0
 94 348 76 316 62 316 c 0
 55 316 49 326 49 332 c 0
 49 347 83 357 98 372 c 8
 120 394 171 416 171 450 c 0xda
 171 459 166 467 166 479 c 0
 166 490 174 502 174 510 c 0xd6
 174 518 166 522 160 522 c 0
 146 522 134 500 117 492 c 0
 102 485 86 465 74 465 c 0
 66 465 60 475 60 482 c 0
 60 502 103 516 123 538 c 8
 140 556 171 562 171 600 c 0
 171 610 169 620 169 635 c 0
 169 644 169 652 169 660 c 0
 169 720 127 708 104 719 c 16
 103 720 101 720 99 720 c 0
 81 720 43 690 33 690 c 0
 31 690 30 690 30 692 c 0
 30 693 30 695 31 697 c 0
 46 737 73 740 104 762 c 0
 117 771 130 774 143 774 c 0xda
 158 774 176 770 194 768 c 8
 225 765 237 746 269 746 c 0xea
 305 746 333 774 361 774 c 0xda
 368 774 382 771 382 767 c 0
EndSplineSet
Validated: 1
EndChar

StartChar: J
Encoding: 74 74 406
Width: 415
Flags: HW
VStem: 209 55<657 682>
LayerCount: 2
Fore
SplineSet
329 611 m 16
 325 629 323 644 323 655 c 0
 323 679 329 693 329 708 c 0
 329 716 328 724 323 734 c 8
 319 743 307 743 298 740 c 24
 288 737 286 728 280 719 c 16
 269 701 264 690 264 681 c 0
 264 670 272 660 283 642 c 8
 290 631 292 621 304 614 c 24
 312 609 331 602 329 611 c 16
12 -194 m 0
 92 -126 131 -119 178 -46 c 24
 264 89 276 188 298 347 c 16
 313 456 313 553 313 560 c 0
 313 570 306 572 296 572 c 0
 288 572 276 570 266 570 c 0
 257 570 249 573 243 578 c 0
 217 600 209 623 209 656 c 0
 209 679 218 690 230 707 c 24
 248 734 261 748 289 765 c 18
 356 808 l 2
 360 810 365 811 369 811 c 0
 382 811 396 802 396 790 c 0
 399 710 399 685 399 636 c 8
 399 624 424 629 424 616 c 0
 424 602 399 604 396 590 c 0
 368 470 371 386 342 258 c 24
 320 166 317 109 273 25 c 24
 236 -47 209 -89 144 -138 c 16
 109 -165 24 -205 7 -205 c 0
 5 -205 4 -205 4 -204 c 0
 4 -202 6 -199 12 -194 c 0
EndSplineSet
Validated: 1
EndChar

StartChar: K
Encoding: 75 75 407
Width: 553
Flags: HW
LayerCount: 2
Fore
SplineSet
221 331 m 0
 221 317 239 313 246 313 c 0
 272 313 293 346 323 359 c 8
 343 368 380 364 380 403 c 0
 380 418 372 435 366 452 c 8
 360 469 358 504 326 504 c 0
 310 504 295 490 276 484 c 8
 260 479 229 484 229 450 c 0
 229 444 230 437 230 430 c 0
 230 417 228 423 227 362 c 16
 227 351 221 340 221 331 c 0
231 536 m 0
 231 519 248 514 254 514 c 0
 268 514 283 529 301 534 c 0
 332 543 351 569 378 569 c 0
 425 569 431 514 442 485 c 16
 454 454 472 424 472 398 c 0
 472 389 469 380 464 372 c 0
 440 338 415 353 381 335 c 0
 362 324 297 313 297 293 c 0
 297 282 324 281 338 273 c 1
 338 273 393 233 436 221 c 1
 447 218 459 218 470 218 c 0
 473 218 l 0
 494 218 512 218 522 200 c 0
 523 198 523 196 523 195 c 0
 523 184 495 184 479 181 c 0
 454 176 436 174 420 174 c 0
 362 174 352 202 326 218 c 8
 302 233 300 246 271 246 c 0
 224 246 218 205 218 189 c 0
 218 160 235 133 243 98 c 0
 251 64 271 54 296 54 c 0
 333 54 365 74 389 74 c 0
 395 74 399 73 399 70 c 0
 399 56 322 13 265 13 c 0
 220 13 133 46 133 114 c 0
 133 133 138 152 138 170 c 0
 138 206 115 219 100 219 c 0
 80 219 56 202 36 202 c 0
 17 202 7 216 7 225 c 0
 7 259 143 232 143 373 c 0
 143 382 143 390 143 399 c 0
 143 429 146 436 146 473 c 0
 146 512 143 546 143 581 c 0
 143 593 143 605 144 617 c 0
 150 688 237 737 298 762 c 0
 360 787 418 809 474 809 c 0
 513 809 550 799 587 771 c 0
 635 736 645 657 645 608 c 0
 645 551 636 555 605 553 c 16
 600 553 596 552 591 552 c 0
 583 552 574 554 571 562 c 0
 556 605 568 684 516 728 c 16
 493 746 470 754 445 754 c 0
 429 754 411 750 393 746 c 8
 322 730 276 705 240 642 c 16
 234 632 231 621 231 612 c 0
 231 599 236 584 236 567 c 0
 236 556 231 545 231 536 c 0
EndSplineSet
Validated: 1
EndChar

StartChar: backslash
Encoding: 92 92 408
Width: 371
Flags: HW
LayerCount: 2
Fore
SplineSet
34 663 m 0
 34 665 40 669 47 669 c 0
 51 669 56 667 58 662 c 0
 83 605 255 338 359 66 c 1
 359 63 l 2
 359 61 356 60 351 60 c 0
 345 60 339 60 333 60 c 0
 331 60 330 60 329 62 c 0
 307 132 256 236 203 345 c 24
 149 455 34 643 34 663 c 0
EndSplineSet
Validated: 1
EndChar

StartChar: grave
Encoding: 96 96 410
Width: 231
Flags: HW
LayerCount: 2
Fore
SplineSet
86 771 m 0
 99 771 111 776 122 776 c 0
 128 776 133 775 139 771 c 8
 159 758 160 739 168 716 c 24
 179 684 179 670 188 633 c 0
 189 630 189 628 189 626 c 0
 189 623 188 622 186 622 c 0
 174 622 127 673 103 696 c 8
 76 722 78 722 44 768 c 0
 43 770 42 771 42 772 c 0
 42 774 45 775 49 775 c 0
 58 775 76 771 86 771 c 0
EndSplineSet
Validated: 1
EndChar

StartChar: a
Encoding: 97 97 411
Width: 307
Flags: W
HStem: 356 83<99 172.302>
VStem: 3 40<274.505 331.732> 22 83<81.0189 199.145> 186 64<132.664 229.997 271.54 341.611> 201 97<24.2941 71.5836>
LayerCount: 2
Fore
SplineSet
119 81 m 0xb0
 127 81 139 91 148 95 c 8
 163 101 181 104 182 120 c 16
 185 154 186 161 186 179 c 0
 186 186 186 189 186 191 c 0
 186 199 188 207 188 214 c 0
 188 226 178 230 173 230 c 0
 162 230 151 219 139 212 c 0
 125 203 105 198 105 182 c 0
 105 179 106 177 106 165 c 0
 106 153 104 139 104 126 c 0
 104 107 108 81 119 81 c 0xb0
168 439 m 0
 184 439 193 430 206 421 c 8
 235 401 253 392 253 343 c 0
 253 330 251 317 251 302 c 0
 251 294 251 294 251 283 c 0
 251 259 250 228 250 198 c 0xd0
 250 171 251 146 256 132 c 0
 262 117 298 83 298 53 c 0
 298 30 280 28 265 18 c 16
 253 10 245 0 232 0 c 0
 213 0 210 17 201 31 c 16
 193 43 198 72 189 72 c 0
 183 72 151 49 124 39 c 16
 97 29 63 0 43 0 c 0xc8
 30 0 22 10 22 85 c 0xa0
 22 108 23 135 26 170 c 8
 29 208 73 205 102 231 c 24
 135 260 184 268 184 308 c 0
 184 318 172 356 111 356 c 0
 87 356 66 338 48 315 c 0
 44 310 43 303 43 296 c 0
 43 284 44 273 30 273 c 0
 14 273 3 295 3 311 c 0xc0
 3 325 15 332 25 343 c 8
 51 371 67 382 99 404 c 24
 124 420 138 439 168 439 c 0
EndSplineSet
Validated: 1
EndChar

StartChar: b
Encoding: 98 98 412
Width: 308
Flags: W
HStem: 0 80<131.227 197.901> 377 47<141.02 200.583> 442 20G<257.5 266> 778 20G<6 11>
VStem: 39 91<424.007 735.539> 39 81<89.531 356.26> 222 75<106.578 377>
LayerCount: 2
Fore
SplineSet
221 293 m 0xf6
 221 377 210 377 201 377 c 0
 191 377 176 372 165 368 c 0
 122 354 120 329 120 200 c 0
 120 186 120 169 120 152 c 8
 120 96 148 80 166 80 c 0
 188 80 222 116 222 203 c 0
 222 222 221 242 221 265 c 0
 221 274 221 284 221 293 c 0xf6
6 798 m 1
 16 798 47 757 98 757 c 0
 132 757 133 783 174 783 c 0
 179 783 181 782 181 779 c 0
 181 770 131 717 131 692 c 0
 131 687 132 682 132 644 c 0
 132 595 130 532 130 483 c 0
 130 478 130 472 130 468 c 0xfa
 130 433 130 424 142 424 c 0
 159 424 194 449 220 451 c 0
 234 452 252 462 263 462 c 0
 269 462 273 460 275 453 c 0
 292 402 295 371 295 332 c 0
 295 324 295 315 295 307 c 0
 295 266 297 236 297 205 c 0
 297 71 279 69 214 26 c 16
 199 16 173 0 142 0 c 0
 119 0 95 8 68 34 c 0
 51 51 36 64 36 88 c 0
 36 112 39 111 39 205 c 0
 39 239 39 274 39 313 c 0
 39 443 44 605 44 638 c 0
 44 654 43 661 41 678 c 8
 36 724 48 718 8 792 c 0
 7 794 6 797 6 798 c 1
EndSplineSet
Validated: 1
EndChar

StartChar: cent
Encoding: 162 162 415
Width: 306
Flags: HW
HStem: 452 83<126 202>
VStem: 20 83<224 438> 145 58<17 681>
LayerCount: 2
Fore
SplineSet
201 31 m 0
 201 16 182 19 172 13 c 0
 164 8 151 -6 145 -6 c 0
 143 -6 141 -4 141 0 c 0
 141 10 141 22 141 33 c 0
 141 56 141 79 141 105 c 1
 132 101 122 98 108 88 c 1
 86 100 72 106 52 120 c 0
 36 131 16 137 16 156 c 0
 16 224 20 229 20 276 c 0
 20 283 20 290 20 296 c 0
 20 318 20 337 20 355 c 0
 20 368 21 380 22 391 c 0
 27 441 59 446 92 473 c 0
 99 479 118 499 142 514 c 1
 142 532 142 550 142 566 c 0
 142 640 142 649 142 658 c 0
 142 677 159 681 172 688 c 0
 179 692 190 700 196 700 c 0
 198 700 201 698 201 694 c 0
 201 627 200 576 200 535 c 1
 206 535 212 533 218 530 c 0
 235 522 241 510 255 498 c 2
 295 463 l 2
 298 460 300 457 300 454 c 0
 300 443 283 430 273 420 c 0
 256 404 240 398 227 398 c 0
 216 398 207 403 200 407 c 1
 200 358 201 392 201 312 c 0
 201 309 201 307 201 304 c 0
 201 261 201 225 200 191 c 1
 223 204 246 225 251 225 c 1
 251 224 250 220 249 217 c 0
 234 182 217 172 199 157 c 1
 199 143 199 127 199 112 c 0
 199 87 200 62 201 31 c 0
141 197 m 1
 141 279 142 368 142 449 c 1
 138 451 l 2
 136 452 135 452 134 452 c 0
 119 452 116 409 110 383 c 0
 107 370 103 335 103 299 c 0
 103 269 106 239 111 223 c 0
 115 208 129 205 141 197 c 1
EndSplineSet
Validated: 1
EndChar

StartChar: sterling
Encoding: 163 163 416
Width: 563
Flags: HW
VStem: 311 39<378 380> 311 140<372 380>
LayerCount: 2
Fore
SplineSet
269 170 m 0
 277 170 289 161 292 169 c 16
 302 200 305 275 307 332 c 0
 307 335 298 335 287 335 c 0
 280 335 271 335 264 335 c 0
 253 335 243 336 243 339 c 1x00
 243 330 243 289 243 280 c 0
 243 245 232 217 232 189 c 0
 232 183 232 178 233 172 c 0
 234 167 238 165 242 165 c 0
 249 165 260 170 269 170 c 0
454 464 m 1
 438 464 460 717 406 753 c 0
 398 758 387 760 376 760 c 0
 340 760 295 738 280 716 c 0
 249 673 244 601 244 520 c 0
 244 481 245 439 245 398 c 0
 245 390 245 382 245 374 c 1
 245 376 251 377 258 377 c 0
 270 377 288 375 300 375 c 0
 307 375 311 376 311 378 c 0
 311 393 310 416 310 455 c 0
 310 479 311 502 312 522 c 0
 315 573 361 685 384 685 c 0
 389 685 393 679 395 664 c 0
 403 588 411 518 411 476 c 0
 411 471 411 465 411 461 c 0
 409 436 405 426 401 426 c 0
 391 426 376 494 376 566 c 0
 376 574 377 582 377 590 c 0
 377 595 377 600 377 604 c 0
 377 618 376 625 374 625 c 0
 368 625 353 573 352 519 c 0
 351 472 350 424 350 384 c 0
 350 376 372 375 396 375 c 0
 406 375 416 376 425 376 c 0
 440 376 452 375 452 372 c 0x40
 452 368 453 364 453 360 c 0
 453 353 449 345 430 338 c 0
 425 336 416 335 406 335 c 0
 393 335 378 336 367 336 c 0
 358 336 351 336 351 333 c 0
 351 331 351 325 351 314 c 0
 351 285 350 259 350 234 c 0
 350 205 352 180 359 154 c 8
 364 137 387 147 402 138 c 24
 429 121 432 86 464 86 c 16
 465 86 465 86 466 86 c 0
 501 86 539 148 548 148 c 0
 549 148 550 147 550 144 c 8
 550 109 529 93 504 68 c 24
 485 49 468 44 442 34 c 16
 420 26 407 22 395 22 c 0
 377 22 363 31 329 49 c 0
 300 64 292 98 260 98 c 0
 259 98 259 98 258 98 c 8
 233 98 232 69 209 58 c 16
 207 57 170 28 146 28 c 0
 142 28 138 29 135 31 c 0
 132 33 131 38 131 42 c 0
 131 50 135 61 135 67 c 0
 135 70 133 71 131 71 c 0
 130 71 130 71 129 71 c 0
 77 56 79 30 18 12 c 0
 15 11 12 11 11 11 c 1
 11 17 56 52 74 68 c 8
 98 88 121 92 135 120 c 16
 152 154 157 183 157 214 c 0
 157 242 154 269 154 301 c 0
 154 319 155 329 155 332 c 0
 155 337 146 338 135 338 c 0
 121 338 102 336 84 336 c 0
 68 336 52 338 43 344 c 0
 41 346 40 347 40 349 c 0
 40 357 64 364 65 372 c 0
 65 377 77 378 92 378 c 0
 106 378 123 377 137 377 c 0
 151 377 163 378 163 382 c 0
 165 419 167 465 167 495 c 0
 167 507 167 517 166 522 c 0
 166 526 165 531 165 534 c 0
 165 559 174 574 177 602 c 8
 182 648 185 713 185 721 c 0
 185 725 183 727 181 727 c 0
 171 727 145 699 128 691 c 0
 103 680 80 646 62 646 c 0
 57 646 52 648 48 654 c 0
 45 658 44 663 44 667 c 0
 44 686 82 701 104 718 c 0
 132 741 290 809 394 809 c 0
 447 809 487 790 488 740 c 0
 489 698 493 653 493 612 c 0
 493 543 485 484 454 464 c 1
EndSplineSet
Validated: 1
EndChar

StartChar: currency
Encoding: 164 164 417
Width: 360
Flags: HW
VStem: 253 68<349 424>
LayerCount: 2
Fore
SplineSet
185 474 m 0
 159 472 152 466 135 454 c 0
 127 448 124 429 124 413 c 0
 124 396 127 380 127 378 c 8
 130 364 149 356 173 350 c 16
 190 346 216 341 233 341 c 0
 244 341 253 342 253 349 c 0
 253 367 253 387 253 403 c 0
 253 435 249 461 230 468 c 0
 217 473 223 475 211 475 c 0
 206 475 198 475 185 474 c 0
40 206 m 1
 93 327 l 9
 80 334 68 332 59 344 c 24
 50 357 50 369 50 385 c 16
 50 394 50 402 50 409 c 0
 50 423 52 437 59 453 c 0
 65 465 103 495 114 501 c 0
 115 501 115 502 115 503 c 0
 115 516 71 587 71 605 c 0
 71 607 72 608 73 609 c 2
 113 622 l 1
 159 510 l 1
 174 516 189 519 202 519 c 0
 210 519 215 518 216 518 c 0
 225 518 304 614 314 614 c 1
 314 604 264 520 264 510 c 1
 281 503 305 512 309 494 c 16
 322 439 317 413 321 362 c 17
 315 346 277 320 267 316 c 0
 266 316 267 315 267 314 c 0
 267 301 318 225 318 208 c 0
 318 206 317 205 316 205 c 0
 308 204 287 199 286 199 c 0
 277 199 221 316 213 316 c 0
 211 316 189 310 163 310 c 0
 143 310 126 315 126 315 c 0
 120 315 46 206 40 206 c 1
EndSplineSet
Validated: 1
EndChar

StartChar: yen
Encoding: 165 165 418
Width: 483
Flags: HW
LayerCount: 2
Fore
SplineSet
227 270 m 0
 227 268 207 254 224 252 c 0
 229 251 240 251 251 251 c 0
 281 251 324 253 343 253 c 0
 349 253 353 252 353 252 c 0
 353 252 351 229 323 222 c 0
 310 219 290 218 273 218 c 0
 248 218 225 220 215 220 c 0
 212 220 210 219 210 219 c 0
 211 192 220 148 246 113 c 8
 262 90 279 80 307 77 c 16
 309 77 311 77 313 77 c 0
 361 77 447 129 454 129 c 0
 456 129 452 126 445 120 c 0
 377 62 396 74 359 55 c 16
 318 33 294 15 249 15 c 0
 248 15 247 15 246 15 c 0
 163 16 127 73 127 141 c 0
 127 168 132 196 142 224 c 1
 0 221 l 1
 22 246 l 1
 24 251 153 247 155 252 c 0
 159 260 163 267 168 273 c 1
 25 273 l 1
 46 307 l 2
 48 309 76 310 108 310 c 0
 114 310 120 310 126 310 c 0
 161 310 194 310 196 313 c 0
 198 317 201 322 203 326 c 0
 214 348 232 362 232 381 c 0
 232 385 232 389 230 393 c 0
 220 420 218 415 216 444 c 0
 213 493 196 556 184 602 c 8
 172 647 162 684 120 703 c 16
 115 706 107 708 100 708 c 0
 62 708 8 678 -3 678 c 0
 -4 678 -6 679 -6 680 c 0
 -6 681 -4 684 0 688 c 0
 31 722 34 726 61 743 c 24
 87 759 102 773 132 774 c 16
 133 774 135 774 136 774 c 0
 176 774 204 764 233 734 c 8
 269 696 264 658 275 608 c 24
 285 561 276 531 289 485 c 16
 294 469 294 440 305 440 c 0
 306 440 308 441 310 442 c 0
 353 467 363 484 393 516 c 24
 430 556 458 576 476 627 c 16
 481 641 483 655 483 666 c 0
 483 712 448 734 439 740 c 0
 426 749 413 753 402 753 c 0
 383 753 368 742 359 742 c 0
 355 742 352 745 350 750 c 0
 349 752 349 755 349 757 c 0
 349 773 379 779 396 790 c 0
 401 793 427 817 460 817 c 0
 478 817 499 810 519 786 c 0
 543 759 551 733 551 705 c 0
 551 634 493 569 482 553 c 8
 448 505 421 485 378 445 c 24
 330 401 287 391 249 338 c 17
 240 313 l 1
 239 311 244 311 252 310 c 0
 260 310 271 310 283 310 c 0
 301 310 323 310 341 310 c 0
 365 310 384 309 384 307 c 0
 384 305 396 307 396 304 c 0
 396 303 393 300 381 295 c 0
 375 292 370 279 360 276 c 0
 342 270 320 268 298 268 c 0
 270 268 244 271 233 271 c 0
 229 271 227 271 227 270 c 0
EndSplineSet
Validated: 1
EndChar

StartChar: brokenbar
Encoding: 166 166 419
Width: 180
Flags: HW
VStem: 46 78<92 357 478 722>
LayerCount: 2
Fore
SplineSet
124 92 m 1
 124 77 101 81 87 75 c 0
 76 70 58 55 50 55 c 0
 47 55 46 57 46 61 c 0
 46 86 45 112 45 140 c 0
 45 199 46 264 46 323 c 0
 46 342 46 352 46 355 c 0
 46 373 69 381 92 382 c 0
 100 382 110 390 116 390 c 0
 121 390 124 385 124 370 c 0
 124 298 122 247 122 190 c 0
 122 160 123 129 124 92 c 1
124 500 m 0
 124 484 105 489 86 484 c 0
 73 481 59 472 52 472 c 0
 49 472 47 474 47 478 c 0
 47 489 47 523 47 591 c 0
 47 620 47 649 47 678 c 0
 47 692 47 707 47 720 c 1
 47 739 70 743 87 750 c 0
 96 754 110 762 118 762 c 0
 121 762 124 760 124 756 c 1
 124 669 123 572 123 519 c 0
 123 512 124 505 124 500 c 0
EndSplineSet
Validated: 1
EndChar

StartChar: section
Encoding: 167 167 420
Width: 324
Flags: HW
LayerCount: 2
Fore
SplineSet
88 369 m 16
 88 365 87 361 87 357 c 0
 87 339 92 325 100 307 c 8
 109 287 115 270 135 262 c 17
 135 262 153 259 173 259 c 0
 192 259 213 262 221 272 c 9
 231 310 246 330 248 369 c 16
 249 384 251 398 251 411 c 0
 251 429 246 445 231 459 c 0
 215 474 195 481 175 481 c 0
 159 481 142 476 127 467 c 8
 92 445 92 410 88 369 c 16
52 110 m 16
 83 94 106 73 134 73 c 0
 142 73 151 75 160 79 c 0
 177 86 184 110 184 132 c 0
 184 145 182 157 176 164 c 8
 160 183 136 175 117 190 c 24
 78 221 44 268 39 293 c 0
 33 321 30 344 30 367 c 0
 30 395 35 421 44 454 c 8
 55 493 59 502 96 545 c 0
 100 549 102 554 102 558 c 0
 102 584 35 600 35 638 c 0
 35 667 63 671 76 696 c 16
 95 731 109 792 137 792 c 0
 141 792 147 789 152 786 c 0
 231 734 235 691 268 678 c 16
 273 676 279 675 284 675 c 0
 294 675 303 678 311 678 c 0
 316 678 318 676 318 673 c 0
 318 663 297 641 284 631 c 0
 271 621 258 616 247 616 c 0
 214 616 191 653 174 665 c 0
 157 677 141 708 128 708 c 0
 125 708 122 706 119 702 c 0
 108 688 103 676 103 667 c 0
 103 657 108 648 111 638 c 1
 113 632 114 623 114 615 c 1
 114 615 160 567 177 563 c 9
 221 539 259 542 291 503 c 16
 308 481 314 455 314 427 c 0
 314 353 271 270 266 248 c 8
 260 220 247 208 242 180 c 16
 238 158 237 137 237 118 c 0
 237 106 237 93 237 83 c 0
 237 71 236 59 234 51 c 0
 231 36 219 33 205 33 c 0
 196 33 185 34 176 34 c 0
 169 34 162 34 156 32 c 0
 132 26 119 12 96 12 c 0
 95 12 93 12 92 12 c 8
 75 13 66 22 52 31 c 24
 35 42 12 46 12 66 c 0
 12 79 28 79 37 89 c 8
 43 96 43 115 52 110 c 16
EndSplineSet
Validated: 1
EndChar

StartChar: copyright
Encoding: 169 169 422
Width: 556
Flags: HW
HStem: 145 20<278 291> 551 20<278 291>
VStem: 94 20<341 376> 208 43<267 365> 210 41<336 379> 442 20<358 376>
LayerCount: 2
Fore
SplineSet
282 282 m 24
 299 289 319 307 323 307 c 1
 323 306 322 304 322 302 c 0
 312 274 300 273 286 255 c 17
 272 235 268 240 253 228 c 9x80
 242 235 235 239 225 247 c 24
 217 254 208 257 208 267 c 16x80
 208 306 210 309 210 336 c 16x40
 210 340 210 344 210 347 c 0
 210 359 210 372 210 382 c 0
 210 389 210 396 210 402 c 0
 212 431 229 433 245 449 c 16
 251 455 275 484 297 484 c 0
 300 484 304 483 307 481 c 8
 315 476 318 470 325 463 c 26
 344 443 l 2
 345 441 347 440 347 438 c 0
 347 432 339 425 334 419 c 0
 326 410 317 407 311 407 c 0
 300 407 292 417 289 419 c 8
 280 425 293 422 267 436 c 0
 266 437 265 436 265 436 c 0
 258 436 257 411 254 397 c 0
 253 390 251 369 251 349 c 0
 251 332 252 315 254 306 c 8
 256 296 265 295 272 288 c 24
 275 285 278 280 282 282 c 24
279 571 m 0xe4
 381 571 463 475 463 358 c 0
 463 241 381 145 279 145 c 0
 177 145 94 241 94 358 c 0
 94 475 177 571 279 571 c 0xe4
279 551 m 0
 190 551 115 466 115 358 c 0
 115 250 190 166 279 166 c 0
 368 166 442 250 442 358 c 0
 442 466 368 551 279 551 c 0
EndSplineSet
Validated: 1
EndChar

StartChar: logicalnot
Encoding: 172 172 425
Width: 322
Flags: HW
HStem: 335 41<60 250>
LayerCount: 2
Fore
SplineSet
62 376 m 16
 67 376 129 376 188 376 c 0
 219 376 248 376 270 376 c 0
 280 376 289 376 294 376 c 0
 297 376 298 375 298 373 c 0
 298 369 289 359 279 335 c 2
 225 219 l 1
 209 219 l 2
 208 219 208 220 208 221 c 0
 208 235 251 319 251 332 c 0
 251 333 251 334 250 334 c 0
 248 334 241 334 229 334 c 0
 167 334 136 336 87 336 c 0
 74 336 59 335 42 335 c 0
 40 335 39 337 39 338 c 0
 39 342 45 350 48 355 c 8
 52 364 53 376 62 376 c 16
EndSplineSet
Validated: 1
EndChar

StartChar: registered
Encoding: 174 174 427
Width: 528
Flags: HW
HStem: 144 20<264 278> 550 20<264 278>
VStem: 80 20<357 375> 211 49<236 318> 428 20<357 375>
LayerCount: 2
Fore
SplineSet
314 433 m 0
 313 433 312 438 310 453 c 0
 310 455 309 455 308 455 c 0
 304 455 297 448 292 445 c 8
 282 439 270 436 269 424 c 16
 266 383 259 365 259 287 c 0
 259 280 259 271 259 263 c 0
 259 260 261 259 263 259 c 0
 268 259 279 266 286 268 c 0
 298 272 310 290 318 290 c 0
 320 290 323 289 325 286 c 0
 327 284 327 283 327 281 c 0
 327 271 308 263 297 255 c 8
 282 244 271 238 253 234 c 16
 243 232 229 227 220 227 c 0
 214 227 211 230 211 237 c 0
 211 323 213 418 213 425 c 0
 213 428 210 429 206 429 c 0
 197 429 181 423 178 423 c 9
 179 424 178 424 179 425 c 0
 196 438 197 437 209 444 c 16
 222 452 231 463 245 463 c 0
 246 463 247 463 248 463 c 8
 256 463 256 451 264 451 c 16
 265 451 266 451 267 451 c 0
 278 451 285 460 296 464 c 0
 299 465 326 481 344 481 c 0
 350 481 354 479 357 475 c 0
 359 472 359 470 359 468 c 0
 359 462 356 456 355 449 c 8
 353 436 355 426 348 415 c 16
 343 407 338 400 332 400 c 0
 327 400 320 406 316 415 c 0
 314 418 315 420 315 423 c 0
 315 426 314 430 314 433 c 0
264 570 m 0
 366 570 449 474 449 357 c 0
 449 240 366 144 264 144 c 0
 162 144 80 240 80 357 c 0
 80 474 162 570 264 570 c 0
264 550 m 0
 175 550 100 465 100 357 c 0
 100 249 175 165 264 165 c 0
 353 165 428 249 428 357 c 0
 428 465 353 550 264 550 c 0
EndSplineSet
Validated: 1
EndChar

StartChar: uni00B5
Encoding: 181 181 433
Width: 349
Flags: HW
VStem: 66 84<-62 117> 253 63<151 178 178 197 228 323 323 342>
LayerCount: 2
Fore
SplineSet
111 23 m 0
 105 -45 112 -23 100 -99 c 0
 96 -125 86 -180 77 -180 c 0
 75 -180 74 -178 72 -173 c 0
 66 -156 63 -139 63 -124 c 0
 63 -107 66 -89 66 -67 c 0
 66 -60 66 -52 66 -29 c 0
 66 135 83 212 83 294 c 0
 83 320 81 346 77 375 c 0
 76 380 72 382 67 382 c 0
 61 382 52 379 46 378 c 0
 34 375 15 352 12 352 c 0
 11 352 11 353 12 356 c 0
 24 387 29 382 41 396 c 16
 52 408 73 440 105 440 c 0
 109 440 113 440 117 439 c 0
 132 435 151 431 151 416 c 0
 151 403 150 402 150 351 c 0
 150 319 150 261 150 117 c 0
 150 94 179 81 206 81 c 0
 222 81 238 86 243 98 c 0
 250 114 251 130 251 147 c 0
 251 157 251 169 251 181 c 0
 251 186 251 192 251 197 c 0
 253 231 254 254 254 282 c 0
 254 309 253 322 253 326 c 0
 253 337 255 345 255 354 c 0
 255 362 253 371 248 381 c 0
 247 384 244 385 241 385 c 0
 230 385 211 371 205 371 c 0
 204 371 203 371 203 373 c 0
 203 396 230 416 230 416 c 24
 247 433 258 450 283 452 c 16
 284 452 285 452 287 452 c 0
 299 452 313 448 313 436 c 0
 313 386 316 382 316 177 c 0
 316 151 313 134 313 114 c 0
 313 104 314 92 316 80 c 0
 318 72 329 61 329 50 c 0
 329 42 323 34 304 25 c 0
 292 19 280 16 271 16 c 0
 242 16 227 37 212 37 c 0
 197 37 190 25 175 22 c 0
 173 22 171 22 169 22 c 0
 153 22 133 33 121 33 c 0
 116 33 112 30 111 23 c 0
EndSplineSet
Validated: 1
EndChar

StartChar: ccedilla
Encoding: 231 231 455
Width: 306
Flags: HW
VStem: 18 84<175 259>
LayerCount: 2
Fore
SplineSet
249 137 m 1
 249 136 248 132 247 129 c 0
 225 80 202 79 173 46 c 17
 172 37 146 11 146 0 c 0
 144 -46 141 -80 141 -116 c 1
 111 -129 50 -168 40 -168 c 1
 40 -167 41 -163 45 -159 c 0
 73 -128 83 -138 91 -113 c 16
 96 -98 98 -76 98 -57 c 0
 98 -35 95 -14 89 0 c 0
 81 18 50 14 50 26 c 0
 50 51 14 46 14 68 c 16
 14 136 18 141 18 188 c 16
 18 195 18 202 18 208 c 0
 18 230 18 249 18 267 c 0
 18 280 18 292 19 303 c 0
 24 353 57 357 90 385 c 24
 125 414 145 431 188 445 c 16
 191 446 196 446 199 446 c 0
 227 446 241 420 253 410 c 10
 293 375 l 2
 296 372 298 369 298 366 c 0
 298 355 281 342 271 332 c 0
 254 316 238 310 225 310 c 0
 202 310 186 327 179 332 c 8
 163 344 188 337 136 362 c 0
 134 363 133 364 132 364 c 0
 117 364 114 321 108 295 c 8
 103 273 102 262 102 240 c 16
 102 229 102 218 102 209 c 0
 102 108 113 128 145 104 c 8
 152 99 156 92 164 92 c 16
 165 92 165 92 166 92 c 0
 195 92 241 137 249 137 c 1
EndSplineSet
Validated: 1
EndChar

StartChar: oslash
Encoding: 248 248 465
Width: 348
Flags: HW
VStem: 18 86<168 262>
LayerCount: 2
Fore
SplineSet
67 50 m 1
 58 37 50 26 46 20 c 0
 44 16 39 15 35 15 c 0
 28 15 22 18 22 19 c 0
 22 23 32 39 48 62 c 1
 40 68 34 75 29 85 c 0
 20 102 17 118 17 133 c 0
 17 143 18 154 18 165 c 0
 18 167 18 169 18 171 c 0
 18 182 18 194 18 204 c 0
 18 374 54 360 144 429 c 0
 161 442 179 447 194 447 c 0
 217 447 239 437 266 429 c 0
 275 426 286 424 295 421 c 1
 304 437 311 452 316 465 c 0
 317 466 319 467 321 467 c 0
 327 467 333 467 339 467 c 0
 344 467 347 466 347 465 c 2
 347 463 l 1
 337 444 326 423 315 404 c 1
 316 402 317 399 317 396 c 0
 324 340 320 313 329 253 c 0
 332 234 333 217 333 203 c 0
 333 177 330 157 330 125 c 1
 315 56 293 67 261 48 c 1
 217 37 193 15 151 15 c 0
 147 15 142 15 138 15 c 0
 107 18 93 33 67 50 c 1
174 355 m 0
 144 352 135 339 116 312 c 0
 106 299 104 273 104 243 c 0
 104 233 104 222 104 211 c 0
 104 206 104 202 104 197 c 0
 104 195 104 191 104 189 c 0
 104 170 106 155 110 144 c 1
 140 183 168 223 190 255 c 2
 238 328 l 1
 235 334 231 339 226 342 c 0
 211 352 218 357 204 357 c 0
 198 357 189 357 174 355 c 0
246 294 m 1
 202 229 158 170 122 123 c 1
 131 114 145 106 161 99 c 0
 180 90 211 79 231 79 c 0
 243 79 252 83 252 95 c 0
 252 104 249 113 249 189 c 0
 249 200 249 212 249 222 c 0
 249 249 248 274 246 294 c 1
EndSplineSet
Validated: 1
EndChar

StartChar: Aogonek
Encoding: 260 260 472
Width: 633
Flags: HW
VStem: 421 104<172 283>
LayerCount: 2
Fore
SplineSet
433 375 m 0
 437 407 442 500 442 562 c 0
 442 597 440 624 436 624 c 0
 410 624 405 588 396 565 c 0
 388 543 392 555 295 384 c 1
 321 376 319 374 324 374 c 0
 328 374 336 375 366 375 c 0
 389 375 410 364 422 364 c 0
 428 364 432 366 433 375 c 0
117 357 m 0
 117 353 122 247 137 247 c 0
 139 247 141 249 143 252 c 0
 215 349 275 435 310 507 c 0
 344 578 372 599 390 670 c 0
 391 673 391 675 391 677 c 0
 391 681 389 682 387 682 c 0
 373 682 325 631 298 611 c 0
 255 577 234 554 197 513 c 0
 162 474 117 444 117 357 c 0
34 12 m 0
 19 12 7 28 7 40 c 0
 7 62 36 85 49 111 c 0
 71 152 132 205 132 227 c 0
 132 230 129 232 124 232 c 0
 116 232 103 229 92 229 c 0
 84 229 77 232 72 236 c 0
 46 260 39 284 39 316 c 0
 39 405 82 447 126 501 c 0
 191 580 241 614 326 670 c 0
 378 705 413 750 475 750 c 0
 504 750 536 741 538 713 c 0
 539 691 540 673 540 657 c 0
 540 575 525 535 525 283 c 0
 525 235 515 198 515 159 c 0
 515 109 535 52 566 52 c 0
 583 52 599 78 612 78 c 0
 619 78 626 68 626 60 c 0
 626 44 606 27 590 15 c 0
 584 10 576 6 570 4 c 1
 570 -4 l 2
 570 -20 567 -37 567 -53 c 0
 567 -63 568 -75 573 -86 c 0
 583 -110 592 -101 620 -132 c 0
 623 -135 624 -138 624 -139 c 0
 624 -140 623 -141 621 -141 c 0
 608 -141 553 -112 537 -89 c 0
 522 -70 516 -62 516 -38 c 0
 516 -28 517 -16 518 0 c 1
 463 3 448 20 439 31 c 0
 422 54 418 74 418 98 c 0
 418 118 421 141 421 166 c 0
 421 172 421 173 421 181 c 0
 421 223 430 276 430 286 c 0
 430 310 394 303 369 309 c 0
 339 317 320 325 293 325 c 0
 216 325 221 276 184 219 c 0
 164 186 148 170 132 135 c 0
 128 126 116 111 116 105 c 0
 116 103 118 102 120 102 c 0
 132 102 164 112 182 112 c 0
 186 112 192 112 197 111 c 0
 237 107 267 108 295 77 c 0
 302 70 313 69 323 69 c 0
 326 69 330 69 333 69 c 0
 347 69 356 66 356 52 c 0
 356 26 322 22 295 15 c 0
 285 12 275 11 266 11 c 0
 247 11 230 17 206 22 c 0
 171 29 155 49 121 49 c 0
 87 49 59 12 34 12 c 0
EndSplineSet
Validated: 1
EndChar

StartChar: Gcommaaccent
Encoding: 290 290 486
Width: 728
Flags: HW
VStem: 268 36<261 460>
LayerCount: 2
Fore
SplineSet
357 312 m 0
 357 328 381 351 393 369 c 0
 401 381 406 398 436 398 c 0
 461 398 479 383 504 369 c 0
 522 359 541 353 541 329 c 0
 541 311 526 300 513 286 c 0
 490 262 475 254 462 254 c 0
 447 254 435 264 421 270 c 0
 414 273 357 294 357 312 c 0
269 685 m 0
 269 696 266 700 260 700 c 0
 241 700 196 654 171 632 c 0
 117 583 106 525 106 478 c 0
 106 459 109 441 110 427 c 0
 116 345 114 292 157 221 c 0
 172 195 222 147 247 147 c 0
 254 147 259 153 260 163 c 0
 269 254 269 640 269 685 c 0
769 772 m 0
 780 772 798 764 798 759 c 0
 798 755 679 670 551 670 c 0
 483 670 448 698 406 707 c 0
 380 713 345 735 327 735 c 0
 319 735 313 731 313 721 c 0
 310 640 303 583 303 506 c 0
 303 461 305 461 305 393 c 0
 305 334 303 267 303 214 c 0
 303 177 304 147 307 132 c 0
 312 103 340 97 369 89 c 0
 378 87 386 86 393 86 c 0
 411 86 427 91 449 95 c 0
 484 101 508 97 535 120 c 0
 579 158 585 199 596 255 c 0
 601 284 605 306 605 330 c 0
 605 355 601 379 590 409 c 0
 576 447 559 466 525 488 c 0
 491 510 466 505 427 513 c 0
 423 514 420 514 416 514 c 0
 405 514 393 512 383 512 c 0
 371 512 361 515 361 531 c 0
 361 563 411 567 445 579 c 0
 467 586 483 589 501 589 c 0
 508 589 516 589 525 588 c 0
 575 583 619 588 648 547 c 0
 682 499 691 451 691 399 c 0
 691 367 688 335 685 298 c 0
 678 210 630 124 584 76 c 0
 548 39 511 39 461 27 c 0
 437 21 405 16 369 15 c 1
 369 14 369 14 369 13 c 0
 370 -4 371 -17 371 -27 c 0
 371 -51 365 -59 350 -78 c 0
 334 -101 279 -130 266 -130 c 0
 264 -130 263 -129 263 -128 c 0
 263 -127 264 -124 267 -121 c 0
 295 -90 303 -99 313 -75 c 0
 318 -64 319 -52 319 -42 c 0
 319 -26 316 -9 316 7 c 2
 316 16 l 1
 289 17 265 21 246 25 c 0
 184 39 141 44 94 87 c 0
 32 144 11 183 11 294 c 0
 11 337 14 391 19 461 c 0
 22 506 34 531 58 570 c 0
 109 656 203 709 261 740 c 0
 302 762 331 800 370 800 c 0
 377 800 385 799 393 796 c 0
 434 781 455 779 495 771 c 0
 561 758 587 749 628 749 c 0
 652 749 681 752 725 759 c 0
 742 762 754 772 769 772 c 0
EndSplineSet
Validated: 1
EndChar

StartChar: gcommaaccent
Encoding: 291 291 487
Width: 348
Flags: HW
LayerCount: 2
Fore
SplineSet
201 73 m 0
 207 67 214 76 222 78 c 1
 220 116 220 143 220 169 c 0
 220 194 221 215 222 240 c 0
 222 248 222 255 222 261 c 0
 222 268 222 275 222 282 c 0
 222 296 222 310 219 332 c 0
 219 334 219 335 219 337 c 0
 219 345 220 352 220 359 c 0
 220 369 216 380 196 394 c 0
 179 405 169 411 161 411 c 0
 151 411 145 403 137 396 c 0
 129 390 120 388 120 378 c 0
 119 366 119 349 119 331 c 0
 119 272 123 189 132 162 c 0
 146 122 187 90 201 73 c 0
143 -56 m 0
 160 -70 170 -78 180 -78 c 0
 188 -78 197 -74 209 -66 c 0
 224 -56 231 -50 231 -41 c 0
 231 -34 228 -24 221 -8 c 0
 217 3 217 12 206 17 c 0
 203 18 200 18 198 18 c 0
 187 18 180 7 160 7 c 0
 136 7 115 -7 115 -27 c 0
 115 -41 131 -46 143 -56 c 0
138 -152 m 1
 139 -169 140 -181 140 -191 c 0
 140 -215 135 -224 120 -243 c 0
 104 -266 49 -295 36 -295 c 0
 34 -295 33 -294 33 -293 c 0
 33 -292 34 -289 37 -286 c 0
 65 -255 73 -264 83 -240 c 0
 88 -229 89 -217 89 -207 c 0
 89 -192 86 -175 86 -160 c 1
 78 -153 71 -141 62 -133 c 0
 48 -120 25 -109 25 -84 c 0
 25 -65 41 -56 51 -39 c 0
 63 -17 83 -9 83 16 c 0
 83 33 70 39 61 52 c 0
 51 67 32 71 32 88 c 0
 32 93 33 98 33 135 c 0
 33 178 31 224 31 262 c 0
 31 295 33 321 37 334 c 0
 51 377 69 373 93 396 c 0
 131 432 165 459 199 481 c 1
 199 481 233 454 257 445 c 1
 290 439 293 435 303 435 c 0
 309 435 318 437 341 440 c 1
 338 406 315 418 306 404 c 1
 304 396 301 391 301 382 c 0
 301 314 307 114 308 46 c 0
 308 42 308 37 308 33 c 0
 308 2 307 -17 307 -53 c 0
 307 -75 297 -64 291 -70 c 1
 242 -89 230 -102 188 -122 c 0
 166 -133 155 -143 138 -152 c 1
EndSplineSet
Validated: 1
EndChar

StartChar: Hbar
Encoding: 294 294 490
Width: 695
Flags: HW
HStem: 638 41<156 536>
VStem: 19 100<519 553> 393 40<402 482> 393 43<482 507>
LayerCount: 2
Fore
SplineSet
204 671 m 0
 213 689 208 692 237 692 c 0
 240 692 243 692 246 692 c 1
 234 717 215 736 184 746 c 0
 178 748 173 750 167 750 c 0
 127 750 90 701 90 656 c 0
 90 612 120 570 120 519 c 1
 6 449 l 1
 6 451 5 453 5 456 c 0
 5 481 19 524 19 553 c 0
 19 594 22 639 22 679 c 1
 53 750 71 768 120 796 c 1
 143 806 188 824 221 824 c 0
 261 824 317 764 319 762 c 0
 337 740 348 716 354 691 c 1
 369 691 385 692 399 692 c 0
 414 692 432 691 450 691 c 1
 452 690 453 689 453 688 c 0
 453 683 443 672 440 664 c 0
 438 659 439 650 434 650 c 2
 361 650 l 1
 367 590 358 537 384 537 c 0
 414 537 480 599 525 599 c 0
 533 599 541 597 547 593 c 0
 595 559 690 522 690 409 c 0
 690 365 675 323 673 270 c 0
 669 165 632 81 632 -4 c 0
 632 -44 640 -85 664 -129 c 0
 678 -156 728 -139 728 -170 c 0
 728 -184 711 -187 697 -190 c 0
 679 -194 661 -198 645 -198 c 0
 589 -198 539 -156 539 -74 c 0
 539 -45 544 -12 544 22 c 0
 544 106 588 163 588 233 c 0
 588 288 567 304 536 304 c 0
 494 304 434 271 399 233 c 0
 379 211 375 179 375 142 c 0
 375 117 377 91 378 65 c 0
 378 60 382 57 388 57 c 0
 394 57 404 59 410 59 c 0
 420 59 421 54 421 48 c 0
 421 16 374 9 339 9 c 0
 293 9 274 58 227 58 c 0
 178 58 96 -6 79 -6 c 0
 77 -6 76 -5 76 -3 c 0
 76 -1 77 3 80 9 c 0
 129 104 197 172 237 292 c 0
 262 365 278 416 278 482 c 0
 278 501 276 521 273 544 c 0
 268 581 266 618 259 651 c 1
 254 651 248 651 242 651 c 0
 231 651 217 651 198 650 c 0
 196 650 196 651 196 652 c 0
 196 656 201 666 204 671 c 0
194 101 m 0
 192 97 190 94 190 92 c 0
 190 87 196 85 203 85 c 0
 226 85 274 107 298 123 c 0
 307 130 310 136 310 144 c 0
 310 164 285 189 276 209 c 0
 272 217 268 221 264 221 c 0
 242 221 214 137 194 101 c 0
360 341 m 0
 368 341 403 350 403 402 c 0
 403 430 393 454 393 482 c 0
 393 487 389 489 384 489 c 0
 372 489 350 478 350 467 c 0
 350 464 351 464 351 452 c 0
 351 429 346 389 346 365 c 0
 346 352 347 341 360 341 c 0
433 402 m 0
 433 387 438 381 447 381 c 0
 473 381 529 431 581 449 c 0
 591 453 590 466 587 476 c 0
 576 518 551 545 495 545 c 0
 465 545 436 535 436 507 c 0
 436 470 433 442 433 402 c 0
594 372 m 0
 594 389 563 392 552 392 c 0
 532 392 509 385 485 378 c 0
 467 372 479 369 442 351 c 0
 434 347 432 345 432 342 c 0
 432 338 436 331 436 317 c 0
 436 310 435 307 435 304 c 0
 435 299 437 297 440 297 c 0
 451 297 482 323 501 329 c 0
 535 339 565 325 587 353 c 0
 591 358 594 366 594 372 c 0
391 271 m 0
 394 271 394 267 396 267 c 0
 398 267 399 276 399 286 c 0
 399 303 397 326 397 326 c 1
 396 314 356 320 356 302 c 0
 356 292 349 277 349 263 c 0
 349 255 350 254 352 254 c 0
 359 254 383 271 391 271 c 0
EndSplineSet
Validated: 1
EndChar

StartChar: hbar
Encoding: 295 295 491
Width: 346
Flags: HW
HStem: 552 41<-38 189>
LayerCount: 2
Fore
SplineSet
-26 802 m 0
 26 767 36 734 80 734 c 0
 82 734 85 734 88 734 c 0
 113 736 114 762 136 774 c 0
 154 784 171 797 188 797 c 0
 191 797 195 797 199 796 c 0
 204 795 206 791 206 788 c 0
 206 776 176 754 166 737 c 0
 154 715 157 707 132 682 c 0
 124 674 121 663 121 652 c 0
 121 638 125 622 125 606 c 0
 125 601 124 596 124 584 c 1
 136 584 149 584 160 584 c 0
 175 584 192 583 210 583 c 1
 212 582 213 581 213 580 c 0
 213 575 204 563 201 555 c 0
 199 550 200 542 195 542 c 2
 125 542 l 1
 126 524 127 504 127 485 c 0
 127 466 126 456 126 453 c 0
 126 447 128 445 131 445 c 0
 143 445 177 477 197 488 c 0
 222 501 231 518 258 525 c 0
 270 528 285 536 296 536 c 0
 303 536 308 532 310 525 c 0
 333 460 339 431 339 385 c 0
 339 375 338 363 338 350 c 0
 334 236 328 169 270 68 c 0
 223 -13 152 -114 111 -160 c 0
 99 -174 64 -194 52 -194 c 0
 49 -194 48 -192 48 -189 c 0
 48 -188 48 -186 49 -184 c 0
 71 -138 90 -125 114 -86 c 0
 163 -5 203 36 230 126 c 0
 242 169 247 203 247 239 c 0
 247 265 245 291 243 323 c 0
 240 369 249 381 218 439 c 0
 216 443 214 444 211 444 c 0
 203 444 191 431 178 427 c 0
 153 419 127 413 126 387 c 0
 121 256 120 188 120 144 c 0
 120 121 120 105 120 90 c 0
 120 67 120 46 117 7 c 0
 117 1 111 0 105 0 c 0
 98 0 90 0 82 0 c 0
 79 0 77 1 74 0 c 0
 72 0 70 0 68 0 c 0
 60 0 52 0 45 0 c 0
 39 0 34 1 34 7 c 0
 34 14 35 36 35 80 c 0
 35 138 33 190 31 261 c 0
 30 295 30 326 30 356 c 0
 30 392 30 427 30 464 c 0
 30 489 29 515 29 543 c 1
 21 543 10 543 0 543 c 0
 -11 543 -23 543 -42 542 c 0
 -44 542 -44 543 -44 544 c 0
 -44 548 -39 557 -36 562 c 0
 -27 580 -32 584 -3 584 c 0
 5 584 16 583 30 583 c 1
 31 596 32 610 32 622 c 0
 32 633 31 644 27 657 c 0
 19 688 -3 698 -13 728 c 0
 -20 747 -36 785 -36 799 c 0
 -36 803 -34 805 -32 805 c 0
 -31 805 -29 804 -26 802 c 0
EndSplineSet
Validated: 1
EndChar

StartChar: Iogonek
Encoding: 302 302 498
Width: 352
Flags: HW
VStem: 166 52<184 479>
LayerCount: 2
Fore
SplineSet
-23 -156 m 1
 -21 -156 -23 -168 -23 -171 c 0
 -23 -173 -23 -176 -23 -178 c 0
 -23 -190 -25 -203 -25 -215 c 0
 -25 -223 -24 -232 -20 -240 c 0
 -12 -257 -6 -251 14 -274 c 0
 16 -276 17 -279 17 -280 c 0
 17 -281 17 -282 15 -282 c 0
 5 -282 -36 -258 -48 -242 c 0
 -59 -228 -63 -221 -63 -204 c 0
 -63 -200 -62 -194 -62 -188 c 1
 -68 -193 -73 -196 -75 -196 c 0
 -76 -196 -76 -195 -76 -194 c 0
 -76 -178 95 11 135 114 c 0
 158 170 159 207 163 267 c 0
 165 291 171 309 171 327 c 0
 171 340 163 375 151 375 c 0
 141 375 126 361 114 356 c 0
 94 348 76 316 62 316 c 0
 55 316 49 326 49 332 c 0
 49 347 83 357 98 372 c 0
 120 394 171 416 171 450 c 0
 171 459 166 467 166 479 c 0
 166 490 174 502 174 510 c 0
 174 518 166 522 160 522 c 0
 146 522 134 500 117 492 c 0
 102 485 86 465 74 465 c 0
 66 465 60 475 60 482 c 0
 60 502 103 516 123 538 c 0
 140 556 171 562 171 600 c 0
 171 610 169 620 169 635 c 0
 169 644 169 652 169 660 c 0
 169 720 127 708 104 719 c 0
 103 720 101 720 99 720 c 0
 81 720 43 690 33 690 c 0
 31 690 30 690 30 692 c 0
 30 693 30 695 31 697 c 0
 46 737 73 740 104 762 c 0
 117 771 130 774 143 774 c 0
 158 774 176 770 194 768 c 0
 225 765 237 746 269 746 c 0
 305 746 333 774 361 774 c 0
 368 774 382 771 382 767 c 0
 382 760 345 750 344 734 c 0
 335 633 348 544 326 433 c 0
 307 334 300 273 252 184 c 0
 219 123 173 83 135 34 c 0
 83 -35 31 -105 -23 -156 c 1
310 659 m 0
 310 693 286 710 270 710 c 0
 248 710 234 694 234 634 c 0
 234 601 240 567 240 528 c 0
 240 452 218 240 218 184 c 0
 218 174 219 169 221 169 c 0
 232 169 268 286 280 338 c 0
 294 399 295 443 295 495 c 0
 295 506 295 519 295 531 c 0
 295 620 310 618 310 659 c 0
EndSplineSet
Validated: 1
EndChar

StartChar: iogonek
Encoding: 303 303 499
Width: 223
Flags: HW
VStem: 66 83<108 263 252 346>
LayerCount: 2
Fore
SplineSet
176 17 m 17
 176 14 176 10 176 7 c 0
 176 -9 173 -26 173 -42 c 0
 173 -52 174 -64 179 -75 c 0
 189 -99 197 -90 225 -121 c 0
 228 -124 229 -127 229 -128 c 0
 229 -129 228 -130 226 -130 c 0
 213 -130 158 -101 142 -78 c 0
 127 -59 122 -51 122 -27 c 0
 122 -19 122 -8 123 4 c 1
 115 9 109 19 99 27 c 0
 72 47 47 62 32 80 c 0
 31 81 30 83 30 84 c 0
 30 93 66 93 66 108 c 0
 66 149 66 174 66 203 c 0
 66 217 66 234 66 252 c 0
 66 288 71 318 71 347 c 0
 71 357 71 368 69 378 c 0
 67 386 57 383 49 383 c 0
 39 383 21 373 16 373 c 0
 15 373 14 373 14 374 c 0
 14 375 14 376 15 377 c 0
 33 417 37 409 55 423 c 0
 78 440 107 450 130 450 c 0
 141 450 152 447 158 442 c 0
 170 434 178 423 178 410 c 0
 178 407 177 402 176 399 c 0
 172 388 149 396 148 384 c 0
 147 364 147 350 147 342 c 0
 147 325 148 323 148 301 c 0
 148 255 150 220 150 183 c 0
 150 145 148 126 148 120 c 0
 148 105 155 95 164 83 c 0
 172 72 187 74 191 61 c 0
 192 58 194 54 194 51 c 0
 194 40 186 32 179 22 c 2
 176 17 l 17
EndSplineSet
Validated: 1
EndChar

StartChar: dotlessi
Encoding: 305 305 501
Width: 212
Flags: HW
HStem: 445 20G<140 148>
VStem: 41 119<81 152> 77 83<92 398>
LayerCount: 2
Fore
SplineSet
147 0 m 8xc0
 130 0 125 17 111 27 c 24
 84 47 58 62 43 80 c 0
 42 81 41 83 41 84 c 0xc0
 41 93 77 93 77 108 c 0
 77 149 77 174 77 203 c 0
 77 217 77 234 77 252 c 0
 77 293 82 328 82 360 c 0
 82 371 82 383 80 393 c 0
 79 396 78 398 76 398 c 0
 69 398 56 386 46 384 c 0
 37 382 20 373 14 373 c 0
 12 373 11 374 11 375 c 0
 11 376 11 377 12 378 c 0
 30 418 34 409 52 424 c 24
 75 442 88 455 117 461 c 16
 127 463 136 466 144 466 c 0
 152 466 161 464 169 458 c 0
 181 450 189 438 189 425 c 0
 189 422 188 418 187 415 c 8
 183 404 161 411 160 399 c 16
 159 379 159 365 159 357 c 0
 159 340 160 338 160 316 c 0xa0
 160 266 161 227 161 186 c 0
 161 146 160 126 160 120 c 0
 160 105 166 95 175 83 c 8
 183 72 199 74 203 61 c 16
 204 58 205 54 205 51 c 0
 205 40 198 31 190 22 c 8
 178 8 175 0 147 0 c 8xc0
EndSplineSet
Validated: 1
EndChar

StartChar: IJ
Encoding: 306 306 502
Width: 556
Flags: HW
VStem: 219 52<184 479> 412 55<657 682>
LayerCount: 2
Fore
SplineSet
390 765 m 0
 458 808 l 2
 462 810 466 811 470 811 c 0
 483 811 498 802 498 790 c 0
 501 710 501 685 501 636 c 0
 501 624 525 629 525 616 c 0
 525 602 501 604 498 590 c 0
 470 470 472 386 443 258 c 0
 421 166 419 109 375 25 c 0
 338 -47 311 -89 246 -138 c 0
 211 -165 126 -205 109 -205 c 0
 107 -205 105 -205 105 -204 c 0
 105 -202 108 -199 114 -194 c 0
 194 -126 233 -119 280 -46 c 0
 366 89 377 188 399 347 c 0
 414 456 415 553 415 560 c 0
 415 570 407 572 397 572 c 0
 389 572 378 570 368 570 c 0
 359 570 350 573 344 578 c 0
 342 579 340 581 339 582 c 1
 338 535 336 486 326 433 c 0
 307 334 300 273 252 184 c 0
 219 123 173 83 135 34 c 0
 74 -46 18 -125 -49 -178 c 0
 -63 -189 -72 -196 -75 -196 c 0
 -76 -196 -76 -195 -76 -194 c 0
 -76 -178 95 11 135 114 c 0
 158 170 159 207 163 267 c 0
 165 291 171 309 171 327 c 0
 171 340 163 375 151 375 c 0
 141 375 126 361 114 356 c 0
 94 348 76 316 62 316 c 0
 55 316 49 326 49 332 c 0
 49 347 83 357 98 372 c 0
 120 394 171 416 171 450 c 0
 171 459 166 467 166 479 c 0
 166 490 174 502 174 510 c 0
 174 518 166 522 160 522 c 0
 146 522 134 500 117 492 c 0
 102 485 86 465 74 465 c 0
 66 465 60 475 60 482 c 0
 60 502 103 516 123 538 c 0
 140 556 171 562 171 600 c 0
 171 610 169 620 169 635 c 0
 169 644 169 652 169 660 c 0
 169 720 127 708 104 719 c 0
 103 720 101 720 99 720 c 0
 81 720 43 690 33 690 c 0
 31 690 30 690 30 692 c 0
 30 693 30 695 31 697 c 0
 46 737 73 740 104 762 c 0
 117 771 130 774 143 774 c 0
 158 774 176 770 194 768 c 0
 225 765 237 746 269 746 c 0
 305 746 333 774 361 774 c 0
 368 774 381 772 382 767 c 0
 383 760 390 764 390 765 c 0
424 655 m 0
 424 679 430 693 430 708 c 0
 430 716 429 724 424 734 c 0
 421 740 416 742 410 742 c 0
 407 742 402 741 399 740 c 0
 389 737 387 728 381 719 c 0
 370 701 366 690 366 681 c 0
 366 670 373 660 384 642 c 0
 391 631 394 621 406 614 c 0
 414 609 430 603 430 610 c 0
 430 614 424 635 424 655 c 0
310 659 m 0
 310 693 286 710 270 710 c 0
 248 710 234 694 234 634 c 0
 234 601 240 567 240 528 c 0
 240 452 218 240 218 184 c 0
 218 174 219 169 221 169 c 0
 232 169 268 286 280 338 c 0
 294 399 295 443 295 495 c 0
 295 506 295 519 295 531 c 0
 295 618 309 621 310 659 c 0
EndSplineSet
Validated: 1
LCarets2: 1 0 
Ligature2: "'liga' Standard Ligatures in Latin lookup 0 subtable" I J
EndChar

StartChar: ij
Encoding: 307 307 503
Width: 431
Flags: HW
VStem: 66 83<108 263 252 346> 229 83<108 276 252 346>
LayerCount: 2
Fore
SplineSet
117 -134 m 1
 117 -132 119 -126 123 -117 c 0
 140 -82 158 -40 168 8 c 1
 162 3 153 0 136 0 c 0
 119 0 113 16 99 27 c 0
 72 47 47 62 32 80 c 0
 31 81 30 83 30 84 c 0
 30 93 66 93 66 108 c 0
 66 149 66 174 66 203 c 0
 66 217 66 234 66 252 c 0
 66 288 71 318 71 347 c 0
 71 357 71 368 69 378 c 0
 67 386 57 383 49 383 c 0
 39 383 21 373 16 373 c 0
 15 373 14 373 14 374 c 0
 14 375 14 376 15 377 c 0
 33 417 37 409 55 423 c 0
 78 440 107 450 130 450 c 0
 141 450 152 447 158 442 c 0
 165 437 171 431 174 425 c 1
 186 434 199 441 218 445 c 0
 228 447 238 451 246 451 c 0
 254 451 262 448 270 442 c 0
 282 434 291 423 291 410 c 0
 291 407 290 402 289 399 c 0
 285 388 262 396 261 384 c 0
 260 364 260 350 260 342 c 0
 260 325 261 323 261 301 c 0
 261 231 262 188 262 157 c 0
 262 104 258 90 238 47 c 0
 209 -11 125 -134 117 -134 c 1
177 74 m 1
 178 85 178 97 178 108 c 0
 178 149 178 174 178 203 c 0
 178 217 178 234 178 252 c 0
 178 288 183 318 183 347 c 0
 183 357 183 368 181 378 c 0
 180 381 179 383 177 383 c 0
 170 383 157 371 147 369 c 1
 147 357 147 348 147 342 c 0
 147 325 148 323 148 301 c 0
 148 255 150 220 150 183 c 0
 150 145 148 126 148 120 c 0
 148 105 155 95 164 83 c 0
 167 78 172 76 177 74 c 1
EndSplineSet
Validated: 1
LCarets2: 1 0 
Ligature2: "'liga' Standard Ligatures in Latin lookup 0 subtable" i j
EndChar

StartChar: Kcommaaccent
Encoding: 310 310 506
Width: 553
Flags: HW
LayerCount: 2
Fore
SplineSet
221 331 m 0
 221 317 239 313 246 313 c 0
 272 313 293 346 323 359 c 0
 343 368 380 364 380 403 c 0
 380 418 372 435 366 452 c 0
 360 469 358 504 326 504 c 0
 310 504 295 490 276 484 c 0
 260 479 229 484 229 450 c 0
 229 444 230 437 230 430 c 0
 230 417 228 423 227 362 c 0
 227 351 221 340 221 331 c 0
238 16 m 1
 192 25 133 59 133 114 c 0
 133 133 138 152 138 170 c 0
 138 206 115 219 100 219 c 0
 80 219 56 202 36 202 c 0
 17 202 7 216 7 225 c 0
 7 259 143 232 143 373 c 0
 143 382 143 390 143 399 c 0
 143 429 146 436 146 473 c 0
 146 512 143 546 143 581 c 0
 143 593 143 605 144 617 c 0
 150 688 237 737 298 762 c 0
 360 787 418 809 474 809 c 0
 513 809 550 799 587 771 c 0
 635 736 645 657 645 608 c 0
 645 551 636 555 605 553 c 0
 600 553 596 552 591 552 c 0
 583 552 574 554 571 562 c 0
 556 605 568 684 516 728 c 0
 493 746 470 754 445 754 c 0
 429 754 411 750 393 746 c 0
 322 730 276 705 240 642 c 0
 234 632 231 621 231 612 c 0
 231 599 236 584 236 567 c 0
 236 556 231 545 231 536 c 0
 231 519 248 514 254 514 c 0
 268 514 283 529 301 534 c 0
 332 543 351 569 378 569 c 0
 425 569 431 514 442 485 c 0
 454 454 472 424 472 398 c 0
 472 389 469 380 464 372 c 0
 440 338 415 353 381 335 c 0
 362 324 297 313 297 293 c 0
 297 282 324 281 338 273 c 2
 338 273 393 233 436 221 c 1
 447 218 459 218 470 218 c 0
 473 218 l 0
 494 218 512 218 522 200 c 0
 523 198 523 196 523 195 c 0
 523 184 495 184 479 181 c 0
 454 176 436 174 420 174 c 0
 362 174 352 202 326 218 c 0
 302 233 300 246 271 246 c 0
 224 246 218 205 218 189 c 0
 218 160 235 133 243 98 c 0
 251 64 271 54 296 54 c 0
 333 54 365 74 389 74 c 0
 395 74 399 73 399 70 c 0
 399 58 342 24 290 15 c 1
 290 14 290 14 290 13 c 0
 291 -4 292 -17 292 -27 c 0
 292 -51 286 -59 271 -78 c 0
 255 -101 200 -130 187 -130 c 0
 185 -130 184 -129 184 -128 c 0
 184 -127 185 -124 188 -121 c 0
 216 -90 224 -99 234 -75 c 0
 239 -64 241 -52 241 -42 c 0
 241 -26 238 -9 238 7 c 0
 238 10 241 16 238 16 c 1
EndSplineSet
Validated: 1
EndChar

StartChar: NameMe-311
Encoding: 311 311 507
Width: 391
Flags: HW
LayerCount: 2
Fore
SplineSet
175 329 m 0
 183 321 193 317 203 317 c 0
 214 317 228 322 240 326 c 8
 258 332 268 342 276 359 c 16
 279 364 280 370 280 375 c 0
 280 381 279 388 279 394 c 0
 279 397 279 399 280 402 c 0
 282 411 286 424 286 433 c 0
 286 439 283 444 276 445 c 0
 275 445 273 445 272 445 c 0
 255 445 240 427 218 417 c 8
 203 409 188 410 178 396 c 16
 175 391 174 387 174 382 c 0
 174 377 175 371 175 365 c 0
 175 355 171 347 171 339 c 0
 171 335 172 332 175 329 c 0
255 206 m 0
 240 206 232 218 218 224 c 0
 207 228 192 243 184 243 c 0
 181 243 179 241 178 237 c 0
 172 208 169 166 169 140 c 0
 169 129 169 126 169 122 c 0
 169 115 168 107 168 100 c 0
 168 93 170 86 177 83 c 0
 180 82 182 81 185 81 c 0
 202 81 213 108 232 117 c 0
 239 120 252 130 251 123 c 0
 242 77 230 76 212 49 c 0
 198 27 192 10 168 0 c 2
 163 0 l 1
 164 -1 164 -4 164 -6 c 0
 165 -23 166 -36 166 -46 c 0
 166 -70 160 -78 145 -97 c 0
 129 -120 74 -150 61 -150 c 0
 59 -150 58 -148 58 -147 c 0
 58 -146 59 -143 62 -140 c 0
 90 -109 99 -118 109 -94 c 0
 114 -83 115 -71 115 -61 c 0
 115 -45 112 -28 112 -12 c 2
 112 -4 l 1
 109 -3 106 -2 103 0 c 0
 78 14 79 36 65 61 c 0
 50 88 23 102 23 131 c 0
 23 133 24 135 24 138 c 0
 24 151 37 156 48 163 c 0
 58 170 72 165 79 175 c 0
 83 181 85 188 85 194 c 0
 85 201 83 207 82 215 c 0
 81 224 82 233 74 237 c 0
 72 238 70 239 68 239 c 0
 58 239 47 225 37 225 c 0
 35 225 33 226 31 227 c 0
 22 232 15 242 15 252 c 0
 15 256 16 260 18 264 c 0
 22 271 30 273 38 273 c 0
 44 273 51 272 57 272 c 0
 65 272 73 275 75 283 c 0
 83 320 84 342 84 365 c 0
 84 377 84 390 84 404 c 0
 84 411 84 419 84 427 c 0
 85 467 86 495 86 527 c 0
 86 571 85 594 85 601 c 0
 85 614 86 626 86 637 c 0
 86 647 85 658 80 670 c 0
 69 696 30 693 30 720 c 0
 30 738 48 741 63 750 c 0
 79 760 91 771 109 771 c 0
 110 771 112 771 113 771 c 0
 139 771 139 731 165 731 c 0
 166 731 168 731 169 731 c 0
 183 731 191 744 205 750 c 0
 211 753 265 783 310 783 c 0
 324 783 338 779 349 771 c 0
 372 755 365 731 377 703 c 0
 379 698 380 694 380 689 c 0
 380 667 358 650 340 633 c 0
 333 626 324 618 316 618 c 0
 314 618 311 619 309 621 c 0
 291 633 301 656 291 676 c 0
 282 694 280 720 260 720 c 0
 258 720 257 720 255 720 c 0
 238 720 228 702 214 688 c 0
 185 659 178 635 178 596 c 0
 178 582 179 565 180 547 c 0
 180 542 180 537 180 531 c 0
 180 516 180 497 180 481 c 0
 180 457 183 438 193 438 c 0
 196 438 199 439 203 442 c 0
 246 473 250 464 280 479 c 2
 329 504 l 2
 339 509 346 511 351 511 c 0
 361 511 365 503 365 493 c 0
 365 482 361 468 361 457 c 0
 361 453 361 448 362 445 c 0
 366 431 368 420 368 409 c 0
 368 397 367 383 367 366 c 0
 367 352 352 348 341 341 c 0
 322 329 317 328 289 316 c 0
 285 314 283 310 283 306 c 0
 283 297 290 286 298 280 c 0
 301 278 304 276 307 276 c 0
 317 276 331 286 339 286 c 0
 343 286 345 284 347 280 c 0
 348 277 349 273 349 271 c 0
 349 254 321 246 304 233 c 0
 287 220 277 207 255 206 c 0
EndSplineSet
Validated: 513
EndChar

StartChar: kgreenlandic
Encoding: 312 312 508
Width: 498
Flags: HW
LayerCount: 2
Fore
SplineSet
70 323 m 0
 70 323 70 328 61 362 c 0
 54 389 11 386 11 413 c 0
 11 413 11 414 11 415 c 8
 11 432 31 433 45 442 c 16
 61 452 72 464 90 464 c 0
 91 464 93 464 94 464 c 8
 107 464 114 455 122 445 c 24
 138 426 139 439 154 390 c 0
 155 387 156 385 157 385 c 0
 163 385 169 431 186 442 c 0
 225 468 259 475 298 475 c 0
 320 475 343 473 369 470 c 8
 413 465 448 470 476 430 c 0
 479 426 480 423 480 420 c 0
 480 409 461 402 449 375 c 0
 442 360 426 346 412 346 c 0
 408 346 403 347 399 350 c 0
 372 372 322 414 269 414 c 0
 260 414 251 413 242 410 c 8
 205 398 184 419 184 329 c 0
 184 307 202 305 227 289 c 0
 255 271 306 216 353 166 c 24
 389 127 389 122 438 61 c 0
 440 58 441 56 441 54 c 0
 441 43 424 33 413 24 c 0
 400 13 384 -6 372 -6 c 0
 368 -6 364 -4 361 0 c 0
 324 52 327 84 292 129 c 16
 262 168 214 253 190 253 c 0
 184 253 180 248 178 237 c 0
 172 208 169 166 169 140 c 0
 169 135 169 130 169 126 c 0
 169 125 169 123 169 122 c 0
 169 115 168 107 168 100 c 0
 168 93 170 86 177 83 c 0
 180 82 182 81 185 81 c 0
 202 81 213 108 232 117 c 8
 239 120 252 131 251 123 c 16
 242 77 230 76 212 49 c 24
 198 28 192 10 168 0 c 16
 156 -5 145 -8 134 -8 c 0
 124 -8 113 -6 103 0 c 8
 79 14 79 36 65 61 c 16
 50 88 23 102 23 131 c 0
 23 133 24 135 24 138 c 8
 24 152 37 155 48 163 c 24
 59 170 72 164 79 175 c 16
 83 181 85 188 85 194 c 0
 85 201 83 207 82 215 c 8
 81 224 82 233 74 237 c 16
 72 238 70 239 68 239 c 0
 58 239 47 225 37 225 c 0
 35 225 33 226 31 227 c 0
 22 232 15 242 15 252 c 0
 15 256 16 260 18 264 c 0
 22 271 31 273 40 273 c 0
 47 273 55 272 61 272 c 0
 69 272 75 275 75 281 c 0
 75 282 75 282 75 283 c 0
 71 308 70 319 70 323 c 0
EndSplineSet
Validated: 1
EndChar

